<svg xmlns="http://www.w3.org/2000/svg" xmlns:xlink="http://www.w3.org/1999/xlink" viewBox="0 85 177.67 223.39"><defs><style>.cls-1,.cls-13{fill:none;}.cls-2{fill:#fff;}.cls-3{fill:#dcf1fc;}.cls-4{fill:#c4e8fa;}.cls-5{clip-path:url(#clip-path);}.cls-6{fill:#00adee;}.cls-7{fill:#eb008b;}.cls-8{fill:#2e3191;}.cls-9{fill:#fff100;}.cls-10{fill:#00a551;}.cls-11{fill:#ec1c24;}.cls-12{fill:#363639;}.cls-13{stroke:#000;stroke-miterlimit:10;stroke-width:4px;}</style><clipPath id="clip-path" transform="translate(0 84.77)"><path class="cls-1" d="M86.34,72.17h54.5a5.1,5.1,0,0,0,5.09-5.09V12.51a5.1,5.1,0,0,0-5.09-5.09H86.34a5.1,5.1,0,0,0-5.09,5.09V67.08A5.1,5.1,0,0,0,86.34,72.17Z"/></clipPath></defs><g id="Layer_2" data-name="Layer 2"><g id="Layer_1-2" data-name="Layer 1"><rect class="cls-2" x="7.42" y="105.29" width="126.16" height="75.35"/><rect class="cls-3" x="13.63" y="138.63" width="113.75" height="7.51"/><rect class="cls-3" x="13.63" y="151.36" width="113.75" height="7.51"/><rect class="cls-3" x="13.63" y="164.08" width="113.75" height="7.51"/><rect class="cls-4" x="13.63" y="115.14" width="113.75" height="15.02"/><path d="M128.5,13.1h-116A12.52,12.52,0,0,0,0,25.61V90.78a12.52,12.52,0,0,0,12.51,12.51h116A12.52,12.52,0,0,0,141,90.78V25.61A12.52,12.52,0,0,0,128.5,13.1Zm5.08,77.68a5.1,5.1,0,0,1-5.08,5.09h-116a5.1,5.1,0,0,1-5.09-5.09V25.61a5.09,5.09,0,0,1,5.09-5.09h116a5.09,5.09,0,0,1,5.08,5.09V90.78Z" transform="translate(0 84.77)"/><path d="M140.84,0H86.34A12.52,12.52,0,0,0,73.83,12.51V67.08A12.52,12.52,0,0,0,86.34,79.59h54.5a12.52,12.52,0,0,0,12.51-12.51V12.51A12.52,12.52,0,0,0,140.84,0Zm5.09,67.08a5.1,5.1,0,0,1-5.09,5.09H86.34a5.1,5.1,0,0,1-5.09-5.09V12.51a5.1,5.1,0,0,1,5.09-5.09h54.5a5.1,5.1,0,0,1,5.09,5.09V67.08Z" transform="translate(0 84.77)"/><g class="cls-5"><path class="cls-1" d="M84.78-42.47a42.54,42.54,0,0,0,2.9,12,9.33,9.33,0,0,1,4.53-6.69,9.51,9.51,0,0,1,3.53-1.18,24.72,24.72,0,0,0-7.28-3.49A18.71,18.71,0,0,0,84.78-42.47Z" transform="translate(0 84.77)"/><path class="cls-1" d="M127.93,91.05a9.47,9.47,0,0,1-3.53,1.19,25.07,25.07,0,0,0,7.28,3.48,19.5,19.5,0,0,0,3.68.61,42.53,42.53,0,0,0-2.9-12A9.33,9.33,0,0,1,127.93,91.05Z" transform="translate(0 84.77)"/><path class="cls-6" d="M74.17-40.18c-.2.56-.39,1.13-.54,1.72-1.72,6.6.2,14.25,2.32,19.68a9.31,9.31,0,0,1,4.54-6.69,9.3,9.3,0,0,1,7.47-.8,9.4,9.4,0,0,1-.28-4.24,42.54,42.54,0,0,1-2.9-12A20.87,20.87,0,0,0,74.17-40.18Z" transform="translate(0 84.77)"/><path class="cls-6" d="M105.28-71.65C125-66.19,136.34-46,136.82-45.1l14.4,24.94a10.1,10.1,0,0,1,.82,1.89,9.26,9.26,0,0,0,7.47-.8A9.39,9.39,0,0,0,163-31.89l-14.4-24.94c-.48-.86-11.87-21.09-31.55-26.55-10.24-2.85-20.6-1.31-30.79,4.57A41.24,41.24,0,0,0,71.67-65.3c.91-.61,1.83-1.21,2.81-1.78C84.67-73,95-74.5,105.28-71.65Z" transform="translate(0 84.77)"/><path class="cls-6" d="M134.24,105.76a16.37,16.37,0,0,0,.54-1.72,23.42,23.42,0,0,0,.58-7.71,19.5,19.5,0,0,1-3.68-.61,25.07,25.07,0,0,1-7.28-3.48,9.41,9.41,0,0,1-4-.39A9.36,9.36,0,0,1,112.67,104a24.75,24.75,0,0,0,7.29,3.48C124.59,108.71,129.28,108.16,134.24,105.76Z" transform="translate(0 84.77)"/><path class="cls-6" d="M79.44,57.87a9.07,9.07,0,0,0,.39,2.52,8.6,8.6,0,0,1,1.36.51Z" transform="translate(0 84.77)"/><path class="cls-6" d="M169.3,45.51,140.7-4a9.35,9.35,0,0,1-4.64,8.41,9.38,9.38,0,0,1-8.83.29l30.34,52.56c.39.64,12.11,20.21,7.14,39.65a36.47,36.47,0,0,1-4.51,10.53c8.42-5.64,13.9-13.1,16.24-22.26C181.41,65.72,169.69,46.15,169.3,45.51Z" transform="translate(0 84.77)"/><path class="cls-7" d="M68.16-58a36.28,36.28,0,0,1,3.51-7.29A40,40,0,0,0,59.94-53.57c.92-.61,1.83-1.22,2.82-1.78A49,49,0,0,1,68.16-58Z" transform="translate(0 84.77)"/><path class="cls-7" d="M124.4,92.24a9.47,9.47,0,0,0,3.53-1.19,9.33,9.33,0,0,0,4.53-6.69,44.47,44.47,0,0,0-2.41-5.22,9.26,9.26,0,0,1-3.21-3.25l-52.54-91a66.6,66.6,0,0,1-7.42-20.08,17.93,17.93,0,0,0-5,8.45C59.37-17,64.72-5,67-1.2L117.36,86A40.14,40.14,0,0,0,124.4,92.24Z" transform="translate(0 84.77)"/><path class="cls-7" d="M146.7-22.5,132.21-47.6c-.15-.26-8.24-14.42-20.3-17.72-5.26-1.44-10.6-.54-16.32,2.76a29.16,29.16,0,0,0-3.42,2.32c.46.11.92.19,1.38.31a46.77,46.77,0,0,1,18.2,10.32,9.3,9.3,0,0,1,5,4.12L118.17-43a64.77,64.77,0,0,1,6.92,9.68l14.4,24.94a9.49,9.49,0,0,1,.82,1.89,9.32,9.32,0,0,0,7.48-.8A9.4,9.4,0,0,0,152-18.27,9.28,9.28,0,0,1,146.7-22.5Z" transform="translate(0 84.77)"/><path class="cls-8" d="M126.84,75.89a9.26,9.26,0,0,0,3.21,3.25c-.13-.23-.25-.45-.37-.64L77.05-12.65A9.33,9.33,0,0,1,76-18.78c-2.12-5.43-4-13.08-2.32-19.68.15-.59.34-1.16.54-1.72-.67.33-1.35.68-2,1.08a26,26,0,0,0-5.26,3.91A66.6,66.6,0,0,0,74.3-15.11Z" transform="translate(0 84.77)"/><path class="cls-8" d="M92.17-60.24a29.16,29.16,0,0,1,3.42-2.32c5.72-3.3,11.06-4.2,16.32-2.76C124-62,132.06-47.86,132.21-47.6L146.7-22.5A9.28,9.28,0,0,0,152-18.27a10.1,10.1,0,0,0-.82-1.89L136.82-45.1C136.34-46,125-66.19,105.28-71.65,95-74.5,84.67-73,74.48-67.08c-1,.57-1.9,1.17-2.81,1.78A36.28,36.28,0,0,0,68.16-58,37.83,37.83,0,0,1,92.17-60.24Z" transform="translate(0 84.77)"/><path class="cls-7" d="M124.4,92.24a40.14,40.14,0,0,1-7-6.22L119.63,90a9.49,9.49,0,0,1,.82,1.89A9.41,9.41,0,0,0,124.4,92.24Z" transform="translate(0 84.77)"/><path class="cls-8" d="M118.17-43l-1.41-2.44a9.3,9.3,0,0,0-5-4.12A66.4,66.4,0,0,1,118.17-43Z" transform="translate(0 84.77)"/><path class="cls-7" d="M73.44,76.35l14.49,25.1c.15.26,8.24,14.42,20.3,17.72,5.26,1.44,10.6.54,16.32-2.76a30.18,30.18,0,0,0,3.43-2.32c-.46-.11-.93-.19-1.39-.31a46.66,46.66,0,0,1-18.19-10.32,9.32,9.32,0,0,1-5-4.12L102,96.9a65.56,65.56,0,0,1-6.92-9.67l-14.4-25a9.49,9.49,0,0,1-.82-1.89A9.34,9.34,0,0,0,68.1,72.11,9.34,9.34,0,0,1,73.44,76.35Z" transform="translate(0 84.77)"/><path class="cls-7" d="M95.74-38.38a9.51,9.51,0,0,0-3.53,1.18,9.33,9.33,0,0,0-4.53,6.69,44.47,44.47,0,0,0,2.41,5.22A9.26,9.26,0,0,1,93.3-22l52.54,91A66.34,66.34,0,0,1,153.26,89a17.85,17.85,0,0,0,5-8.45c2.53-9.73-2.82-21.74-5.1-25.54L102.78-32.18A39.66,39.66,0,0,0,95.74-38.38Z" transform="translate(0 84.77)"/><path class="cls-7" d="M152,111.86a36.28,36.28,0,0,1-3.51,7.29,40,40,0,0,0,11.73-11.73c-.92.61-1.83,1.22-2.82,1.78A49,49,0,0,1,152,111.86Z" transform="translate(0 84.77)"/><path class="cls-7" d="M88-26.27a9.34,9.34,0,0,1,2.13,1,44.47,44.47,0,0,1-2.41-5.22A9.4,9.4,0,0,0,88-26.27Z" transform="translate(0 84.77)"/><path class="cls-8" d="M134.24,105.76c-5,2.4-9.65,2.95-14.28,1.68a24.75,24.75,0,0,1-7.29-3.48,9.38,9.38,0,0,1-4.27-.5,46.66,46.66,0,0,0,18.19,10.32c.46.12.93.2,1.39.31A18.93,18.93,0,0,0,134.24,105.76Z" transform="translate(0 84.77)"/><path class="cls-7" d="M95.05,87.23A65.56,65.56,0,0,0,102,96.9l-20.78-36a8.6,8.6,0,0,0-1.36-.51,9.49,9.49,0,0,0,.82,1.89Z" transform="translate(0 84.77)"/><path class="cls-8" d="M157.57,57.24,127.23,4.68a9.29,9.29,0,0,1-4-3.73L108.75-24.14a50.38,50.38,0,0,0-6-8l50.36,87.23c2.28,3.8,7.63,15.81,5.1,25.54a17.85,17.85,0,0,1-5,8.45,45.05,45.05,0,0,1-.28,19.58c-.28,1.11-.63,2.18-1,3.24a49,49,0,0,0,5.4-2.66c1-.56,1.9-1.17,2.82-1.78a36.47,36.47,0,0,0,4.51-10.53C169.68,77.45,158,57.88,157.57,57.24Z" transform="translate(0 84.77)"/><path class="cls-9" d="M84.08,49.46a9.38,9.38,0,0,1,8.83-.29L62.57-3.39C62.18-4,50.46-23.6,55.43-43a36.47,36.47,0,0,1,4.51-10.53C51.52-47.93,46-40.47,43.7-31.32c-5,19.45,6.75,39,7.14,39.66l28.6,49.53A9.35,9.35,0,0,1,84.08,49.46Z" transform="translate(0 84.77)"/><path class="cls-9" d="M140.7-4a9.12,9.12,0,0,0-.39-2.52A9.7,9.7,0,0,1,139-7Z" transform="translate(0 84.77)"/><path class="cls-9" d="M85.9-51.91a16.37,16.37,0,0,0-.54,1.72,23.46,23.46,0,0,0-.58,7.72,18.71,18.71,0,0,1,3.68.6,24.72,24.72,0,0,1,7.28,3.49,9.25,9.25,0,0,1,4,.38,9.4,9.4,0,0,1,4.25-10.93,9.45,9.45,0,0,1,3.53-1.18,24.75,24.75,0,0,0-7.29-3.48C95.55-54.86,90.86-54.31,85.9-51.91Z" transform="translate(0 84.77)"/><path class="cls-10" d="M84.78-42.47a23.46,23.46,0,0,1,.58-7.72,16.37,16.37,0,0,1,.54-1.72c-.67.33-1.35.69-2,1.08-4.93,2.84-8.11,6.34-9.7,10.65A20.87,20.87,0,0,1,84.78-42.47Z" transform="translate(0 84.77)"/><path class="cls-10" d="M135-10.77l-14.49-25.1c-.11-.2-5.09-8.88-13-14.24a9.45,9.45,0,0,0-3.53,1.18A9.4,9.4,0,0,0,99.69-38,9.33,9.33,0,0,1,105-33.76l22.2,38.44a9.38,9.38,0,0,0,8.83-.29A9.35,9.35,0,0,0,140.7-4L139-7A9.36,9.36,0,0,1,135-10.77Z" transform="translate(0 84.77)"/><path class="cls-10" d="M85.17,64.62l14.49,25.1c.11.2,5.09,8.88,13,14.24a9.36,9.36,0,0,0,7.78-12.11,9.29,9.29,0,0,1-5.34-4.24L92.91,49.17a9.33,9.33,0,0,0-13.47,8.7l1.75,3A9.36,9.36,0,0,1,85.17,64.62Z" transform="translate(0 84.77)"/><path class="cls-11" d="M85.9-51.91c5-2.4,9.65-3,14.28-1.68a24.75,24.75,0,0,1,7.29,3.48,9.42,9.42,0,0,1,4.28.5,46.77,46.77,0,0,0-18.2-10.32c-.46-.12-.92-.2-1.38-.31A18.88,18.88,0,0,0,85.9-51.91Z" transform="translate(0 84.77)"/><path class="cls-11" d="M125.09-33.37A64.77,64.77,0,0,0,118.17-43L139-7a9.7,9.7,0,0,0,1.36.51,9.49,9.49,0,0,0-.82-1.89Z" transform="translate(0 84.77)"/><path class="cls-11" d="M62.57-3.39,92.91,49.17a9.29,9.29,0,0,1,4,3.73L111.39,78a50.06,50.06,0,0,0,6,8L67-1.2C64.72-5,59.37-17,61.9-26.74a17.93,17.93,0,0,1,5-8.45,45.05,45.05,0,0,1,.28-19.58c.28-1.11.63-2.18,1-3.24a49,49,0,0,0-5.4,2.66c-1,.56-1.9,1.17-2.82,1.78A36.47,36.47,0,0,0,55.43-43C50.46-23.6,62.18-4,62.57-3.39Z" transform="translate(0 84.77)"/><path class="cls-12" d="M74.17-40.18c1.59-4.31,4.77-7.81,9.7-10.65.68-.39,1.36-.75,2-1.08a18.88,18.88,0,0,1,6.27-8.33,37.83,37.83,0,0,0-24,2.23c-.37,1.06-.72,2.13-1,3.24a45.05,45.05,0,0,0-.28,19.58,26,26,0,0,1,5.26-3.91C72.82-39.5,73.5-39.85,74.17-40.18Z" transform="translate(0 84.77)"/><path class="cls-12" d="M107.47-50.11c7.92,5.36,12.9,14,13,14.24L135-10.77A9.36,9.36,0,0,0,139-7L118.17-43a66.4,66.4,0,0,0-6.42-6.56A9.42,9.42,0,0,0,107.47-50.11Z" transform="translate(0 84.77)"/><path class="cls-12" d="M117.36,86a50.06,50.06,0,0,1-6-8L96.9,52.9a9.29,9.29,0,0,0-4-3.73l22.2,38.44a9.29,9.29,0,0,0,5.34,4.24,9.49,9.49,0,0,0-.82-1.89Z" transform="translate(0 84.77)"/><path class="cls-11" d="M99.69-38a9.25,9.25,0,0,0-4-.38,39.66,39.66,0,0,1,7,6.2l-2.27-3.93A9.49,9.49,0,0,1,99.69-38Z" transform="translate(0 84.77)"/><path class="cls-11" d="M102,96.9l1.41,2.44a9.32,9.32,0,0,0,5,4.12A65.45,65.45,0,0,1,102,96.9Z" transform="translate(0 84.77)"/><path class="cls-12" d="M112.67,104c-7.92-5.36-12.9-14-13-14.24L85.17,64.62a9.36,9.36,0,0,0-4-3.72L102,96.9a65.45,65.45,0,0,0,6.43,6.56A9.38,9.38,0,0,0,112.67,104Z" transform="translate(0 84.77)"/><path class="cls-12" d="M99.69-38a9.49,9.49,0,0,0,.82,1.89l2.27,3.93a50.38,50.38,0,0,1,6,8L123.24,1a9.29,9.29,0,0,0,4,3.73L105-33.76A9.33,9.33,0,0,0,99.69-38Z" transform="translate(0 84.77)"/><path class="cls-9" d="M114.87,125.5C95.19,120,83.8,99.81,83.32,99L68.92,74a9.91,9.91,0,0,1-.82-1.9A9.36,9.36,0,0,0,57.19,85.73l14.41,25c.47.86,11.86,21.09,31.54,26.55,10.24,2.85,20.6,1.31,30.79-4.57a41.24,41.24,0,0,0,14.54-13.51c-.91.61-1.83,1.21-2.81,1.78C135.47,126.81,125.11,128.35,114.87,125.5Z" transform="translate(0 84.77)"/><path class="cls-9" d="M139.65,79.32a9.26,9.26,0,0,1-7.47.8,9.4,9.4,0,0,1,.28,4.24,42.53,42.53,0,0,1,2.9,12A21,21,0,0,0,146,94c.2-.56.39-1.13.54-1.71,1.72-6.61-.2-14.26-2.32-19.69A9.29,9.29,0,0,1,139.65,79.32Z" transform="translate(0 84.77)"/><path class="cls-10" d="M88.78-24.38A10.1,10.1,0,0,1,88-26.27a9.3,9.3,0,0,0-7.47.8A9.31,9.31,0,0,0,76-18.78a42.06,42.06,0,0,0,2.78,5.86l52.63,91.15a10.1,10.1,0,0,1,.82,1.89,9.28,9.28,0,0,0,12-7.49,41.28,41.28,0,0,0-2.78-5.85Z" transform="translate(0 84.77)"/><path class="cls-10" d="M135.36,96.33a23.42,23.42,0,0,1-.58,7.71,16.37,16.37,0,0,1-.54,1.72c.67-.33,1.35-.68,2-1.08,4.93-2.84,8.11-6.34,9.7-10.65A21,21,0,0,1,135.36,96.33Z" transform="translate(0 84.77)"/><path class="cls-9" d="M132.18,80.12a9.34,9.34,0,0,1-2.13-1,44.47,44.47,0,0,1,2.41,5.22A9.4,9.4,0,0,0,132.18,80.12Z" transform="translate(0 84.77)"/><path class="cls-12" d="M131.36,78.23,78.73-12.92A42.06,42.06,0,0,1,76-18.78a9.33,9.33,0,0,0,1.1,6.13L129.68,78.5c.12.19.24.41.37.64a9.34,9.34,0,0,0,2.13,1A10.1,10.1,0,0,0,131.36,78.23Z" transform="translate(0 84.77)"/><path class="cls-11" d="M128,114.09a30.18,30.18,0,0,1-3.43,2.32c-5.72,3.3-11.06,4.2-16.32,2.76-12.06-3.3-20.15-17.46-20.3-17.72L73.44,76.35a9.34,9.34,0,0,0-5.34-4.24,9.91,9.91,0,0,0,.82,1.9L83.32,99c.48.86,11.87,21.09,31.55,26.55,10.24,2.85,20.6,1.31,30.79-4.57,1-.57,1.9-1.17,2.81-1.78a36.28,36.28,0,0,0,3.51-7.29A37.67,37.67,0,0,1,128,114.09Z" transform="translate(0 84.77)"/><path class="cls-11" d="M93.3-22a9.26,9.26,0,0,0-3.21-3.25c.13.23.25.45.37.64L143.09,66.5a9.34,9.34,0,0,1,1.1,6.13c2.12,5.43,4,13.08,2.32,19.69-.15.58-.34,1.15-.54,1.71.67-.33,1.35-.68,2-1.08A26,26,0,0,0,153.26,89,66.34,66.34,0,0,0,145.84,69Z" transform="translate(0 84.77)"/><path class="cls-12" d="M88.78-24.38l52.63,91.16a41.28,41.28,0,0,1,2.78,5.85,9.34,9.34,0,0,0-1.1-6.13L90.46-24.65c-.12-.19-.24-.41-.37-.64a9.34,9.34,0,0,0-2.13-1A10.1,10.1,0,0,0,88.78-24.38Z" transform="translate(0 84.77)"/><path class="cls-12" d="M146,94c-1.59,4.31-4.77,7.81-9.7,10.65-.68.4-1.36.75-2,1.08a18.93,18.93,0,0,1-6.26,8.33,37.67,37.67,0,0,0,24-2.23c.37-1.06.72-2.13,1-3.24A45.05,45.05,0,0,0,153.26,89,26,26,0,0,1,148,93C147.32,93.35,146.64,93.7,146,94Z" transform="translate(0 84.77)"/></g><circle cx="39.7" cy="142.55" r="5.91"/><line class="cls-13" x1="39.7" y1="142.55" x2="76.92" y2="124.56"/><path class="cls-2" d="M108.39,51.87a2.42,2.42,0,0,1-1.15-.32c-.41-.21-.84-.44-1.29-.7L90.1,41.53a2.49,2.49,0,0,1-.88-1,2.89,2.89,0,0,1-.29-1.24A3,3,0,0,1,89.22,38a2.13,2.13,0,0,1,.88-1L106,27.93a7.09,7.09,0,0,1,1.19-.61,2.87,2.87,0,0,1,1-.22,2.44,2.44,0,0,1,1.83.95,2.92,2.92,0,0,1,.85,2,1.91,1.91,0,0,1-.26.95,2.41,2.41,0,0,1-.81.81l-16.92,9.8-.34-4.88L109.75,47a2,2,0,0,1,.83.86,2.45,2.45,0,0,1,.25,1A3,3,0,0,1,110,51,2.25,2.25,0,0,1,108.39,51.87Z" transform="translate(0 84.77)"/><path class="cls-2" d="M118.43,51.87a2.48,2.48,0,0,1-1.83-.95,3,3,0,0,1-.85-2,1.83,1.83,0,0,1,.27-1,2.6,2.6,0,0,1,.8-.78l16.93-9.8.34,4.87L116.87,32a2,2,0,0,1-.83-.85,2.44,2.44,0,0,1-.24-1.05,3,3,0,0,1,.83-2.07,2.29,2.29,0,0,1,1.61-.9,2.45,2.45,0,0,1,1.14.31l1.3.71,15.85,9.32a2.06,2.06,0,0,1,.87,1,2.92,2.92,0,0,1,0,2.58,2.06,2.06,0,0,1-.87,1L120.68,51c-.43.23-.82.43-1.17.59A2.64,2.64,0,0,1,118.43,51.87Z" transform="translate(0 84.77)"/></g></g></svg>