<svg xmlns="http://www.w3.org/2000/svg" xmlns:xlink="http://www.w3.org/1999/xlink" viewBox="105 151 177.67 223.39"><defs><style>.cls-1{fill:none;}.cls-2{fill:#fff;}.cls-3{fill:#d0d2d3;}.cls-4{opacity:0.4;}.cls-5{clip-path:url(#clip-path);}.cls-6{fill:#00adee;}.cls-7{fill:#eb008b;}.cls-8{fill:#2e3191;}.cls-9{fill:#fff100;}.cls-10{fill:#00a551;}.cls-11{fill:#ec1c24;}</style><clipPath id="clip-path" transform="translate(108.26 151)"><path class="cls-1" d="M43.25,72.17h54.5a5.1,5.1,0,0,0,5.09-5.09V12.51a5.09,5.09,0,0,0-5.09-5.09H43.25a5.09,5.09,0,0,0-5.08,5.09V67.08A5.1,5.1,0,0,0,43.25,72.17Z"/></clipPath></defs><g id="Layer_2" data-name="Layer 2"><g id="Layer_1-2" data-name="Layer 1"><rect class="cls-2" x="115.55" y="171.56" width="126.16" height="75.35"/><rect class="cls-3" x="121.88" y="205.55" width="113.75" height="7.51"/><rect class="cls-3" x="121.88" y="218.27" width="113.75" height="7.51"/><rect class="cls-3" x="121.88" y="231" width="113.75" height="7.51"/><rect class="cls-3" x="121.88" y="182.06" width="113.75" height="15.02"/><path d="M128.5,13.78h-116A12.52,12.52,0,0,0,0,26.29V91.46A12.52,12.52,0,0,0,12.51,104h116A12.52,12.52,0,0,0,141,91.46V26.29A12.52,12.52,0,0,0,128.5,13.78Zm5.08,77.68a5.09,5.09,0,0,1-5.08,5.09h-116a5.09,5.09,0,0,1-5.09-5.09V26.29a5.09,5.09,0,0,1,5.09-5.09h116a5.09,5.09,0,0,1,5.08,5.09V91.46Z" transform="translate(108.26 151)"/><path class="cls-4" d="M133.58,91.46V26.29a5.09,5.09,0,0,0-5.08-5.09h-116a5.09,5.09,0,0,0-5.09,5.09V91.46a5.09,5.09,0,0,0,5.09,5.09h116A5.09,5.09,0,0,0,133.58,91.46Z" transform="translate(108.26 151)"/><path d="M97.75,0H43.25A12.53,12.53,0,0,0,30.74,12.51V67.08A12.53,12.53,0,0,0,43.25,79.59h54.5a12.52,12.52,0,0,0,12.51-12.51V12.51A12.52,12.52,0,0,0,97.75,0Zm5.09,67.08a5.1,5.1,0,0,1-5.09,5.09H43.25a5.1,5.1,0,0,1-5.08-5.09V12.51a5.09,5.09,0,0,1,5.08-5.09h54.5a5.09,5.09,0,0,1,5.09,5.09V67.08Z" transform="translate(108.26 151)"/><g class="cls-5"><path class="cls-6" d="M10.82-23.68l45.05-78h0c0-.07.07-.15.11-.22a14.54,14.54,0,0,1,16.1-6.8l.22-.38h0l.13-.21a14.57,14.57,0,0,0-5.34-19.92,14.45,14.45,0,0,0-4.29-1.58,14,14,0,0,1-.75,1.69,2.43,2.43,0,0,0-.14.2h0l-45,78L-35.87,40.46l-45,78h0c0,.08-.07.15-.11.22a14.54,14.54,0,0,1-15.63,6.92,14.54,14.54,0,0,0,6.1,18.24,14.47,14.47,0,0,0,3.82,1.46l44.83-77.65Z" transform="translate(108.26 151)"/><path class="cls-6" d="M78.28-23.68l45.05-78h0c0-.07.07-.15.11-.22a14.54,14.54,0,0,1,16.1-6.8l.22-.38h0l.13-.21a14.57,14.57,0,0,0-5.34-19.92,14.45,14.45,0,0,0-4.29-1.58,14.12,14.12,0,0,1-.76,1.69l-.13.2h0l-45,78L31.59,40.46l-45,78h0l-.11.22a14.55,14.55,0,0,1-15.63,6.92,14.54,14.54,0,0,0,6.09,18.24,14.74,14.74,0,0,0,3.82,1.46L25.54,67.67Z" transform="translate(108.26 151)"/><path class="cls-6" d="M145.73-23.68l45.05-78h0c0-.07.07-.15.11-.22a14.56,14.56,0,0,1,16.11-6.8l.21-.38h0l.13-.21A14.58,14.58,0,0,0,202-129.23a14.56,14.56,0,0,0-4.29-1.58,15.9,15.9,0,0,1-.76,1.69,2.43,2.43,0,0,1-.14.2h0l-45,78L99.05,40.46l-45,78h0a1.55,1.55,0,0,1-.12.22,14.54,14.54,0,0,1-15.63,6.92,14.27,14.27,0,0,0,9.92,19.7L93,67.67Z" transform="translate(108.26 151)"/><path class="cls-7" d="M-95.78,123.73h0l45.05-78L2-45.66l45.05-78h0l.11-.21a14.53,14.53,0,0,1,15.63-6.92A14.54,14.54,0,0,0,56.71-149a14.59,14.59,0,0,0-19.93,5.34l-.11.22h0l-45,78L-61.13,25.88l-45.05,78h0l-.13.21A14.58,14.58,0,0,0-101,124a14.45,14.45,0,0,0,4.29,1.58,14.12,14.12,0,0,1,.76-1.69Z" transform="translate(108.26 151)"/><path class="cls-8" d="M-81,118.7c0-.07.07-.14.11-.22h0l45-78L16.87-50.89l45.05-78h0a2.43,2.43,0,0,1,.14-.2,14,14,0,0,0,.75-1.69,14.53,14.53,0,0,0-15.63,6.92l-.11.21h0l-45,78L-50.74,45.69l-45.05,78h0l-.13.2a14.12,14.12,0,0,0-.76,1.69A14.54,14.54,0,0,0-81,118.7Z" transform="translate(108.26 151)"/><path class="cls-7" d="M-28.32,123.73h0l45-78L69.46-45.66l45-78h0a2.25,2.25,0,0,1,.12-.21,14.52,14.52,0,0,1,15.63-6.92,14.54,14.54,0,0,0-6.1-18.24,14.58,14.58,0,0,0-19.92,5.34c0,.07-.07.15-.11.22h0L80.63-102.82a14.54,14.54,0,0,1,.62,15.49l-.13.2h0l-45,78L-16.66,82.26-38.22,119.6A14.44,14.44,0,0,0-33.51,124a14.61,14.61,0,0,0,4.3,1.58,14,14,0,0,1,.75-1.69Z" transform="translate(108.26 151)"/><path class="cls-8" d="M-13.58,118.7l.11-.22h0l45.05-78L84.33-50.89l45.05-78h0l.13-.2a14.12,14.12,0,0,0,.76-1.69,14.52,14.52,0,0,0-15.63,6.92,2.25,2.25,0,0,0-.12.21h0l-45,78L16.71,45.69l-45,78h0l-.14.2a14,14,0,0,0-.75,1.69A14.55,14.55,0,0,0-13.58,118.7Z" transform="translate(108.26 151)"/><path class="cls-7" d="M39.13,123.73h0l45.05-78,52.74-91.35,45.05-78h0l.11-.21a14.54,14.54,0,0,1,15.64-6.92,14.55,14.55,0,0,0-6.1-18.24,14.59,14.59,0,0,0-19.93,5.34l-.11.22h0l-23.48,40.68a14.56,14.56,0,0,1,.62,15.49l-.13.2h0l-45,78L50.8,82.26,29.24,119.6a13.8,13.8,0,0,0,9,6,15.9,15.9,0,0,1,.76-1.69Z" transform="translate(108.26 151)"/><path class="cls-8" d="M53.87,118.7a1.55,1.55,0,0,0,.12-.22h0l45.05-78,52.74-91.35,45-78h0a2.43,2.43,0,0,0,.14-.2,15.9,15.9,0,0,0,.76-1.69,14.54,14.54,0,0,0-15.64,6.92l-.11.21h0l-45.05,78L84.17,45.69l-45.05,78h0l-.13.2a15.9,15.9,0,0,0-.76,1.69A14.54,14.54,0,0,0,53.87,118.7Z" transform="translate(108.26 151)"/><path class="cls-9" d="M-38.84,104.12l.13-.21h0l45.05-78L59.07-65.47l21.56-37.35a14.54,14.54,0,0,0-4.71-4.44,14.67,14.67,0,0,0-3.83-1.46L27.26-31.07-25.48,60.28l-45,78h0l-.11.22a14.52,14.52,0,0,1-16.1,6.8l-.22.38h0l-.13.21a14.57,14.57,0,0,0,5.34,19.92,14.58,14.58,0,0,0,19.92-5.34l.11-.21h0l23.49-40.68A14.53,14.53,0,0,1-38.84,104.12Z" transform="translate(108.26 151)"/><path class="cls-10" d="M-70.65,138.52l.11-.22h0l45.05-78L27.26-31.07l44.83-77.65a14.54,14.54,0,0,0-16.1,6.8c0,.07-.07.15-.11.22h0l-45,78L-41.92,67.67l-44.83,77.65A14.52,14.52,0,0,0-70.65,138.52Z" transform="translate(108.26 151)"/><path class="cls-11" d="M36.08-9.09l45.05-78h0l.13-.2a14.54,14.54,0,0,0-.62-15.49L59.07-65.47,6.33,25.88l-45,78h0l-.13.21a14.53,14.53,0,0,0,.62,15.48l21.56-37.34Z" transform="translate(108.26 151)"/><path class="cls-9" d="M28.61,104.12c0-.07.09-.14.14-.21h0l45.05-78,52.74-91.35,21.57-37.35a14.48,14.48,0,0,0-4.72-4.44,14.47,14.47,0,0,0-3.82-1.46L94.72-31.07,42,60.28l-45,78h0c0,.07-.07.15-.11.22a14.53,14.53,0,0,1-16.11,6.8l-.21.38h0l-.13.21a14.58,14.58,0,0,0,5.33,19.92,14.59,14.59,0,0,0,19.93-5.34l.11-.21h0L29.24,119.6A14.53,14.53,0,0,1,28.61,104.12Z" transform="translate(108.26 151)"/><path class="cls-10" d="M-3.19,138.52c0-.07.07-.15.11-.22h0L42,60.28,94.72-31.07l44.83-77.65a14.54,14.54,0,0,0-16.1,6.8c0,.07-.07.15-.11.22h0l-45,78L25.54,67.67-19.3,145.32A14.53,14.53,0,0,0-3.19,138.52Z" transform="translate(108.26 151)"/><path class="cls-11" d="M103.54-9.09l45.05-78h0l.13-.2a14.56,14.56,0,0,0-.62-15.49L126.52-65.47,73.78,25.88l-45,78h0c-.05.07-.1.14-.14.21a14.53,14.53,0,0,0,.63,15.48L50.8,82.26Z" transform="translate(108.26 151)"/><path class="cls-9" d="M210.83-107.26a14.74,14.74,0,0,0-3.82-1.46L162.17-31.07,109.43,60.28l-45.05,78h0c0,.07-.07.15-.11.22a14.52,14.52,0,0,1-16.1,6.8l-.22.38h0l-.13.21a14.58,14.58,0,0,0,25.26,14.58,2.25,2.25,0,0,0,.12-.21h0l45-78L171-9.09l45-78h0a2.43,2.43,0,0,0,.14-.2A14.6,14.6,0,0,0,210.83-107.26Z" transform="translate(108.26 151)"/><path class="cls-10" d="M64.26,138.52c0-.07.07-.15.11-.22h0l45.05-78,52.74-91.35L207-108.72a14.56,14.56,0,0,0-16.11,6.8c0,.07-.07.15-.11.22h0l-45.05,78L93,67.67,48.16,145.32A14.52,14.52,0,0,0,64.26,138.52Z" transform="translate(108.26 151)"/></g><rect class="cls-2" x="150.97" y="172.21" width="53.86" height="10.36"/><rect class="cls-2" x="150.97" y="189.6" width="53.86" height="10.36"/><rect x="172.37" y="205.66" width="32.45" height="10.57"/></g></g></svg>