<svg xmlns="http://www.w3.org/2000/svg" viewBox="0 0 49.62 82"><defs><style>.cls-1{fill:none;}.cls-2{fill:#00adee;}.cls-3{fill:#eb008b;}.cls-4{fill:#2e3191;}.cls-5{fill:#fff100;}.cls-6{fill:#00a551;}.cls-7{fill:#ec1c24;}.cls-8{fill:#363639;}</style></defs><g id="Layer_2" data-name="Layer 2"><g id="Layer_1-2" data-name="Layer 1"><path class="cls-1" d="M15.53,15.53a16,16,0,0,0,1.06,4.39,3.43,3.43,0,0,1,1.67-2.46A3.28,3.28,0,0,1,19.55,17a8.9,8.9,0,0,0-2.67-1.28A7,7,0,0,0,15.53,15.53Z"/><path class="cls-1" d="M31.37,64.54a3.27,3.27,0,0,1-1.3.43,9.07,9.07,0,0,0,2.68,1.28,6.81,6.81,0,0,0,1.34.22A15.61,15.61,0,0,0,33,62.08,3.42,3.42,0,0,1,31.37,64.54Z"/><path class="cls-2" d="M11.63,16.37a5.79,5.79,0,0,0-.19.63,12.41,12.41,0,0,0,.85,7.22A3.39,3.39,0,0,1,14,21.77a3.47,3.47,0,0,1,2.75-.3,3.41,3.41,0,0,1-.11-1.55,16,16,0,0,1-1.06-4.39A7.63,7.63,0,0,0,11.63,16.37Z"/><path class="cls-2" d="M23.05,4.81c7.23,2,11.41,9.44,11.58,9.75l5.29,9.16a3.52,3.52,0,0,1,.3.69A3.4,3.4,0,0,0,43,24.12a3.45,3.45,0,0,0,1.26-4.71l-5.28-9.15c-.18-.32-4.36-7.75-11.58-9.75A14.3,14.3,0,0,0,16.05,2.19a15,15,0,0,0-5.33,5c.33-.23.67-.45,1-.66A14.31,14.31,0,0,1,23.05,4.81Z"/><path class="cls-2" d="M33.68,69.94a5.1,5.1,0,0,0,.2-.63,8.43,8.43,0,0,0,.21-2.84,6.81,6.81,0,0,1-1.34-.22A9.07,9.07,0,0,1,30.07,65a3.39,3.39,0,0,1-1.45-.14,3.45,3.45,0,0,1-2.85,4.45,9.15,9.15,0,0,0,2.67,1.28A7.28,7.28,0,0,0,33.68,69.94Z"/><path class="cls-2" d="M13.57,52.36a3.6,3.6,0,0,0,.14.92,4.29,4.29,0,0,1,.5.19Z"/><path class="cls-2" d="M46.55,47.82,36.06,29.64a3.43,3.43,0,0,1-5,3.19l11.14,19.3c.14.23,4.44,7.42,2.62,14.55a13.36,13.36,0,0,1-1.66,3.87,13.74,13.74,0,0,0,6-8.17C51,55.24,46.7,48.06,46.55,47.82Z"/><path class="cls-3" d="M9.43,9.82a12.9,12.9,0,0,1,1.29-2.67,14.59,14.59,0,0,0-4.31,4.3c.34-.22.67-.44,1-.65A18.3,18.3,0,0,1,9.43,9.82Z"/><path class="cls-3" d="M30.07,65a3.27,3.27,0,0,0,1.3-.43A3.42,3.42,0,0,0,33,62.08a14.87,14.87,0,0,0-.89-1.91A3.45,3.45,0,0,1,31,59L11.68,25.57A24.55,24.55,0,0,1,9,18.2a6.55,6.55,0,0,0-1.83,3.1c-.93,3.57,1,8,1.87,9.38l18.49,32A14.06,14.06,0,0,0,30.07,65Z"/><path class="cls-3" d="M38.26,22.86l-5.32-9.22c-.06-.09-3-5.29-7.45-6.5a7.58,7.58,0,0,0-6,1A11.11,11.11,0,0,0,18.24,9c.17,0,.34.06.51.11a17.22,17.22,0,0,1,6.68,3.79,3.43,3.43,0,0,1,1.84,1.51l.52.89a23.82,23.82,0,0,1,2.54,3.56L35.61,28a3.28,3.28,0,0,1,.3.7,3.44,3.44,0,0,0,4.31-4.31A3.41,3.41,0,0,1,38.26,22.86Z"/><path class="cls-4" d="M31,59a3.45,3.45,0,0,0,1.17,1.2,2.6,2.6,0,0,0-.13-.24L12.69,26.47a3.39,3.39,0,0,1-.4-2.25A12.41,12.41,0,0,1,11.44,17a5.79,5.79,0,0,1,.19-.63l-.74.39A9.9,9.9,0,0,0,9,18.2a24.55,24.55,0,0,0,2.72,7.37Z"/><path class="cls-4" d="M18.24,9a11.11,11.11,0,0,1,1.26-.86,7.58,7.58,0,0,1,6-1c4.42,1.21,7.39,6.41,7.45,6.5l5.32,9.22a3.41,3.41,0,0,0,2,1.55,3.52,3.52,0,0,0-.3-.69l-5.29-9.16c-.17-.31-4.35-7.74-11.58-9.75a14.31,14.31,0,0,0-11.3,1.68c-.36.21-.7.43-1,.66A12.9,12.9,0,0,0,9.43,9.82,13.8,13.8,0,0,1,18.24,9Z"/><path class="cls-3" d="M30.07,65a14.06,14.06,0,0,1-2.58-2.28l.83,1.45a3.21,3.21,0,0,1,.3.69A3.39,3.39,0,0,0,30.07,65Z"/><path class="cls-4" d="M27.79,15.31l-.52-.89a3.43,3.43,0,0,0-1.84-1.51A26.4,26.4,0,0,1,27.79,15.31Z"/><path class="cls-3" d="M11.37,59.14l5.32,9.21c0,.1,3,5.3,7.45,6.51a7.58,7.58,0,0,0,6-1A11,11,0,0,0,31.38,73c-.16,0-.33-.06-.5-.11a17.08,17.08,0,0,1-6.68-3.79,3.36,3.36,0,0,1-1.84-1.51l-.52-.9a23.17,23.17,0,0,1-2.54-3.55L14,54a3.88,3.88,0,0,1-.3-.7,3.43,3.43,0,0,0-4.3,4.31A3.44,3.44,0,0,1,11.37,59.14Z"/><path class="cls-3" d="M19.55,17a3.28,3.28,0,0,0-1.29.43,3.43,3.43,0,0,0-1.67,2.46,16.37,16.37,0,0,0,.89,1.91A3.48,3.48,0,0,1,18.66,23l19.28,33.4a24.12,24.12,0,0,1,2.73,7.37,6.53,6.53,0,0,0,1.82-3.1c.93-3.57-1-8-1.87-9.38l-18.48-32A14.83,14.83,0,0,0,19.55,17Z"/><path class="cls-3" d="M40.2,72.18a13.43,13.43,0,0,1-1.29,2.67,14.56,14.56,0,0,0,4.3-4.3c-.33.22-.67.44-1,.65A18.17,18.17,0,0,1,40.2,72.18Z"/><path class="cls-3" d="M16.7,21.47a3.93,3.93,0,0,1,.78.36,16.37,16.37,0,0,1-.89-1.91A3.41,3.41,0,0,0,16.7,21.47Z"/><path class="cls-4" d="M33.68,69.94a7.28,7.28,0,0,1-5.24.62,9.15,9.15,0,0,1-2.67-1.28,3.34,3.34,0,0,1-1.57-.19,17.08,17.08,0,0,0,6.68,3.79c.17.05.34.07.5.11A6.85,6.85,0,0,0,33.68,69.94Z"/><path class="cls-3" d="M19.3,63.13a23.17,23.17,0,0,0,2.54,3.55L14.21,53.47a4.29,4.29,0,0,0-.5-.19,3.88,3.88,0,0,0,.3.7Z"/><path class="cls-4" d="M42.25,52.13,31.11,32.83a3.41,3.41,0,0,1-1.46-1.36l-5.32-9.22a19.72,19.72,0,0,0-2.19-2.95l18.48,32c.84,1.4,2.8,5.81,1.87,9.38a6.53,6.53,0,0,1-1.82,3.1A16.67,16.67,0,0,1,40.56,71c-.1.41-.23.8-.36,1.19a18.17,18.17,0,0,0,2-1c.36-.21.7-.43,1-.65a13.36,13.36,0,0,0,1.66-3.87C46.69,59.55,42.39,52.36,42.25,52.13Z"/><path class="cls-5" d="M15.27,49.27a3.45,3.45,0,0,1,3.24-.1L7.38,29.87c-.15-.23-4.45-7.42-2.62-14.55a13.34,13.34,0,0,1,1.65-3.87,13.78,13.78,0,0,0-6,8.17c-1.82,7.14,2.48,14.32,2.62,14.56l10.5,18.18A3.43,3.43,0,0,1,15.27,49.27Z"/><path class="cls-5" d="M36.06,29.64a3.22,3.22,0,0,0-.15-.92,4.29,4.29,0,0,1-.5-.19Z"/><path class="cls-5" d="M15.94,12.06c-.08.21-.14.42-.2.63a8.7,8.7,0,0,0-.21,2.84,7,7,0,0,1,1.35.22A8.9,8.9,0,0,1,19.55,17a3.38,3.38,0,0,1,1.45.14,3.45,3.45,0,0,1,2.86-4.45,9.33,9.33,0,0,0-2.68-1.28A7.29,7.29,0,0,0,15.94,12.06Z"/><path class="cls-6" d="M15.53,15.53a8.7,8.7,0,0,1,.21-2.84c.06-.21.12-.42.2-.63-.25.12-.5.25-.75.4a7.62,7.62,0,0,0-3.56,3.91A7.63,7.63,0,0,1,15.53,15.53Z"/><path class="cls-6" d="M34,27.16,28.63,18a17.76,17.76,0,0,0-4.77-5.23A3.45,3.45,0,0,0,21,17.17a3.41,3.41,0,0,1,2,1.55l8.15,14.11a3.43,3.43,0,0,0,5-3.19l-.65-1.11A3.43,3.43,0,0,1,34,27.16Z"/><path class="cls-6" d="M15.67,54.84,21,64.05a17.7,17.7,0,0,0,4.78,5.23,3.45,3.45,0,0,0,2.85-4.45,3.41,3.41,0,0,1-2-1.55L18.51,49.17a3.42,3.42,0,0,0-4.94,3.19l.64,1.11A3.38,3.38,0,0,1,15.67,54.84Z"/><path class="cls-7" d="M15.94,12.06a7.29,7.29,0,0,1,5.24-.62,9.33,9.33,0,0,1,2.68,1.28,3.36,3.36,0,0,1,1.57.19,17.22,17.22,0,0,0-6.68-3.79c-.17,0-.34-.07-.51-.11A6.92,6.92,0,0,0,15.94,12.06Z"/><path class="cls-7" d="M30.33,18.87a23.82,23.82,0,0,0-2.54-3.56l7.62,13.22a4.29,4.29,0,0,0,.5.19,3.28,3.28,0,0,0-.3-.7Z"/><path class="cls-7" d="M7.38,29.87l11.13,19.3A3.43,3.43,0,0,1,20,50.53l5.32,9.21a17.23,17.23,0,0,0,2.19,2.95L9,30.68c-.83-1.4-2.8-5.81-1.87-9.38A6.55,6.55,0,0,1,9,18.2,16.5,16.5,0,0,1,9.06,11a11.74,11.74,0,0,1,.37-1.19,18.3,18.3,0,0,0-2,1c-.36.21-.69.43-1,.65a13.34,13.34,0,0,0-1.65,3.87C2.93,22.45,7.23,29.64,7.38,29.87Z"/><path class="cls-8" d="M11.63,16.37a7.62,7.62,0,0,1,3.56-3.91c.25-.15.5-.28.75-.4A6.92,6.92,0,0,1,18.24,9a13.8,13.8,0,0,0-8.81.81A11.74,11.74,0,0,0,9.06,11,16.5,16.5,0,0,0,9,18.2a9.9,9.9,0,0,1,1.93-1.44Z"/><path class="cls-8" d="M23.86,12.72A17.76,17.76,0,0,1,28.63,18L34,27.16a3.43,3.43,0,0,0,1.46,1.37L27.79,15.31a26.4,26.4,0,0,0-2.36-2.4A3.36,3.36,0,0,0,23.86,12.72Z"/><path class="cls-8" d="M27.49,62.69a17.23,17.23,0,0,1-2.19-2.95L20,50.53a3.43,3.43,0,0,0-1.47-1.36l8.15,14.11a3.41,3.41,0,0,0,2,1.55,3.21,3.21,0,0,0-.3-.69Z"/><path class="cls-7" d="M21,17.17A3.38,3.38,0,0,0,19.55,17a14.83,14.83,0,0,1,2.59,2.27l-.84-1.44A3.79,3.79,0,0,1,21,17.17Z"/><path class="cls-7" d="M21.84,66.68l.52.9a3.36,3.36,0,0,0,1.84,1.51A23,23,0,0,1,21.84,66.68Z"/><path class="cls-8" d="M25.77,69.28A17.7,17.7,0,0,1,21,64.05l-5.32-9.21a3.38,3.38,0,0,0-1.46-1.37l7.63,13.21a23,23,0,0,0,2.36,2.41A3.34,3.34,0,0,0,25.77,69.28Z"/><path class="cls-8" d="M21,17.17a3.79,3.79,0,0,0,.3.69l.84,1.44a19.72,19.72,0,0,1,2.19,2.95l5.32,9.22a3.41,3.41,0,0,0,1.46,1.36L23,18.72A3.41,3.41,0,0,0,21,17.17Z"/><path class="cls-5" d="M26.57,77.19c-7.22-2-11.4-9.44-11.58-9.75L9.71,58.28a3.21,3.21,0,0,1-.3-.69,3.42,3.42,0,0,0-2.75.29A3.46,3.46,0,0,0,5.4,62.59l5.29,9.15c.17.32,4.35,7.74,11.58,9.75a14.27,14.27,0,0,0,11.3-1.68,15.08,15.08,0,0,0,5.34-5c-.34.23-.67.45-1,.66A14.31,14.31,0,0,1,26.57,77.19Z"/><path class="cls-5" d="M35.67,60.23a3.45,3.45,0,0,1-2.74.3,3.4,3.4,0,0,1,.1,1.55,15.61,15.61,0,0,1,1.06,4.39,7.61,7.61,0,0,0,3.9-.84,5.8,5.8,0,0,0,.2-.63,12.41,12.41,0,0,0-.85-7.22A3.43,3.43,0,0,1,35.67,60.23Z"/><path class="cls-6" d="M17,22.17a3.28,3.28,0,0,1-.3-.7,3.47,3.47,0,0,0-2.75.3,3.39,3.39,0,0,0-1.66,2.45,14.35,14.35,0,0,0,1,2.15L32.63,59.83a3.88,3.88,0,0,1,.3.7,3.42,3.42,0,0,0,4.41-2.75,15.43,15.43,0,0,0-1-2.15Z"/><path class="cls-6" d="M34.09,66.47a8.43,8.43,0,0,1-.21,2.84,5.1,5.1,0,0,1-.2.63c.25-.12.5-.25.75-.4A7.53,7.53,0,0,0,38,65.63,7.61,7.61,0,0,1,34.09,66.47Z"/><path class="cls-5" d="M32.93,60.53a3.76,3.76,0,0,1-.79-.36A14.87,14.87,0,0,1,33,62.08,3.4,3.4,0,0,0,32.93,60.53Z"/><path class="cls-8" d="M32.63,59.83,13.31,26.37a14.35,14.35,0,0,1-1-2.15,3.39,3.39,0,0,0,.4,2.25L32,59.93a2.6,2.6,0,0,1,.13.24,3.76,3.76,0,0,0,.79.36A3.88,3.88,0,0,0,32.63,59.83Z"/><path class="cls-7" d="M31.38,73a11,11,0,0,1-1.25.86,7.58,7.58,0,0,1-6,1c-4.43-1.21-7.4-6.41-7.45-6.51l-5.32-9.21a3.44,3.44,0,0,0-2-1.55,3.21,3.21,0,0,0,.3.69L15,67.44c.18.31,4.36,7.74,11.58,9.75a14.31,14.31,0,0,0,11.3-1.68c.37-.21.7-.43,1-.66a13.43,13.43,0,0,0,1.29-2.67A13.82,13.82,0,0,1,31.38,73Z"/><path class="cls-7" d="M18.66,23a3.48,3.48,0,0,0-1.18-1.2l.13.24L36.93,55.53a3.46,3.46,0,0,1,.41,2.25A12.41,12.41,0,0,1,38.19,65a5.8,5.8,0,0,1-.2.63q.38-.18.75-.39a10.21,10.21,0,0,0,1.93-1.44,24.12,24.12,0,0,0-2.73-7.37Z"/><path class="cls-8" d="M17,22.17,36.32,55.63a15.43,15.43,0,0,1,1,2.15,3.46,3.46,0,0,0-.41-2.25L17.61,22.07l-.13-.24a3.93,3.93,0,0,0-.78-.36A3.28,3.28,0,0,0,17,22.17Z"/><path class="cls-8" d="M38,65.63a7.53,7.53,0,0,1-3.56,3.91c-.25.15-.5.28-.75.4a6.85,6.85,0,0,1-2.3,3,13.82,13.82,0,0,0,8.82-.81c.13-.39.26-.78.36-1.19a16.67,16.67,0,0,0,.11-7.19,10.21,10.21,0,0,1-1.93,1.44Q38.37,65.45,38,65.63Z"/></g></g></svg>