<svg xmlns="http://www.w3.org/2000/svg" viewBox="0 0 50.47 79.5"><defs><style>.cls-1{isolation:isolate;}.cls-2{fill:#ec008c;}.cls-2,.cls-3,.cls-4,.cls-5,.cls-6{mix-blend-mode:color-burn;}.cls-3{fill:#00aeff;}.cls-4{fill:#00aeef;}.cls-5{fill:#fff200;}.cls-6{fill:#ff0;}</style></defs><g class="cls-1"><g id="Layer_2" data-name="Layer 2"><g id="Layer_1-2" data-name="Layer 1"><path class="cls-2" d="M31.83,61.52a3.29,3.29,0,0,1-4.51-1.21l-18.5-32c-.13-.23-4.26-7.12-2.51-14A13.46,13.46,0,0,1,13,5.85,13.72,13.72,0,0,1,23.86,4.24c6.93,1.93,10.94,9,11.1,9.35L40,22.37a3.3,3.3,0,1,1-5.72,3.3l-5.1-8.83c-.05-.09-2.9-5.08-7.14-6.24a7.27,7.27,0,0,0-5.75,1,7,7,0,0,0-3.6,4.36c-.89,3.42,1,7.65,1.79,9L33,57A3.3,3.3,0,0,1,31.83,61.52Z"/><path class="cls-2" d="M38.08,72a13.69,13.69,0,0,1-10.84,1.61c-6.93-1.92-10.94-9-11.11-9.34l-5.07-8.79a3.3,3.3,0,1,1,5.72-3.3l5.1,8.84c.05.09,2.9,5.07,7.15,6.24a7.3,7.3,0,0,0,5.74-1A7,7,0,0,0,38.38,62c.89-3.43-1-7.65-1.8-9L18.05,20.88a3.3,3.3,0,0,1,5.72-3.3l18.5,32c.14.22,4.26,7.12,2.51,14A13.48,13.48,0,0,1,38.08,72Z"/><path class="cls-3" d="M26,57.77a3.31,3.31,0,0,1-4.52-1.21L3,24.52c-.14-.22-4.27-7.11-2.52-14A13.46,13.46,0,0,1,7.14,2.1,13.73,13.73,0,0,1,18,.49c6.93,1.92,10.94,9,11.11,9.35l5.07,8.78a3.3,3.3,0,0,1-5.72,3.3l-5.11-8.83c0-.09-2.9-5.08-7.14-6.24a7.28,7.28,0,0,0-5.75,1,7,7,0,0,0-3.6,4.35c-.89,3.43,1,7.66,1.79,9l18.53,32.1A3.3,3.3,0,0,1,26,57.77Z"/><path class="cls-4" d="M32.2,68.29A13.74,13.74,0,0,1,21.36,69.9c-6.93-1.92-10.94-9-11.11-9.35L5.18,51.77a3.3,3.3,0,1,1,5.72-3.3L16,57.3c.06.09,2.9,5.08,7.15,6.24a7.26,7.26,0,0,0,5.74-1,7.07,7.07,0,0,0,3.61-4.35c.89-3.43-1-7.66-1.8-9L12.17,17.13a3.3,3.3,0,0,1,5.72-3.3l18.5,32c.14.22,4.27,7.11,2.52,14A13.49,13.49,0,0,1,32.2,68.29Z"/><path class="cls-5" d="M37.08,66.88a3.3,3.3,0,0,1-4.51-1.21l-18.5-32c-.13-.22-4.26-7.12-2.51-14a13.46,13.46,0,0,1,6.71-8.46A13.68,13.68,0,0,1,29.11,9.6c6.93,1.92,10.94,9,11.1,9.34l5.07,8.79A3.3,3.3,0,1,1,39.56,31l-5.1-8.84c-.05-.09-2.9-5.07-7.14-6.24a7.28,7.28,0,0,0-5.75,1A7,7,0,0,0,18,21.28c-.89,3.43,1,7.65,1.79,9l18.53,32.1A3.3,3.3,0,0,1,37.08,66.88Z"/><path class="cls-6" d="M43.33,77.4A13.74,13.74,0,0,1,32.49,79C25.56,77.08,21.55,70,21.38,69.66l-5.07-8.78A3.3,3.3,0,0,1,22,57.57l5.1,8.84c.05.09,2.9,5.08,7.15,6.24a7.26,7.26,0,0,0,5.74-1,7.06,7.06,0,0,0,3.61-4.36c.89-3.42-1-7.65-1.8-9L23.3,26.24A3.3,3.3,0,0,1,29,22.93l18.5,32c.14.23,4.26,7.12,2.51,14A13.47,13.47,0,0,1,43.33,77.4Z"/></g></g></g></svg>