<svg xmlns="http://www.w3.org/2000/svg" viewBox="0 0 252.65 41.53"><g id="Layer_2" data-name="Layer 2"><g id="Layer_1-2" data-name="Layer 1" fill="#666"><path d="M15.31,34.09a1.94,1.94,0,0,1-2.66-.72L1.74,14.47c-.08-.13-2.52-4.2-1.49-8.24a8,8,0,0,1,4-5,8.12,8.12,0,0,1,6.4-.95c4.09,1.13,6.45,5.34,6.55,5.51l3,5.19a1.94,1.94,0,1,1-3.37,1.94l-3-5.21S12.06,4.73,9.55,4a4.31,4.31,0,0,0-3.39.57A4.15,4.15,0,0,0,4,7.18c-.53,2,.58,4.52,1,5.31L16,31.43A1.94,1.94,0,0,1,15.31,34.09Z"/><path d="M19,40.3a8.12,8.12,0,0,1-6.4,1c-4.09-1.14-6.45-5.34-6.55-5.52l-3-5.18A1.95,1.95,0,1,1,6.43,28.6l3,5.21c0,.06,1.71,3,4.22,3.68a4.27,4.27,0,0,0,3.39-.57,4.2,4.2,0,0,0,2.13-2.57c.52-2-.59-4.51-1.06-5.3L7.18,10.11a2,2,0,0,1,3.38-1.95l10.91,18.9c.08.14,2.52,4.2,1.49,8.24A8,8,0,0,1,19,40.3Z"/><path d="M34.23,27.15a1.82,1.82,0,0,1-.3-1.1,1.31,1.31,0,0,1,.66-1,1.65,1.65,0,0,1,1-.24,1.49,1.49,0,0,1,1,.52,8.91,8.91,0,0,0,2.57,2.12,7.41,7.41,0,0,0,3.54.78,7.71,7.71,0,0,0,1.91-.32,3.63,3.63,0,0,0,1.65-1A2.66,2.66,0,0,0,46.89,25a2.36,2.36,0,0,0-.68-1.79,5.21,5.21,0,0,0-1.79-1.08,24,24,0,0,0-2.35-.75c-.89-.24-1.76-.5-2.62-.8a9.78,9.78,0,0,1-2.31-1.15,5.55,5.55,0,0,1-1.65-1.76,5.23,5.23,0,0,1-.62-2.64,5.17,5.17,0,0,1,1-3.14,6.46,6.46,0,0,1,2.64-2.05,9.06,9.06,0,0,1,3.66-.72,10.91,10.91,0,0,1,2.35.26,8.66,8.66,0,0,1,2.39.89A6.67,6.67,0,0,1,49,12a1.66,1.66,0,0,1,.4,1,1.32,1.32,0,0,1-.53,1.09,1.56,1.56,0,0,1-1,.3,1.29,1.29,0,0,1-.9-.39,5.84,5.84,0,0,0-2.16-1.58A6.85,6.85,0,0,0,42,11.87a5.92,5.92,0,0,0-1.85.3,3.82,3.82,0,0,0-1.55.95A2.47,2.47,0,0,0,38,14.93a2.5,2.5,0,0,0,.72,1.77,4.89,4.89,0,0,0,1.85,1.1c.78.28,1.63.56,2.57.83a25.65,25.65,0,0,1,2.48.74,8.91,8.91,0,0,1,2.15,1.11,5.07,5.07,0,0,1,1.53,1.75,5.74,5.74,0,0,1,.56,2.67,5.1,5.1,0,0,1-1,3.2,6.6,6.6,0,0,1-2.76,2,9.57,9.57,0,0,1-3.68.71A12.23,12.23,0,0,1,38,30,8.42,8.42,0,0,1,34.23,27.15Z"/><path d="M73.08,9.66a1.51,1.51,0,0,1,1.16.46,1.65,1.65,0,0,1,.45,1.19V22.25a8.38,8.38,0,0,1-2.28,6.29,8.62,8.62,0,0,1-6.33,2.23,8.57,8.57,0,0,1-6.29-2.23,8.38,8.38,0,0,1-2.28-6.29V11.31A1.62,1.62,0,0,1,58,10.12a1.51,1.51,0,0,1,1.14-.46,1.55,1.55,0,0,1,1.17.46,1.68,1.68,0,0,1,.44,1.19V22.25a5.61,5.61,0,0,0,1.41,4.14,5.32,5.32,0,0,0,3.94,1.41,5.37,5.37,0,0,0,4-1.41,5.61,5.61,0,0,0,1.41-4.14V11.31a1.64,1.64,0,0,1,.44-1.19A1.52,1.52,0,0,1,73.08,9.66Z"/><path d="M93.91,9.14a9,9,0,0,1,4.91,1.38,10,10,0,0,1,3.44,3.81,11.88,11.88,0,0,1,1.26,5.59,12.16,12.16,0,0,1-1.26,5.63,10.24,10.24,0,0,1-3.42,3.88A8.6,8.6,0,0,1,94,30.86a8.31,8.31,0,0,1-2.8-.47,9.21,9.21,0,0,1-2.37-1.24A9.77,9.77,0,0,1,87,27.44a6.34,6.34,0,0,1-1-1.89l.88-.53v4a1.68,1.68,0,0,1-.44,1.16,1.65,1.65,0,0,1-2.31,0A1.6,1.6,0,0,1,83.65,29V2.34a1.64,1.64,0,0,1,.47-1.17,1.63,1.63,0,0,1,2.31,0,1.7,1.7,0,0,1,.44,1.17V14.73l-.6-.32a5.87,5.87,0,0,1,1-1.95A7.94,7.94,0,0,1,89,10.77a9,9,0,0,1,2.3-1.19A7.77,7.77,0,0,1,93.91,9.14Zm-.36,3a6.33,6.33,0,0,0-3.56,1,7,7,0,0,0-2.42,2.77,9.05,9.05,0,0,0-.86,4A9.4,9.4,0,0,0,87.57,24,7,7,0,0,0,90,26.83a6.19,6.19,0,0,0,3.56,1.05,6.1,6.1,0,0,0,3.54-1.05A7.18,7.18,0,0,0,99.5,24a9.13,9.13,0,0,0,.88-4.06,8.79,8.79,0,0,0-.88-4,7.15,7.15,0,0,0-2.41-2.77A6.24,6.24,0,0,0,93.55,12.11Z"/><path d="M110,27.15a1.82,1.82,0,0,1-.3-1.1,1.31,1.31,0,0,1,.66-1,1.65,1.65,0,0,1,1-.24,1.49,1.49,0,0,1,1,.52,8.91,8.91,0,0,0,2.57,2.12,7.41,7.41,0,0,0,3.54.78,7.71,7.71,0,0,0,1.91-.32,3.63,3.63,0,0,0,1.65-1,2.62,2.62,0,0,0,.66-1.88,2.36,2.36,0,0,0-.68-1.79,5.12,5.12,0,0,0-1.79-1.08,24,24,0,0,0-2.35-.75c-.89-.24-1.76-.5-2.61-.8a9.85,9.85,0,0,1-2.32-1.15,5.55,5.55,0,0,1-1.65-1.76,5.23,5.23,0,0,1-.62-2.64,5.17,5.17,0,0,1,1-3.14,6.46,6.46,0,0,1,2.64-2.05,9.06,9.06,0,0,1,3.66-.72,10.91,10.91,0,0,1,2.35.26,8.66,8.66,0,0,1,2.39.89,6.67,6.67,0,0,1,2.06,1.7,1.66,1.66,0,0,1,.4,1,1.31,1.31,0,0,1-.52,1.09,1.61,1.61,0,0,1-1,.3,1.29,1.29,0,0,1-.9-.39,5.84,5.84,0,0,0-2.16-1.58,6.85,6.85,0,0,0-2.79-.55,5.92,5.92,0,0,0-1.85.3,3.82,3.82,0,0,0-1.55.95,2.51,2.51,0,0,0-.62,1.81,2.54,2.54,0,0,0,.72,1.77,4.89,4.89,0,0,0,1.85,1.1c.78.28,1.64.56,2.57.83a25.65,25.65,0,0,1,2.48.74,8.91,8.91,0,0,1,2.15,1.11A5.07,5.07,0,0,1,125,22.23a5.74,5.74,0,0,1,.56,2.67,5.1,5.1,0,0,1-1,3.2,6.6,6.6,0,0,1-2.76,2,9.57,9.57,0,0,1-3.68.71A12.27,12.27,0,0,1,113.7,30,8.42,8.42,0,0,1,110,27.15Z"/><path d="M132.44,9.78h9.45a1.43,1.43,0,0,1,1.07.44,1.53,1.53,0,0,1,.42,1.09,1.39,1.39,0,0,1-.42,1,1.42,1.42,0,0,1-1.07.43h-9.45a1.5,1.5,0,0,1-1.07-.45,1.44,1.44,0,0,1,0-2.11A1.56,1.56,0,0,1,132.44,9.78Zm4.22-5.47a1.47,1.47,0,0,1,1.13.48A1.7,1.7,0,0,1,138.23,6V25.34a3,3,0,0,0,.28,1.45,1.51,1.51,0,0,0,.75.67,2.45,2.45,0,0,0,.9.18,1.76,1.76,0,0,0,.71-.14,1.54,1.54,0,0,1,.7-.14,1,1,0,0,1,.74.38,1.42,1.42,0,0,1,.35,1,1.44,1.44,0,0,1-.85,1.22,3.56,3.56,0,0,1-1.89.5,12.79,12.79,0,0,1-1.39-.08,4,4,0,0,1-1.62-.52,3.36,3.36,0,0,1-1.35-1.47,6.1,6.1,0,0,1-.55-2.87V6a1.64,1.64,0,0,1,1.65-1.65Z"/><path d="M167.79,9.46a1.55,1.55,0,0,1,1.17.46,1.62,1.62,0,0,1,.44,1.15V28.8a1.61,1.61,0,0,1-.46,1.17,1.64,1.64,0,0,1-2.32,0,1.68,1.68,0,0,1-.44-1.17V25l.77-.08a3.78,3.78,0,0,1-.61,2,7.54,7.54,0,0,1-1.65,1.93,8.65,8.65,0,0,1-2.47,1.49,8,8,0,0,1-3,.59,8.82,8.82,0,0,1-4.94-1.43,10,10,0,0,1-3.44-3.88A12,12,0,0,1,149.53,20a11.9,11.9,0,0,1,1.27-5.61,9.76,9.76,0,0,1,3.44-3.83,8.8,8.8,0,0,1,4.82-1.38,9.11,9.11,0,0,1,3.22.56,8.71,8.71,0,0,1,2.6,1.53,7.47,7.47,0,0,1,1.72,2.13,4.89,4.89,0,0,1,.63,2.33l-1-.24V11.07a1.62,1.62,0,0,1,.44-1.15A1.55,1.55,0,0,1,167.79,9.46Zm-8.28,18.42a6.21,6.21,0,0,0,3.56-1.05A7,7,0,0,0,165.48,24a9.28,9.28,0,0,0,.86-4,9.09,9.09,0,0,0-.86-4,7.17,7.17,0,0,0-2.41-2.81,6.54,6.54,0,0,0-7.08,0,7.13,7.13,0,0,0-2.44,2.79,8.91,8.91,0,0,0-.88,4,9,9,0,0,0,.88,4A7.18,7.18,0,0,0,156,26.83,6.11,6.11,0,0,0,159.51,27.88Z"/><path d="M177.57,9.78H187a1.43,1.43,0,0,1,1.07.44,1.53,1.53,0,0,1,.42,1.09,1.39,1.39,0,0,1-.42,1,1.42,1.42,0,0,1-1.07.43h-9.44a1.48,1.48,0,0,1-1.07-.45,1.44,1.44,0,0,1,0-2.11A1.54,1.54,0,0,1,177.57,9.78Zm4.22-5.47a1.45,1.45,0,0,1,1.12.48A1.66,1.66,0,0,1,183.36,6V25.34a2.9,2.9,0,0,0,.28,1.45,1.45,1.45,0,0,0,.74.67,2.5,2.5,0,0,0,.91.18,1.68,1.68,0,0,0,.7-.14,1.56,1.56,0,0,1,.7-.14,1,1,0,0,1,.75.38,1.41,1.41,0,0,1-.5,2.21,3.62,3.62,0,0,1-1.9.5,12.75,12.75,0,0,1-1.38-.08,4,4,0,0,1-1.63-.52,3.36,3.36,0,0,1-1.35-1.47,6.24,6.24,0,0,1-.54-2.87V6a1.61,1.61,0,0,1,.48-1.17A1.59,1.59,0,0,1,181.79,4.31Z"/><path d="M197.43,6.65a2.28,2.28,0,0,1-1.49-.41A1.53,1.53,0,0,1,195.46,5V4.43A1.48,1.48,0,0,1,196,3.19a2.4,2.4,0,0,1,1.49-.41,2.2,2.2,0,0,1,1.45.41,1.51,1.51,0,0,1,.48,1.24V5a1.48,1.48,0,0,1-.5,1.24A2.3,2.3,0,0,1,197.43,6.65Zm1.65,22.15a1.61,1.61,0,0,1-.46,1.17,1.53,1.53,0,0,1-1.15.48,1.59,1.59,0,0,1-1.19-.48,1.66,1.66,0,0,1-.46-1.17V11a1.66,1.66,0,0,1,.46-1.17,1.59,1.59,0,0,1,1.19-.48,1.53,1.53,0,0,1,1.15.48,1.61,1.61,0,0,1,.46,1.17Z"/><path d="M227.43,20a11.31,11.31,0,0,1-1.36,5.59,10.29,10.29,0,0,1-3.72,3.86,10.74,10.74,0,0,1-10.64,0A10.32,10.32,0,0,1,208,25.59,11.12,11.12,0,0,1,206.56,20,11.07,11.07,0,0,1,208,14.41a10.34,10.34,0,0,1,18.12,0A11.26,11.26,0,0,1,227.43,20Zm-3.21,0a8.49,8.49,0,0,0-.95-4.09,7.37,7.37,0,0,0-2.57-2.77,7.05,7.05,0,0,0-7.34,0,7.29,7.29,0,0,0-2.6,2.77,8.49,8.49,0,0,0-.94,4.09,8.5,8.5,0,0,0,.94,4.06,7.21,7.21,0,0,0,2.6,2.79,7.05,7.05,0,0,0,7.34,0,7.29,7.29,0,0,0,2.57-2.79A8.51,8.51,0,0,0,224.22,20Z"/><path d="M245.45,9.14a7.3,7.3,0,0,1,4.31,1.12,6.13,6.13,0,0,1,2.23,3,12.87,12.87,0,0,1,.66,4.26V28.8a1.61,1.61,0,0,1-.46,1.17,1.53,1.53,0,0,1-1.15.48,1.49,1.49,0,0,1-1.16-.48,1.65,1.65,0,0,1-.45-1.17V17.62a7.89,7.89,0,0,0-.46-2.77,4.07,4.07,0,0,0-1.55-2,5,5,0,0,0-2.89-.75,6.49,6.49,0,0,0-3.1.75,6.12,6.12,0,0,0-2.25,2,4.79,4.79,0,0,0-.85,2.77V28.8a1.61,1.61,0,0,1-.46,1.17,1.61,1.61,0,0,1-2.29,0,1.61,1.61,0,0,1-.46-1.17V11.31a1.61,1.61,0,0,1,.46-1.19,1.55,1.55,0,0,1,1.15-.46,1.51,1.51,0,0,1,1.16.46,1.64,1.64,0,0,1,.44,1.19v2.81l-.8.89a5.62,5.62,0,0,1,.92-2.11A8.59,8.59,0,0,1,240.26,11a9.23,9.23,0,0,1,2.42-1.35A7.85,7.85,0,0,1,245.45,9.14Z"/></g></g></svg>