<svg viewBox="0 0 50.47 79.5" xmlns="http://www.w3.org/2000/svg"><path d="m27.24 56.43a3.36 3.36 0 0 1 -1.24 1.34h-.08l1.44 2.51a3.3 3.3 0 0 0 2.49 1.72l.4-.31-3-5.21m7-34.63a3.25 3.25 0 0 1 -1.25 1.28h-.08l1.44 2.5a3.33 3.33 0 0 0 2.87 1.66h.24l-3-5.13-.24-.39m-19.75-15.16a8 8 0 0 0 -4 1.21l-.49.3a12.79 12.79 0 0 0 -3.29 5.05c-.36 3.21 1.25 6.78 2 8l2.7 4.67a15.6 15.6 0 0 1 .23-6.17 12.53 12.53 0 0 1 .79-2.23l-.18-.31a3.3 3.3 0 0 1 2.76-4.95h.34c.29-.21.61-.42 1-.62a8.32 8.32 0 0 1 3.55-1.18c.36-.17.72-.31 1.08-.44a10.8 10.8 0 0 0 -4.76-3.1 6.3 6.3 0 0 0 -1.71-.24m10.41-2a24.45 24.45 0 0 1 4 5l.2.06a15 15 0 0 1 4.78 2.33c-1.52-2.14-4.61-5.75-9-7.36" fill="#ec008c"/><path d="m20.33 69.57a20.78 20.78 0 0 0 2.12 1.75c-.42-.6-.73-1.08-.9-1.37h-.19c-.35-.1-.69-.21-1-.33m18.78-15.96a15.6 15.6 0 0 1 -.23 6.17c-.1.39-.22.77-.35 1.14a8.37 8.37 0 0 1 -.18 1c0 .12-.07.24-.11.36a3.3 3.3 0 0 1 -1.21 4.51 3.27 3.27 0 0 1 -1.65.44 3.34 3.34 0 0 1 -1.33-.28 17.1 17.1 0 0 1 -1.88 1.26 17.52 17.52 0 0 1 -2.68 1.26 10.8 10.8 0 0 0 4.76 3.1 6.18 6.18 0 0 0 1.71.23 4.1 4.1 0 0 0 .49 0 16.18 16.18 0 0 0 1.6-.82 14.09 14.09 0 0 0 5.75-5.87 14.89 14.89 0 0 0 -2-7.84l-2.69-4.67m-25.22-3.08a3.24 3.24 0 0 0 -1.57.4l3.65 6.33.24.4a3.21 3.21 0 0 1 1.28-1.33 3.28 3.28 0 0 1 1.4-.44l-2.14-3.71a3.29 3.29 0 0 0 -2.86-1.65m8.69-34.17a11.35 11.35 0 0 0 -1 .53 10 10 0 0 0 -1.35.92l3 5.22a3.23 3.23 0 0 1 1.28-1.34 3.36 3.36 0 0 1 1.41-.44l-2.15-3.71a3.28 3.28 0 0 0 -1.16-1.18" fill="#ec008c"/><path d="m25.6 15.72a5.79 5.79 0 0 0 -.72 0l3.56 6.16a3.3 3.3 0 0 0 4.43 1.25l-3.66-6.33s0-.05-.07-.13a8.54 8.54 0 0 0 -1.82-.67 6.72 6.72 0 0 0 -1.72-.23m-11.15-15.77a14.51 14.51 0 0 0 -7.31 2.1 13.49 13.49 0 0 0 -6.71 8.46c-1.75 6.85 2.38 13.74 2.57 13.96l18.49 32a3.31 3.31 0 0 0 4.44 1.25l-17.11-29.49c-.13-.23-4.26-7.12-2.51-14 .1-.39.22-.77.35-1.14a5.67 5.67 0 0 1 .18-1 6.76 6.76 0 0 1 3.16-4.02 16.08 16.08 0 0 1 3-2.27 14.51 14.51 0 0 1 7.31-2.1 13.36 13.36 0 0 1 3.53.49c.35.1.69.21 1 .33a16.88 16.88 0 0 0 -6.84-4.08 13 13 0 0 0 -3.55-.49" fill="#00aeef"/><path d="m29.14 16.71c0 .08.07.12.07.13l3.66 6.33h.08a3.25 3.25 0 0 0 1.27-1.33 15.82 15.82 0 0 0 -5.08-5.09m-22.48-3.58c-.13.37-.25.75-.35 1.14-1.75 6.85 2.38 13.74 2.51 14l17.06 29.5h.08a3.36 3.36 0 0 0 1.28-1.34l-13.17-22.84a23.38 23.38 0 0 1 -2.74-7.79l-2.7-4.67c-.72-1.22-2.33-4.79-2-8m13.7-9.42a14.51 14.51 0 0 0 -7.33 2.1 16.08 16.08 0 0 0 -3 2.27l.49-.3a8 8 0 0 1 4-1.21 6.3 6.3 0 0 1 1.71.24 10.8 10.8 0 0 1 4.8 3.15 13.5 13.5 0 0 1 4.63-.84 13 13 0 0 1 3.33.43 24.45 24.45 0 0 0 -4-5c-.34-.12-.68-.23-1-.33a13.36 13.36 0 0 0 -3.53-.49" fill="#000085"/><path d="m29.85 62a9.91 9.91 0 0 1 -1 .62 8.59 8.59 0 0 1 -3.3 1.17l1.54 2.67.08.13a8.33 8.33 0 0 0 1.83.71 6.7 6.7 0 0 0 1.71.23 7.44 7.44 0 0 0 3-.68 3.31 3.31 0 0 1 -1.17-1.18l-2.11-3.67h-.24zm-21.85-15.18a3.3 3.3 0 0 0 -2.86 5l5.07 8.78c.16.29 3.78 6.73 10.08 9a24.06 24.06 0 0 1 -4.2-5.26l-5.07-8.79a3.3 3.3 0 0 1 1.25-4.55h.08l-1.45-2.5a3.29 3.29 0 0 0 -2.9-1.68m10-25.9c0 .12-.07.24-.1.36-.89 3.43 1 7.65 1.79 9l18.43 31.78c.16-.35.31-.72.44-1.09a14.63 14.63 0 0 0 -2-8l-18.49-32.05m-2.7-8.73a6.54 6.54 0 0 0 -2.65 3.74 7.27 7.27 0 0 0 -.2 1.15 13.26 13.26 0 0 1 3.86-4.62 3.51 3.51 0 0 0 -1-.27" fill="#00aeef"/><path d="m30.25 61.64-.4.31h.34.24l-.18-.32m-15.25-49.45a3.3 3.3 0 0 0 -2.86 4.95l.18.31c.05-.12.11-.24.17-.36a7.27 7.27 0 0 1 .2-1.15 6.54 6.54 0 0 1 2.65-3.74h-.34" fill="#000085"/><path d="m27.21 66.54a17.69 17.69 0 0 0 2.31 3 17.52 17.52 0 0 0 2.68-1.26 17.1 17.1 0 0 0 1.88-1.28 2.79 2.79 0 0 1 -.34-.18 7.44 7.44 0 0 1 -3 .68 6.7 6.7 0 0 1 -1.74-.2 8.33 8.33 0 0 1 -1.82-.76m-14.83-15.54h-.08a3.3 3.3 0 0 0 -1.21 4.51l5.07 8.79a24.06 24.06 0 0 0 4.2 5.26c.34.12.68.23 1 .33h.19l-.17-.29-5.07-8.78a3.3 3.3 0 0 1 -.07-3.18l-.21-.34zm7.87-33.12a6.51 6.51 0 0 0 -2.15 3.07l18.51 32.05a14.63 14.63 0 0 1 2 8c.13-.37.25-.75.35-1.14a15.6 15.6 0 0 0 .23-6.17l-15.86-27.45a3.31 3.31 0 0 1 -.07-3.17l-3-5.22" fill="#000085"/><path d="m38.12 62.06a12.81 12.81 0 0 1 -2.85 4 6.85 6.85 0 0 0 3-3.69l-.15-.27m-25.63-44.43a15.35 15.35 0 0 0 2 7.25l18.24 31.55a15.25 15.25 0 0 0 -2-7.24zm21.4-5.74a16.63 16.63 0 0 1 1.11 1.66l5 8.78a3.29 3.29 0 0 1 -1.2 4.51 3.36 3.36 0 0 1 -1.41.44l2.17 3.68a3.31 3.31 0 0 0 5.73-3.3l-5.08-8.79a23.41 23.41 0 0 0 -6.32-7m-13.54-1.54a3.85 3.85 0 0 0 -.48 0 16.13 16.13 0 0 0 -1.6.82 17.68 17.68 0 0 0 -1.89 1.25 3.35 3.35 0 0 1 1.52 1.37l1.44 2.5a3.3 3.3 0 0 1 3.27.07 8 8 0 0 1 2.27-.64l-1.55-2.67a16.42 16.42 0 0 0 -1.92-2.63 6.23 6.23 0 0 0 -1.06-.09" fill="#fff200"/><path d="m12.35 17.44a12.53 12.53 0 0 0 -.79 2.23 15.6 15.6 0 0 0 -.23 6.17l15.83 27.42a3.28 3.28 0 0 1 .08 3.17l3 5.21a6.47 6.47 0 0 0 2.25-3.42 7.37 7.37 0 0 0 .23-1.75l-18.21-31.55a15.35 15.35 0 0 1 -2-7.25l-.14-.23m8.63-7.44c-.36.13-.72.27-1.08.44a3.85 3.85 0 0 1 .48 0 6.23 6.23 0 0 1 1.06.09zm8-.41.18.3 5.07 8.78a3.3 3.3 0 0 1 .06 3.18l.24.39 3 5.13a3.36 3.36 0 0 0 1.41-.44 3.29 3.29 0 0 0 1.04-4.56l-5-8.78a16.63 16.63 0 0 0 -1.07-1.66 15 15 0 0 0 -4.82-2.33l-.2-.06" fill="#ec0000"/><path d="m38.27 62.33a6.85 6.85 0 0 1 -3 3.69 14.71 14.71 0 0 1 -1.19 1 3.34 3.34 0 0 0 1.35.29 3.27 3.27 0 0 0 1.65-.44 3.3 3.3 0 0 0 1.21-4.51m-17.38-46.43a3.3 3.3 0 0 0 -1.57.4l.88 1.52a10 10 0 0 1 1.35-.92 11.35 11.35 0 0 1 1-.53 3.27 3.27 0 0 0 -1.7-.47" fill="#ec0000"/><path d="m21.41 10.46a16.42 16.42 0 0 1 1.92 2.63l1.55 2.67a5.79 5.79 0 0 1 .72 0 6.72 6.72 0 0 1 1.72.23 8.54 8.54 0 0 1 1.82.76c-.49-.8-3.2-5.05-7.07-6.11a5.18 5.18 0 0 0 -.66-.14" fill="#0a0"/><path d="m11.33 25.84a23.38 23.38 0 0 0 2.74 7.79l13.17 22.8a3.28 3.28 0 0 0 -.08-3.17zm14.25-16.73a13.5 13.5 0 0 0 -4.58.89l.46.51a5.18 5.18 0 0 1 .66.14c3.87 1.06 6.58 5.31 7.07 6.11a15.82 15.82 0 0 1 5.08 5.09 3.3 3.3 0 0 0 -.06-3.18l-5.12-8.83-.18-.3a13 13 0 0 0 -3.33-.43"/><path d="m16.38 12.46a13.26 13.26 0 0 0 -3.86 4.62 5.83 5.83 0 0 0 0 .59l18.18 31.56a15.25 15.25 0 0 1 2 7.24l.3.53a3.32 3.32 0 0 1 -2.61 5l2.14 3.71a3.31 3.31 0 0 0 1.17 1.18 9.17 9.17 0 0 0 1-.53l.5-.3a12.81 12.81 0 0 0 2.85-4l-18.29-31.79c-.8-1.34-2.68-5.56-1.79-9 0-.12.06-.24.1-.36a3.3 3.3 0 0 1 1.21-4.51h.08l-1.44-2.5a3.35 3.35 0 0 0 -1.52-1.37" fill="#0a0"/><path d="m32.73 56.47a7.37 7.37 0 0 1 -.23 1.75 6.47 6.47 0 0 1 -2.25 3.42l.18.32a3.32 3.32 0 0 0 2.57-4.96l-.31-.54m-20.17-39.38c-.06.12-.12.24-.17.36l.14.23a5.83 5.83 0 0 1 0-.59"/><path d="m35.27 66-.5.3a9.17 9.17 0 0 1 -1 .53 2.79 2.79 0 0 0 .34.18 14.71 14.71 0 0 0 1.19-1m-15.96-49.68h-.08a3.3 3.3 0 0 0 -1.21 4.51 6.51 6.51 0 0 1 2.15-3.07l-.88-1.52"/><path d="m19.17 55.92h-.25l3 5.13a18 18 0 0 0 1.93 2.63 6.2 6.2 0 0 0 1.05.09h.73l-3.63-6.19a3.3 3.3 0 0 0 -2.86-1.66m7-34.64h-.24l16.37 28.34c.14.23 4.26 7.12 2.51 14a13.11 13.11 0 0 1 -1 2.59 7.27 7.27 0 0 1 -.2 1.15 7.06 7.06 0 0 1 -3.58 4.32 8.28 8.28 0 0 1 -3.54 1.18 13.76 13.76 0 0 1 -5.72 1.28 12.94 12.94 0 0 1 -3.52-.49 15.15 15.15 0 0 1 -4.79-2.33c1.64 2.3 5.09 6.32 10 7.69a13.29 13.29 0 0 0 3.57.49 14.51 14.51 0 0 0 7.32-2.1 13.48 13.48 0 0 0 6.68-8.46c1.75-6.85-2.37-13.74-2.51-14l-18.49-32a3.3 3.3 0 0 0 -2.86-1.66" fill="#fff200"/><path d="m29.52 69.55a13.51 13.51 0 0 1 -4.64.84 13.13 13.13 0 0 1 -3.33-.39c.17.29.48.77.9 1.37a15.15 15.15 0 0 0 4.79 2.33 12.94 12.94 0 0 0 3.52.49 13.76 13.76 0 0 0 5.72-1.28 4.1 4.1 0 0 1 -.49 0 6.18 6.18 0 0 1 -1.71-.23 10.8 10.8 0 0 1 -4.76-3.1m-10.6-13.65a3.28 3.28 0 0 0 -1.4.44 3.21 3.21 0 0 0 -1.28 1.33c.77 1.21 3.35 4.87 6.91 5.84q.33.09.66.15a18 18 0 0 1 -1.93-2.63l-3-5.13m7-34.64a3.36 3.36 0 0 0 -1.41.44 3.23 3.23 0 0 0 -1.28 1.34l13.16 22.8a23.17 23.17 0 0 1 2.75 7.79l2.69 4.67a14.89 14.89 0 0 1 2 7.84 13.11 13.11 0 0 0 1-2.59c1.75-6.84-2.37-13.73-2.51-14l-16.36-28.29" fill="#ec0000"/><path d="m23.81 63.69a13.4 13.4 0 0 0 3.4 2.85l-.08-.13-1.54-2.67c-.24 0-.49 0-.73 0a6.2 6.2 0 0 1 -1.05-.09" fill="#0a0"/><path d="m16.24 57.7a3.3 3.3 0 0 0 .07 3.18l5.07 8.78.17.29a13.13 13.13 0 0 0 3.33.44 13.51 13.51 0 0 0 4.64-.84 17.69 17.69 0 0 1 -2.31-3 13.4 13.4 0 0 1 -3.4-2.85q-.33-.06-.66-.15c-3.56-1-6.14-4.63-6.91-5.84m7-34.63a3.31 3.31 0 0 0 .07 3.17l15.83 27.41a23.17 23.17 0 0 0 -2.75-7.79l-13.16-22.8"/></svg>