<svg xmlns="http://www.w3.org/2000/svg" viewBox="0 0 82.48 79"><defs><style>.cls-1{isolation:isolate;}.cls-2{mix-blend-mode:color-burn;}.cls-3{fill:#ec008c;}.cls-4{fill:#00aeff;}.cls-5{fill:#ff0;}</style></defs><g class="cls-1"><g id="Layer_2" data-name="Layer 2"><g id="Layer_1-2" data-name="Layer 1"><g class="cls-2"><path class="cls-3" d="M38.9,7.17a3.6,3.6,0,1,1,6.24,3.6l0,.05h0L34,30.1,21,52.67,9.82,72h0l0,.06a3.6,3.6,0,1,1-6.24-3.61l0,0h0L14.71,49.06l13-22.56L38.87,7.22h0Z"/><path class="cls-3" d="M55.56,7.17a3.61,3.61,0,0,1,6.25,3.6l0,.05h0L50.65,30.1l-13,22.57L26.49,72h0s0,0,0,.06a3.61,3.61,0,0,1-6.25-3.61l0,0h0L31.37,49.06l13-22.56L55.53,7.22h0S55.55,7.18,55.56,7.17Z"/><path class="cls-3" d="M72.23,7.17a3.6,3.6,0,0,1,6.24,3.6l0,.05h0L67.31,30.1l-13,22.57L43.15,72h0l0,.06a3.6,3.6,0,1,1-6.24-3.61l0,0h0L48,49.06l13-22.56L72.2,7.22h0Z"/></g><g class="cls-2"><path class="cls-4" d="M35.83,1.8a3.6,3.6,0,1,1,6.24,3.61l0,0h0L30.91,24.74l-13,22.56L6.75,66.58h0l0,0A3.6,3.6,0,1,1,.48,63l0-.05h0L11.64,43.7l13-22.57L35.8,1.85h0S35.82,1.82,35.83,1.8Z"/><path class="cls-4" d="M52.5,1.8a3.6,3.6,0,1,1,6.24,3.61l0,0h0L47.58,24.74l-13,22.56L23.42,66.58h0l0,0A3.6,3.6,0,1,1,17.15,63l0-.05h0L28.31,43.7l13-22.57L52.47,1.85h0Z"/><path class="cls-4" d="M69.16,1.8a3.61,3.61,0,0,1,6.25,3.61.1.1,0,0,0,0,0h0L64.25,24.74l-13,22.56L40.09,66.58h0s0,0,0,0A3.61,3.61,0,0,1,33.81,63l0-.05h0L45,43.7,58,21.13,69.13,1.85h0S69.15,1.82,69.16,1.8Z"/></g><g class="cls-2"><path class="cls-5" d="M42.43,12.37A3.6,3.6,0,1,1,48.67,16l0,0h0L37.51,35.3l-13,22.57L13.35,77.15h0l0,.06a3.6,3.6,0,1,1-6.24-3.61l0,0h0L18.24,54.26l13-22.56L42.4,12.42h0Z"/><path class="cls-5" d="M59.09,12.37A3.6,3.6,0,1,1,65.33,16l0,0h0L54.18,35.3l-13,22.57L30,77.15h0s0,0,0,.06a3.61,3.61,0,0,1-6.25-3.61l0,0h0L34.9,54.26l13-22.56L59.06,12.42h0S59.08,12.38,59.09,12.37Z"/><path class="cls-5" d="M75.76,12.37A3.6,3.6,0,0,1,82,16l0,0h0L70.84,35.3l-13,22.57L46.68,77.15h0l0,.06a3.6,3.6,0,1,1-6.24-3.61l0,0h0L51.57,54.26l13-22.56L75.73,12.42h0Z"/></g></g></g></g></svg>