<svg xmlns="http://www.w3.org/2000/svg" viewBox="0 0 83.95 82"><defs><style>.cls-1{fill:#00adee;}.cls-2{fill:#eb008b;}.cls-3{fill:#2e3191;}.cls-4{fill:#fff100;}.cls-5{fill:#00a551;}.cls-6{fill:#ec1c24;}</style></defs><g id="Layer_2" data-name="Layer 2"><g id="Layer_1-2" data-name="Layer 1"><path class="cls-1" d="M30.63,32.75,42.22,12.68h0l0,0a3.73,3.73,0,0,1,4.14-1.75l.06-.1h0l0-.06A3.72,3.72,0,0,0,44,5.19a2.48,2.48,0,0,1-.2.44l0,0h0L32.19,25.75,18.62,49.25,7,69.32H7l0,.05a3.72,3.72,0,0,1-4,1.78,3.73,3.73,0,0,0,1.57,4.69,3.37,3.37,0,0,0,1,.38l11.53-20Z"/><path class="cls-1" d="M48,32.75,59.57,12.68h0l0,0a3.73,3.73,0,0,1,4.14-1.75l.06-.1h0l0-.06a3.72,3.72,0,0,0-2.48-5.53,3.43,3.43,0,0,1-.19.44l0,0h0L49.54,25.75,36,49.25,24.38,69.32h0l0,.05a3.72,3.72,0,0,1-4,1.78,3.74,3.74,0,0,0,1.57,4.69,3.37,3.37,0,0,0,1,.38l11.53-20Z"/><path class="cls-1" d="M65.33,32.75,76.92,12.68h0l0,0a3.73,3.73,0,0,1,4.14-1.75l.06-.1h0l0-.06A3.76,3.76,0,0,0,79.81,5.6a3.93,3.93,0,0,0-1.11-.41,3.43,3.43,0,0,1-.19.44l0,0h0L66.89,25.75,53.32,49.25,41.73,69.32h0l0,.05a3.72,3.72,0,0,1-4,1.78,3.74,3.74,0,0,0,1.57,4.69,3.37,3.37,0,0,0,1,.38l11.53-20Z"/><path class="cls-2" d="M3.21,70.67h0L14.79,50.59,28.36,27.1,40,7h0L40,7a3.75,3.75,0,0,1,4-1.78,3.74,3.74,0,0,0-6.69-3.31l0,.05h0L25.69,22,12.12,45.5.53,65.57h0l0,.05a3.76,3.76,0,0,0,1.38,5.13,3.73,3.73,0,0,0,1.1.4,2.76,2.76,0,0,1,.2-.43Z"/><path class="cls-3" d="M7,69.37l0-.05H7L18.62,49.25l13.57-23.5L43.77,5.68h0l0,0a2.48,2.48,0,0,0,.2-.44A3.75,3.75,0,0,0,40,7L40,7h0L28.36,27.1,14.79,50.59,3.21,70.66h0l0,0a2.76,2.76,0,0,0-.2.43A3.72,3.72,0,0,0,7,69.37Z"/><path class="cls-2" d="M20.56,70.67h0L32.14,50.59,45.71,27.1,57.3,7h0l0-.06a3.75,3.75,0,0,1,4-1.78,3.74,3.74,0,0,0-6.69-3.31l0,.05h0l-6,10.46a3.77,3.77,0,0,1,.16,4l0,.05h0L37.13,36.5,23.56,60,18,69.61a3.55,3.55,0,0,0,2.32,1.54,4.14,4.14,0,0,1,.2-.43Z"/><path class="cls-3" d="M24.35,69.37l0-.05h0L36,49.25l13.57-23.5L61.12,5.68h0l0,0a3.43,3.43,0,0,0,.19-.44,3.75,3.75,0,0,0-4,1.78l0,.06h0L45.71,27.1,32.14,50.59,20.56,70.66h0l0,0a4.14,4.14,0,0,0-.2.43A3.72,3.72,0,0,0,24.35,69.37Z"/><path class="cls-2" d="M37.91,70.67h0L49.5,50.59,63.06,27.1,74.65,7h0l0-.06a3.75,3.75,0,0,1,4-1.78A3.74,3.74,0,0,0,72,1.88l0,.05h0l-6,10.46a3.77,3.77,0,0,1,.16,4l0,.05h0L54.48,36.5,40.91,60l-5.54,9.61a3.58,3.58,0,0,0,1.21,1.14,3.73,3.73,0,0,0,1.1.4,4.14,4.14,0,0,1,.2-.43Z"/><path class="cls-3" d="M41.7,69.37l0-.05h0L53.32,49.25l13.57-23.5L78.48,5.68h0l0,0a3.43,3.43,0,0,0,.19-.44,3.75,3.75,0,0,0-4,1.78l0,.06h0L63.06,27.1,49.5,50.59,37.91,70.66h0l0,0a4.14,4.14,0,0,0-.2.43A3.72,3.72,0,0,0,41.7,69.37Z"/><path class="cls-4" d="M17.85,65.62l0-.05h0L29.47,45.5,43,22l5.55-9.61a3.71,3.71,0,0,0-1.22-1.14,3.53,3.53,0,0,0-1-.37l-11.53,20L21.29,54.35,9.7,74.42h0l0,.06a3.73,3.73,0,0,1-4.14,1.75l0,.1h0l0,.05a3.75,3.75,0,1,0,6.5,3.75l0-.05h0l6-10.46A3.77,3.77,0,0,1,17.85,65.62Z"/><path class="cls-5" d="M9.67,74.47l0-.06h0L21.29,54.35l13.57-23.5,11.53-20a3.73,3.73,0,0,0-4.14,1.75l0,0h0L30.63,32.75,17.06,56.25l-11.53,20A3.73,3.73,0,0,0,9.67,74.47Z"/><path class="cls-6" d="M37.13,36.5,48.71,16.43h0l0-.05a3.77,3.77,0,0,0-.16-4L43,22,29.47,45.5,17.89,65.57h0l0,.05a3.77,3.77,0,0,0,.16,4L23.56,60Z"/><path class="cls-4" d="M35.21,65.62l0-.05h0L46.82,45.5,60.39,22l5.55-9.61a3.71,3.71,0,0,0-1.22-1.14,3.53,3.53,0,0,0-1-.37l-11.53,20L38.64,54.35,27.06,74.42h0l0,.06a3.73,3.73,0,0,1-4.14,1.75l-.05.1h0l0,.05a3.75,3.75,0,1,0,6.49,3.75l0-.05h0l6-10.46A3.73,3.73,0,0,1,35.21,65.62Z"/><path class="cls-5" d="M27,74.47l0-.06h0L38.64,54.35l13.57-23.5,11.53-20a3.73,3.73,0,0,0-4.14,1.75l0,0h0L48,32.75,34.41,56.25l-11.53,20A3.73,3.73,0,0,0,27,74.47Z"/><path class="cls-6" d="M54.48,36.5,66.07,16.43h0l0-.05a3.77,3.77,0,0,0-.16-4L60.39,22,46.82,45.5,35.24,65.57h0l0,.05a3.73,3.73,0,0,0,.16,4L40.91,60Z"/><path class="cls-4" d="M82.07,11.25a3.53,3.53,0,0,0-1-.37l-11.53,20L56,54.35,44.41,74.42h0s0,0,0,.06a3.75,3.75,0,0,1-4.15,1.75l0,.1h0l0,.05a3.75,3.75,0,1,0,6.49,3.75l0-.05h0L58.26,60,71.83,36.5,83.42,16.43h0l0-.05A3.76,3.76,0,0,0,82.07,11.25Z"/><path class="cls-5" d="M44.38,74.47s0,0,0-.06h0L56,54.35l13.57-23.5,11.53-20A3.73,3.73,0,0,0,77,12.63l0,0h0L65.33,32.75,51.76,56.25l-11.53,20A3.75,3.75,0,0,0,44.38,74.47Z"/></g></g></svg>