<svg xmlns="http://www.w3.org/2000/svg" viewBox="0 0 436.31 80.5"><defs><style>.cls-1{isolation:isolate;}.cls-2{mix-blend-mode:color-burn;}.cls-3{fill:#ec008c;}.cls-4{fill:#00aeff;}.cls-5{fill:#ff0;}</style></defs><g class="cls-1"><g id="Layer_2" data-name="Layer 2"><g id="Layer_1-2" data-name="Layer 1"><g class="cls-2"><path class="cls-3" d="M30.83,62.52a3.29,3.29,0,0,1-4.51-1.21l-18.5-32c-.13-.23-4.26-7.12-2.51-14A13.46,13.46,0,0,1,12,6.85,13.72,13.72,0,0,1,22.86,5.24c6.93,1.93,10.94,9,11.1,9.35L39,23.37a3.3,3.3,0,1,1-5.72,3.3l-5.1-8.83c-.05-.09-2.9-5.08-7.14-6.24a7.27,7.27,0,0,0-5.75,1,7,7,0,0,0-3.6,4.36c-.89,3.42,1,7.65,1.79,9L32,58A3.3,3.3,0,0,1,30.83,62.52Z"/><path class="cls-3" d="M37.08,73a13.69,13.69,0,0,1-10.84,1.61c-6.93-1.92-10.94-9-11.11-9.34l-5.07-8.79a3.3,3.3,0,1,1,5.72-3.3l5.1,8.84c.05.09,2.9,5.07,7.15,6.24a7.3,7.3,0,0,0,5.74-1A7,7,0,0,0,37.38,63c.89-3.43-1-7.65-1.8-9L17.05,21.88a3.3,3.3,0,0,1,5.72-3.3l18.5,32c.14.22,4.26,7.12,2.51,14A13.48,13.48,0,0,1,37.08,73Z"/><path class="cls-3" d="M87.37,42.42a8.22,8.22,0,0,0-2.59-3,14.54,14.54,0,0,0-3.64-1.87c-1.34-.48-2.74-.9-4.19-1.27-1.6-.45-3-.92-4.36-1.39a8.45,8.45,0,0,1-3.14-1.87,4.31,4.31,0,0,1-1.23-3A4.18,4.18,0,0,1,69.28,27a6.31,6.31,0,0,1,2.62-1.61A10.42,10.42,0,0,1,75,24.87a11.78,11.78,0,0,1,4.73.93,9.55,9.55,0,0,1,3.65,2.69,2.2,2.2,0,0,0,1.54.64,2.54,2.54,0,0,0,1.66-.51,2.17,2.17,0,0,0,.89-1.84,2.68,2.68,0,0,0-.68-1.7,11.43,11.43,0,0,0-3.48-2.9,15.64,15.64,0,0,0-4-1.5,19.56,19.56,0,0,0-4-.44,15.22,15.22,0,0,0-6.2,1.23,10.8,10.8,0,0,0-4.47,3.47A8.69,8.69,0,0,0,63,30.26,8.8,8.8,0,0,0,64,34.73a9.3,9.3,0,0,0,2.8,3,15.86,15.86,0,0,0,3.91,1.94c1.46.51,2.93,1,4.44,1.37a36.4,36.4,0,0,1,4,1.26,8.79,8.79,0,0,1,3,1.84,4,4,0,0,1,1.16,3,4.42,4.42,0,0,1-1.12,3.17A6,6,0,0,1,79.44,52a14.28,14.28,0,0,1-3.24.55,12.52,12.52,0,0,1-6-1.33,15.32,15.32,0,0,1-4.37-3.58,2.51,2.51,0,0,0-1.66-.89,2.73,2.73,0,0,0-1.67.41,2.24,2.24,0,0,0-1.13,1.74,3.24,3.24,0,0,0,.52,1.87,14.26,14.26,0,0,0,6.33,4.88,20.85,20.85,0,0,0,7.43,1.4,16.13,16.13,0,0,0,6.24-1.2,11.11,11.11,0,0,0,4.67-3.47A8.58,8.58,0,0,0,88.33,47,9.63,9.63,0,0,0,87.37,42.42Z"/><path class="cls-3" d="M129.7,21.91a2.86,2.86,0,0,0-3.95,0,2.78,2.78,0,0,0-.75,2V42.46c0,3.09-.79,5.43-2.39,7a10.63,10.63,0,0,1-13.43,0c-1.58-1.59-2.38-3.93-2.38-7V23.92a2.78,2.78,0,0,0-.75-2,2.62,2.62,0,0,0-2-.79,2.67,2.67,0,0,0-2,.79,2.72,2.72,0,0,0-.78,2V42.46q0,6.88,3.85,10.66t10.67,3.79q6.88,0,10.73-3.79t3.85-10.66V23.92A2.78,2.78,0,0,0,129.7,21.91Z"/><path class="cls-3" d="M177.18,29a16.82,16.82,0,0,0-5.83-6.44A15.1,15.1,0,0,0,163,20.24a13.43,13.43,0,0,0-4.46.75,15.08,15.08,0,0,0-3.89,2,14,14,0,0,0-2.93,2.86c-.24.33-.45.65-.65,1V8.72a2.82,2.82,0,0,0-.75-2,2.76,2.76,0,0,0-3.91,0,2.73,2.73,0,0,0-.79,2V53.91a2.69,2.69,0,0,0,.79,2,2.62,2.62,0,0,0,1.94.78,2.56,2.56,0,0,0,2-.81,2.84,2.84,0,0,0,.75-2v-3l.28.38a15.56,15.56,0,0,0,3,2.9,15.39,15.39,0,0,0,4,2.11,14,14,0,0,0,4.74.79,14.54,14.54,0,0,0,8.21-2.42,17.34,17.34,0,0,0,5.8-6.58,20.5,20.5,0,0,0,2.15-9.54A20.14,20.14,0,0,0,177.18,29Zm-4.67,16.36a12.31,12.31,0,0,1-4.09,4.84,10.39,10.39,0,0,1-6,1.77,10.51,10.51,0,0,1-6-1.77,11.84,11.84,0,0,1-4.09-4.84,15.71,15.71,0,0,1-1.47-6.88,15.1,15.1,0,0,1,1.47-6.79,11.76,11.76,0,0,1,4.09-4.7,10.64,10.64,0,0,1,6-1.74,10.52,10.52,0,0,1,6,1.74,12.24,12.24,0,0,1,4.09,4.7,14.85,14.85,0,0,1,1.5,6.79A15.44,15.44,0,0,1,172.51,45.39Z"/><path class="cls-3" d="M215.72,42.42a8.31,8.31,0,0,0-2.59-3,14.61,14.61,0,0,0-3.65-1.87c-1.34-.48-2.74-.9-4.19-1.27s-3-.92-4.36-1.39a8.41,8.41,0,0,1-3.13-1.87,4.31,4.31,0,0,1-1.23-3A4.18,4.18,0,0,1,197.63,27a6.31,6.31,0,0,1,2.62-1.61,10.35,10.35,0,0,1,3.13-.51,11.79,11.79,0,0,1,4.74.93,9.63,9.63,0,0,1,3.65,2.69,2.18,2.18,0,0,0,1.53.64,2.57,2.57,0,0,0,1.67-.51,2.2,2.2,0,0,0,.89-1.84,2.74,2.74,0,0,0-.68-1.7,11.43,11.43,0,0,0-3.48-2.9,15.7,15.7,0,0,0-4.06-1.5,19.41,19.41,0,0,0-4-.44,15.28,15.28,0,0,0-6.2,1.23A10.77,10.77,0,0,0,193,24.94a8.69,8.69,0,0,0-1.67,5.32,8.7,8.7,0,0,0,1.06,4.47,9.16,9.16,0,0,0,2.79,3,16.11,16.11,0,0,0,3.92,1.94c1.45.51,2.93,1,4.43,1.37a35.9,35.9,0,0,1,4,1.26,8.79,8.79,0,0,1,3,1.84,4,4,0,0,1,1.16,3,4.42,4.42,0,0,1-1.12,3.17,6.1,6.1,0,0,1-2.8,1.67,14.09,14.09,0,0,1-3.24.55,12.48,12.48,0,0,1-6-1.33,15.32,15.32,0,0,1-4.37-3.58,2.53,2.53,0,0,0-1.67-.89,2.76,2.76,0,0,0-1.67.41,2.2,2.2,0,0,0-1.12,1.74,3.23,3.23,0,0,0,.51,1.87,14.29,14.29,0,0,0,6.34,4.88,20.81,20.81,0,0,0,7.43,1.4,16.12,16.12,0,0,0,6.23-1.2,11.11,11.11,0,0,0,4.67-3.47A8.53,8.53,0,0,0,216.67,47,9.63,9.63,0,0,0,215.72,42.42Z"/><path class="cls-3" d="M244.35,26.37a2.5,2.5,0,0,0,1.81-.71,2.4,2.4,0,0,0,.71-1.74,2.58,2.58,0,0,0-.71-1.84,2.41,2.41,0,0,0-1.81-.75h-6.2V14.86a2.82,2.82,0,0,0-.75-2,2.47,2.47,0,0,0-1.91-.82,2.68,2.68,0,0,0-2,.82,2.72,2.72,0,0,0-.82,2v6.47h-4.36a2.57,2.57,0,0,0-1.8.72,2.31,2.31,0,0,0-.79,1.8,2.34,2.34,0,0,0,.79,1.77,2.52,2.52,0,0,0,1.8.75h4.36V48a10.6,10.6,0,0,0,.92,4.87,5.82,5.82,0,0,0,2.29,2.49,7,7,0,0,0,2.76.89c.93.09,1.71.13,2.35.13a6.1,6.1,0,0,0,3.2-.85,2.44,2.44,0,0,0,1.44-2.07,2.38,2.38,0,0,0-.59-1.67,1.64,1.64,0,0,0-1.26-.65,2.64,2.64,0,0,0-1.19.24,2.78,2.78,0,0,1-1.19.23,4.3,4.3,0,0,1-1.54-.3,2.54,2.54,0,0,1-1.26-1.13,5.08,5.08,0,0,1-.47-2.45V26.37Z"/><path class="cls-3" d="M290.22,21.57a2.89,2.89,0,0,0-4,0,2.69,2.69,0,0,0-.75,1.94v2.73a13.73,13.73,0,0,0-2.22-2.46,14.4,14.4,0,0,0-4.39-2.59,15.47,15.47,0,0,0-5.46-1,14.82,14.82,0,0,0-8.17,2.35,16.58,16.58,0,0,0-5.83,6.48,20.29,20.29,0,0,0-2.15,9.51,20.36,20.36,0,0,0,2.15,9.47,17.08,17.08,0,0,0,5.83,6.58,14.91,14.91,0,0,0,8.38,2.42,13.72,13.72,0,0,0,5.15-1A15.21,15.21,0,0,0,283,53.54a13.9,13.9,0,0,0,2.53-2.86v2.89a2.82,2.82,0,0,0,.75,2,2.57,2.57,0,0,0,2,.81,2.6,2.6,0,0,0,1.94-.81,2.76,2.76,0,0,0,.78-2V23.51A2.69,2.69,0,0,0,290.22,21.57Zm-10,28.66a10.56,10.56,0,0,1-6,1.77,10.42,10.42,0,0,1-6-1.77,12.22,12.22,0,0,1-4.12-4.8,15.16,15.16,0,0,1-1.51-6.85,14.91,14.91,0,0,1,1.51-6.82A12,12,0,0,1,268.24,27a11.13,11.13,0,0,1,12,0,12.09,12.09,0,0,1,4.08,4.77,15.18,15.18,0,0,1,1.47,6.76,15.54,15.54,0,0,1-1.47,6.85A12,12,0,0,1,280.24,50.23Z"/><path class="cls-3" d="M320.82,26.37a2.46,2.46,0,0,0,1.81-.71,2.37,2.37,0,0,0,.72-1.74,2.55,2.55,0,0,0-.72-1.84,2.38,2.38,0,0,0-1.81-.75h-6.2V14.86a2.82,2.82,0,0,0-.75-2,2.45,2.45,0,0,0-1.9-.82,2.78,2.78,0,0,0-2.8,2.8v6.47h-4.36a2.6,2.6,0,0,0-1.81.72,2.33,2.33,0,0,0-.78,1.8,2.36,2.36,0,0,0,.78,1.77,2.54,2.54,0,0,0,1.81.75h4.36V48a10.47,10.47,0,0,0,.92,4.87,5.82,5.82,0,0,0,2.29,2.49,7,7,0,0,0,2.75.89c.93.09,1.72.13,2.35.13a6.11,6.11,0,0,0,3.21-.85,2.45,2.45,0,0,0,1.43-2.07,2.38,2.38,0,0,0-.58-1.67,1.64,1.64,0,0,0-1.26-.65,2.64,2.64,0,0,0-1.19.24,2.83,2.83,0,0,1-1.2.23,4.29,4.29,0,0,1-1.53-.3,2.54,2.54,0,0,1-1.26-1.13,5,5,0,0,1-.48-2.45V26.37Z"/><path class="cls-3" d="M338.55,20.58a2.68,2.68,0,0,0-2,.82,2.76,2.76,0,0,0-.78,2V53.57a2.76,2.76,0,0,0,.78,2,2.7,2.7,0,0,0,2,.81,2.59,2.59,0,0,0,1.94-.81,2.76,2.76,0,0,0,.78-2V23.38a2.76,2.76,0,0,0-.78-2A2.56,2.56,0,0,0,338.55,20.58Z"/><path class="cls-3" d="M341,10.15a3.79,3.79,0,0,0-2.45-.68,4.12,4.12,0,0,0-2.53.68,2.51,2.51,0,0,0-.88,2.12v1a2.57,2.57,0,0,0,.82,2.11,4.87,4.87,0,0,0,5,0,2.51,2.51,0,0,0,.86-2.11v-1A2.6,2.6,0,0,0,341,10.15Z"/><path class="cls-3" d="M387,29.17a17.79,17.79,0,0,0-24.32-6.55,17.45,17.45,0,0,0-6.38,6.55A18.87,18.87,0,0,0,354,38.64a18.88,18.88,0,0,0,2.35,9.48,17.35,17.35,0,0,0,15.37,8.93A17.1,17.1,0,0,0,387,48.12a19.08,19.08,0,0,0,2.32-9.48A19.07,19.07,0,0,0,387,29.17Zm-4.73,16.36a12.36,12.36,0,0,1-4.36,4.73,12,12,0,0,1-12.44,0,12.23,12.23,0,0,1-4.4-4.73,14.39,14.39,0,0,1-1.6-6.89,14.34,14.34,0,0,1,1.6-6.92,12.36,12.36,0,0,1,4.4-4.7,12,12,0,0,1,12.44,0,12.49,12.49,0,0,1,4.36,4.7,14.34,14.34,0,0,1,1.6,6.92A14.39,14.39,0,0,1,382.27,45.53Z"/><path class="cls-3" d="M430.94,27.26a10.28,10.28,0,0,0-3.79-5.11,12.23,12.23,0,0,0-7.29-1.91,13.31,13.31,0,0,0-4.7.85,15.44,15.44,0,0,0-4.09,2.29A14.19,14.19,0,0,0,408,26.61c-.08.11-.13.22-.21.33v-3a2.77,2.77,0,0,0-.74-2,2.83,2.83,0,0,0-3.92,0,2.69,2.69,0,0,0-.79,2V53.57a2.73,2.73,0,0,0,.79,2,2.73,2.73,0,0,0,3.88,0,2.76,2.76,0,0,0,.78-2v-19a8.17,8.17,0,0,1,1.44-4.7,10.44,10.44,0,0,1,3.82-3.38,11.15,11.15,0,0,1,5.25-1.26,8.61,8.61,0,0,1,4.9,1.26,7,7,0,0,1,2.63,3.38,13.51,13.51,0,0,1,.78,4.7v19a2.82,2.82,0,0,0,.75,2,2.56,2.56,0,0,0,2,.81,2.61,2.61,0,0,0,1.95-.81,2.76,2.76,0,0,0,.78-2V34.49A21.73,21.73,0,0,0,430.94,27.26Z"/></g><g class="cls-2"><path class="cls-4" d="M26,57.77a3.31,3.31,0,0,1-4.52-1.21L3,24.52c-.14-.22-4.27-7.11-2.52-14A13.46,13.46,0,0,1,7.14,2.1,13.73,13.73,0,0,1,18,.49c6.93,1.92,10.94,9,11.11,9.35l5.07,8.78a3.3,3.3,0,0,1-5.72,3.3l-5.11-8.83c0-.09-2.9-5.08-7.14-6.24a7.28,7.28,0,0,0-5.75,1,7,7,0,0,0-3.6,4.35c-.89,3.43,1,7.66,1.79,9l18.53,32.1A3.3,3.3,0,0,1,26,57.77Z"/><path class="cls-4" d="M32.2,68.29A13.74,13.74,0,0,1,21.36,69.9c-6.93-1.92-10.94-9-11.11-9.35L5.18,51.77a3.3,3.3,0,1,1,5.72-3.3L16,57.3c.06.09,2.9,5.08,7.15,6.24a7.26,7.26,0,0,0,5.74-1,7.07,7.07,0,0,0,3.61-4.35c.89-3.43-1-7.66-1.8-9L12.17,17.13a3.3,3.3,0,0,1,5.72-3.3l18.5,32c.14.22,4.27,7.11,2.52,14A13.49,13.49,0,0,1,32.2,68.29Z"/><path class="cls-4" d="M83.5,37.67a8.41,8.41,0,0,0-2.59-3,14.81,14.81,0,0,0-3.65-1.88c-1.34-.47-2.74-.89-4.19-1.26s-3-.92-4.36-1.4a8.32,8.32,0,0,1-3.14-1.87,4.32,4.32,0,0,1-1.23-3,4.25,4.25,0,0,1,1.06-3.07A6.5,6.5,0,0,1,68,20.63a10.05,10.05,0,0,1,3.13-.51A12,12,0,0,1,75.9,21a9.81,9.81,0,0,1,3.65,2.69,2.17,2.17,0,0,0,1.53.65,2.64,2.64,0,0,0,1.67-.51A2.19,2.19,0,0,0,83.63,22a2.68,2.68,0,0,0-.68-1.7,11.43,11.43,0,0,0-3.48-2.9,15.51,15.51,0,0,0-4-1.5,18.85,18.85,0,0,0-4-.45,15.06,15.06,0,0,0-6.2,1.24,10.87,10.87,0,0,0-4.47,3.47,8.69,8.69,0,0,0-1.67,5.32A8.74,8.74,0,0,0,60.15,30,9.34,9.34,0,0,0,63,33a15.76,15.76,0,0,0,3.92,1.94c1.45.5,2.92,1,4.43,1.36a38.89,38.89,0,0,1,4,1.27,9,9,0,0,1,3,1.83,4,4,0,0,1,1.16,3,4.43,4.43,0,0,1-1.12,3.17,6.1,6.1,0,0,1-2.79,1.67,13.63,13.63,0,0,1-3.24.54,12.43,12.43,0,0,1-6-1.33A15.25,15.25,0,0,1,62,42.89,2.51,2.51,0,0,0,60.29,42a2.63,2.63,0,0,0-1.67.41,2.2,2.2,0,0,0-1.12,1.74A3.17,3.17,0,0,0,58,46a14.39,14.39,0,0,0,6.33,4.88,20.84,20.84,0,0,0,7.43,1.39A16.31,16.31,0,0,0,78,51.1a11,11,0,0,0,4.67-3.48,8.58,8.58,0,0,0,1.77-5.42A9.74,9.74,0,0,0,83.5,37.67Z"/><path class="cls-4" d="M125.82,17.15a2.58,2.58,0,0,0-2-.78,2.62,2.62,0,0,0-2,.78,2.82,2.82,0,0,0-.75,2V37.7c0,3.09-.79,5.44-2.38,7A9.14,9.14,0,0,1,112,47.11a9,9,0,0,1-6.68-2.38c-1.59-1.59-2.39-3.94-2.39-7V19.17a2.82,2.82,0,0,0-.75-2,2.84,2.84,0,0,0-3.91,0,2.73,2.73,0,0,0-.79,2V37.7q0,6.9,3.85,10.67c2.57,2.53,6.12,3.78,10.67,3.78s8.17-1.25,10.73-3.78,3.85-6.07,3.85-10.67V19.17A2.82,2.82,0,0,0,125.82,17.15Z"/><path class="cls-4" d="M173.3,24.28a16.75,16.75,0,0,0-5.83-6.44,15.07,15.07,0,0,0-8.31-2.36,13.2,13.2,0,0,0-4.47.76,15.08,15.08,0,0,0-3.89,2,13.73,13.73,0,0,0-2.93,2.86c-.24.32-.45.65-.65,1V4a2.82,2.82,0,0,0-.74-2,2.75,2.75,0,0,0-3.92,0,2.73,2.73,0,0,0-.79,2V49.16a2.7,2.7,0,0,0,.79,2,2.62,2.62,0,0,0,1.94.78,2.54,2.54,0,0,0,2-.82,2.79,2.79,0,0,0,.74-2v-3c.1.12.18.25.28.38a15.56,15.56,0,0,0,3,2.9,15.86,15.86,0,0,0,4,2.11,14.2,14.2,0,0,0,4.74.78,14.54,14.54,0,0,0,8.21-2.41,17.34,17.34,0,0,0,5.8-6.58,20.56,20.56,0,0,0,2.15-9.54A20.11,20.11,0,0,0,173.3,24.28Zm-4.67,16.36a12.3,12.3,0,0,1-4.09,4.84,10.39,10.39,0,0,1-6,1.77,10.53,10.53,0,0,1-6-1.77,11.91,11.91,0,0,1-4.09-4.84A15.74,15.74,0,0,1,147,33.76,15.1,15.1,0,0,1,148.42,27a11.76,11.76,0,0,1,4.09-4.7,10.66,10.66,0,0,1,6-1.74,10.52,10.52,0,0,1,6,1.74,12.15,12.15,0,0,1,4.09,4.7,14.85,14.85,0,0,1,1.5,6.79A15.47,15.47,0,0,1,168.63,40.64Z"/><path class="cls-4" d="M211.84,37.67a8.31,8.31,0,0,0-2.59-3,14.74,14.74,0,0,0-3.64-1.88c-1.35-.47-2.74-.89-4.2-1.26s-3-.92-4.36-1.4a8.28,8.28,0,0,1-3.13-1.87,4.28,4.28,0,0,1-1.23-3,4.21,4.21,0,0,1,1.06-3.07,6.4,6.4,0,0,1,2.62-1.6,10.05,10.05,0,0,1,3.13-.51,12,12,0,0,1,4.74.92,9.73,9.73,0,0,1,3.65,2.69,2.19,2.19,0,0,0,1.53.65,2.63,2.63,0,0,0,1.67-.51A2.2,2.2,0,0,0,212,22a2.68,2.68,0,0,0-.68-1.7,11.43,11.43,0,0,0-3.48-2.9,15.64,15.64,0,0,0-4-1.5,18.92,18.92,0,0,0-4-.45,15.06,15.06,0,0,0-6.2,1.24,10.74,10.74,0,0,0-4.47,3.47,8.69,8.69,0,0,0-1.67,5.32A8.74,8.74,0,0,0,188.5,30a9.23,9.23,0,0,0,2.8,3,15.86,15.86,0,0,0,3.91,1.94c1.45.5,2.93,1,4.43,1.36a38.12,38.12,0,0,1,4,1.27,8.93,8.93,0,0,1,3,1.83,4,4,0,0,1,1.16,3,4.43,4.43,0,0,1-1.12,3.17,6.13,6.13,0,0,1-2.8,1.67,13.55,13.55,0,0,1-3.24.54,12.36,12.36,0,0,1-6-1.33,15.29,15.29,0,0,1-4.37-3.57,2.49,2.49,0,0,0-1.67-.89,2.63,2.63,0,0,0-1.67.41,2.25,2.25,0,0,0-1.12,1.74,3.32,3.32,0,0,0,.51,1.87,14.42,14.42,0,0,0,6.34,4.88,20.84,20.84,0,0,0,7.43,1.39,16.31,16.31,0,0,0,6.24-1.19A11.11,11.11,0,0,0,211,47.62a8.58,8.58,0,0,0,1.77-5.42A9.61,9.61,0,0,0,211.84,37.67Z"/><path class="cls-4" d="M240.47,21.62a2.45,2.45,0,0,0,1.81-.72,2.36,2.36,0,0,0,.71-1.73,2.57,2.57,0,0,0-.71-1.84,2.4,2.4,0,0,0-1.81-.75h-6.2V10.1a2.84,2.84,0,0,0-.75-2,2.49,2.49,0,0,0-1.91-.81,2.77,2.77,0,0,0-2.79,2.79v6.48h-4.36a2.62,2.62,0,0,0-1.81.71,2.42,2.42,0,0,0,0,3.58,2.53,2.53,0,0,0,1.81.75h4.36V43.23a10.47,10.47,0,0,0,.92,4.87A5.8,5.8,0,0,0,232,50.59a7.12,7.12,0,0,0,2.76.88,22.19,22.19,0,0,0,2.35.14,6.16,6.16,0,0,0,3.21-.85,2.45,2.45,0,0,0,1.43-2.08,2.42,2.42,0,0,0-.59-1.67,1.67,1.67,0,0,0-1.25-.65,2.79,2.79,0,0,0-1.2.24,2.75,2.75,0,0,1-1.19.24,4.34,4.34,0,0,1-1.54-.3,2.59,2.59,0,0,1-1.26-1.13,5.1,5.1,0,0,1-.47-2.46V21.62Z"/><path class="cls-4" d="M286.34,16.82a2.86,2.86,0,0,0-3.95,0,2.69,2.69,0,0,0-.75,1.94v2.73A13.7,13.7,0,0,0,279.43,19a14.57,14.57,0,0,0-4.4-2.59,15.43,15.43,0,0,0-5.46-1,14.82,14.82,0,0,0-8.17,2.36,16.55,16.55,0,0,0-5.83,6.47,20.32,20.32,0,0,0-2.15,9.51,20.4,20.4,0,0,0,2.15,9.48,17.08,17.08,0,0,0,5.83,6.58,14.93,14.93,0,0,0,8.38,2.41,13.72,13.72,0,0,0,5.15-1,15.29,15.29,0,0,0,4.19-2.53,13.55,13.55,0,0,0,2.52-2.85v2.89a2.84,2.84,0,0,0,.75,2,2.57,2.57,0,0,0,2,.81,2.6,2.6,0,0,0,1.94-.81,2.78,2.78,0,0,0,.78-2V18.76A2.69,2.69,0,0,0,286.34,16.82Zm-10,28.66a10.54,10.54,0,0,1-6,1.77,10.42,10.42,0,0,1-6-1.77,12.25,12.25,0,0,1-4.12-4.81,15.09,15.09,0,0,1-1.5-6.85,15,15,0,0,1,1.5-6.82,12,12,0,0,1,4.12-4.73,11.13,11.13,0,0,1,12,0,12,12,0,0,1,4.09,4.77,15.27,15.27,0,0,1,1.46,6.75,15.62,15.62,0,0,1-1.46,6.85A12,12,0,0,1,276.36,45.48Z"/><path class="cls-4" d="M317,21.62a2.43,2.43,0,0,0,1.8-.72,2.33,2.33,0,0,0,.72-1.73,2.53,2.53,0,0,0-.72-1.84,2.38,2.38,0,0,0-1.8-.75h-6.21V10.1a2.88,2.88,0,0,0-.74-2,2.49,2.49,0,0,0-1.91-.81,2.78,2.78,0,0,0-2.8,2.79v6.48h-4.36a2.63,2.63,0,0,0-1.81.71,2.44,2.44,0,0,0,0,3.58,2.54,2.54,0,0,0,1.81.75h4.36V43.23a10.6,10.6,0,0,0,.92,4.87,5.82,5.82,0,0,0,2.29,2.49,7,7,0,0,0,2.75.88,22.51,22.51,0,0,0,2.36.14,6.1,6.1,0,0,0,3.2-.85,2.39,2.39,0,0,0,.85-3.75,1.67,1.67,0,0,0-1.26-.65,2.78,2.78,0,0,0-1.19.24,2.78,2.78,0,0,1-1.19.24,4.3,4.3,0,0,1-1.54-.3,2.59,2.59,0,0,1-1.26-1.13,5,5,0,0,1-.48-2.46V21.62Z"/><path class="cls-4" d="M334.67,15.83a2.7,2.7,0,0,0-2,.81,2.78,2.78,0,0,0-.78,2v30.2a2.78,2.78,0,0,0,.78,2,2.7,2.7,0,0,0,2,.81,2.59,2.59,0,0,0,1.94-.81,2.78,2.78,0,0,0,.78-2V18.62a2.78,2.78,0,0,0-.78-2A2.59,2.59,0,0,0,334.67,15.83Z"/><path class="cls-4" d="M337.12,5.4a3.71,3.71,0,0,0-2.45-.68,4.07,4.07,0,0,0-2.53.68,2.52,2.52,0,0,0-.88,2.11v1a2.57,2.57,0,0,0,.82,2.11,3.83,3.83,0,0,0,2.52.68,3.89,3.89,0,0,0,2.49-.68,2.53,2.53,0,0,0,.85-2.11v-1A2.57,2.57,0,0,0,337.12,5.4Z"/><path class="cls-4" d="M383.13,24.41a17.6,17.6,0,0,0-30.71,0,18.91,18.91,0,0,0-2.35,9.48,18.87,18.87,0,0,0,2.35,9.47,17.53,17.53,0,0,0,30.71,0,19.17,19.17,0,0,0,2.32-9.47A19.21,19.21,0,0,0,383.13,24.41Zm-4.74,16.36A12.39,12.39,0,0,1,374,45.51a12,12,0,0,1-12.44,0,12.26,12.26,0,0,1-4.4-4.74,14.32,14.32,0,0,1-1.6-6.88,14.32,14.32,0,0,1,1.6-6.92,12.36,12.36,0,0,1,4.4-4.7,12,12,0,0,1,12.44,0,12.49,12.49,0,0,1,4.36,4.7,14.32,14.32,0,0,1,1.6,6.92A14.32,14.32,0,0,1,378.39,40.77Z"/><path class="cls-4" d="M427.06,22.51a10.39,10.39,0,0,0-3.78-5.12,12.33,12.33,0,0,0-7.3-1.91,13.1,13.1,0,0,0-4.7.86,15.57,15.57,0,0,0-4.09,2.28,14.23,14.23,0,0,0-3.07,3.24l-.2.33v-3a2.82,2.82,0,0,0-.75-2,2.85,2.85,0,0,0-3.92,0,2.73,2.73,0,0,0-.79,2V48.82a2.75,2.75,0,0,0,.79,2,2.73,2.73,0,0,0,3.88,0,2.75,2.75,0,0,0,.79-2V29.87a8.17,8.17,0,0,1,1.43-4.71,10.32,10.32,0,0,1,3.82-3.37,11.06,11.06,0,0,1,5.25-1.26,8.54,8.54,0,0,1,4.9,1.26A6.92,6.92,0,0,1,422,25.16a13.53,13.53,0,0,1,.78,4.71v19a2.84,2.84,0,0,0,.75,2,2.78,2.78,0,0,0,3.92,0,2.78,2.78,0,0,0,.78-2V29.73A21.67,21.67,0,0,0,427.06,22.51Z"/></g><g class="cls-2"><path class="cls-5" d="M36.08,67.88a3.3,3.3,0,0,1-4.51-1.21l-18.5-32c-.13-.22-4.26-7.12-2.51-14a13.46,13.46,0,0,1,6.71-8.46A13.68,13.68,0,0,1,28.11,10.6c6.93,1.92,10.94,9,11.1,9.34l5.07,8.79A3.3,3.3,0,1,1,38.56,32l-5.1-8.84c-.05-.09-2.9-5.07-7.14-6.24a7.28,7.28,0,0,0-5.75,1A7,7,0,0,0,17,22.28c-.89,3.43,1,7.65,1.79,9l18.53,32.1A3.3,3.3,0,0,1,36.08,67.88Z"/><path class="cls-5" d="M42.33,78.4A13.74,13.74,0,0,1,31.49,80C24.56,78.08,20.55,71,20.38,70.66l-5.07-8.78A3.3,3.3,0,0,1,21,58.57l5.1,8.84c.05.09,2.9,5.08,7.15,6.24a7.26,7.26,0,0,0,5.74-1,7.06,7.06,0,0,0,3.61-4.36c.89-3.42-1-7.65-1.8-9L22.3,27.24A3.3,3.3,0,0,1,28,23.93l18.5,32c.14.23,4.26,7.12,2.51,14A13.47,13.47,0,0,1,42.33,78.4Z"/><path class="cls-5" d="M91.62,47.78a8.13,8.13,0,0,0-2.59-3,14.57,14.57,0,0,0-3.64-1.88,43.55,43.55,0,0,0-4.19-1.26c-1.6-.45-3-.92-4.36-1.4a8.45,8.45,0,0,1-3.14-1.87,4.36,4.36,0,0,1-1.23-3,4.25,4.25,0,0,1,1.06-3.07,6.19,6.19,0,0,1,2.62-1.6,10.11,10.11,0,0,1,3.14-.51,11.77,11.77,0,0,1,4.73.92,9.65,9.65,0,0,1,3.65,2.69,2.21,2.21,0,0,0,1.54.65A2.64,2.64,0,0,0,90.88,34a2.19,2.19,0,0,0,.88-1.84,2.71,2.71,0,0,0-.68-1.71,11.39,11.39,0,0,0-3.48-2.89,15.31,15.31,0,0,0-4-1.51,19.49,19.49,0,0,0-4-.44,15.22,15.22,0,0,0-6.2,1.23,11,11,0,0,0-4.47,3.47,8.73,8.73,0,0,0-1.67,5.32,8.77,8.77,0,0,0,1.06,4.47,9.3,9.3,0,0,0,2.8,3A15.88,15.88,0,0,0,75,45c1.46.5,2.93.95,4.44,1.36a37.93,37.93,0,0,1,4,1.27,8.63,8.63,0,0,1,3,1.83,4,4,0,0,1,1.16,3,4.43,4.43,0,0,1-1.12,3.17,6.1,6.1,0,0,1-2.79,1.67,14.15,14.15,0,0,1-3.24.54,12.4,12.4,0,0,1-6-1.33A15.16,15.16,0,0,1,70.08,53a2.49,2.49,0,0,0-1.66-.88,2.61,2.61,0,0,0-1.67.41,2.2,2.2,0,0,0-1.12,1.73,3.2,3.2,0,0,0,.51,1.88A14.29,14.29,0,0,0,72.47,61a20.85,20.85,0,0,0,7.43,1.4,16.31,16.31,0,0,0,6.24-1.19,11.13,11.13,0,0,0,4.67-3.48,8.58,8.58,0,0,0,1.77-5.42A9.59,9.59,0,0,0,91.62,47.78Z"/><path class="cls-5" d="M134,27.26a2.89,2.89,0,0,0-3.95,0,2.8,2.8,0,0,0-.75,2V47.81c0,3.09-.79,5.43-2.39,7a10.63,10.63,0,0,1-13.43,0c-1.58-1.59-2.38-3.93-2.38-7V29.27a2.8,2.8,0,0,0-.75-2,2.61,2.61,0,0,0-2-.78,2.66,2.66,0,0,0-2,.78,2.74,2.74,0,0,0-.78,2V47.81q0,6.88,3.85,10.67t10.67,3.78q6.88,0,10.73-3.78t3.85-10.67V29.27A2.8,2.8,0,0,0,134,27.26Z"/><path class="cls-5" d="M181.43,34.39a16.78,16.78,0,0,0-5.83-6.45,15.18,15.18,0,0,0-8.32-2.35,13.19,13.19,0,0,0-4.46.76,15.05,15.05,0,0,0-3.89,2A14,14,0,0,0,156,31.22c-.24.32-.45.65-.65,1V14.08a2.85,2.85,0,0,0-.75-2,2.76,2.76,0,0,0-3.91,0,2.75,2.75,0,0,0-.79,2V59.27a2.68,2.68,0,0,0,.79,2,2.59,2.59,0,0,0,1.94.79,2.56,2.56,0,0,0,2-.82,2.8,2.8,0,0,0,.75-2V56.22c.1.13.18.26.28.38a15.27,15.27,0,0,0,3,2.9,15.57,15.57,0,0,0,4,2.12,14.2,14.2,0,0,0,4.74.78A14.47,14.47,0,0,0,175.63,60a17.19,17.19,0,0,0,5.8-6.58,20.5,20.5,0,0,0,2.15-9.54A20.07,20.07,0,0,0,181.43,34.39Zm-4.67,16.36a12.28,12.28,0,0,1-4.09,4.83,10.4,10.4,0,0,1-6,1.78,10.52,10.52,0,0,1-6-1.78,11.81,11.81,0,0,1-4.09-4.83,15.78,15.78,0,0,1-1.47-6.89,15.06,15.06,0,0,1,1.47-6.78,11.72,11.72,0,0,1,4.09-4.71,10.71,10.71,0,0,1,6-1.73,10.59,10.59,0,0,1,6,1.73,12.19,12.19,0,0,1,4.09,4.71,14.8,14.8,0,0,1,1.5,6.78A15.52,15.52,0,0,1,176.76,50.75Z"/><path class="cls-5" d="M220,47.78a8.23,8.23,0,0,0-2.59-3,14.74,14.74,0,0,0-3.64-1.88q-2-.72-4.2-1.26c-1.59-.45-3-.92-4.36-1.4a8.41,8.41,0,0,1-3.13-1.87,4.31,4.31,0,0,1-1.23-3,4.21,4.21,0,0,1,1.06-3.07,6.19,6.19,0,0,1,2.62-1.6,10.05,10.05,0,0,1,3.13-.51,11.79,11.79,0,0,1,4.74.92A9.73,9.73,0,0,1,216,33.84a2.19,2.19,0,0,0,1.53.65,2.63,2.63,0,0,0,1.67-.51,2.2,2.2,0,0,0,.89-1.84,2.77,2.77,0,0,0-.68-1.71A11.39,11.39,0,0,0,216,27.54,15.38,15.38,0,0,0,211.89,26a19.39,19.39,0,0,0-4-.44,15.3,15.3,0,0,0-6.21,1.23,10.94,10.94,0,0,0-4.46,3.47,8.73,8.73,0,0,0-1.67,5.32,8.68,8.68,0,0,0,1.06,4.47,9.16,9.16,0,0,0,2.79,3,16.13,16.13,0,0,0,3.92,2c1.45.5,2.93.95,4.43,1.36a38.12,38.12,0,0,1,4,1.27,8.63,8.63,0,0,1,3,1.83,4,4,0,0,1,1.16,3,4.43,4.43,0,0,1-1.12,3.17,6.19,6.19,0,0,1-2.8,1.67,14.06,14.06,0,0,1-3.24.54,12.36,12.36,0,0,1-6-1.33A15.16,15.16,0,0,1,198.43,53a2.51,2.51,0,0,0-1.67-.88,2.63,2.63,0,0,0-1.67.41A2.23,2.23,0,0,0,194,54.25a3.28,3.28,0,0,0,.51,1.88A14.27,14.27,0,0,0,200.82,61a20.81,20.81,0,0,0,7.43,1.4,16.3,16.3,0,0,0,6.23-1.19,11.13,11.13,0,0,0,4.67-3.48,8.53,8.53,0,0,0,1.77-5.42A9.59,9.59,0,0,0,220,47.78Z"/><path class="cls-5" d="M248.6,31.73a2.47,2.47,0,0,0,1.81-.72,2.38,2.38,0,0,0,.71-1.74,2.6,2.6,0,0,0-.71-1.84,2.41,2.41,0,0,0-1.81-.75h-6.2V20.21a2.82,2.82,0,0,0-.75-2,2.5,2.5,0,0,0-1.91-.82,2.8,2.8,0,0,0-2.8,2.8v6.47h-4.36a2.57,2.57,0,0,0-1.8.72,2.42,2.42,0,0,0,0,3.58,2.52,2.52,0,0,0,1.8.75h4.36V53.34a10.63,10.63,0,0,0,.92,4.87,5.82,5.82,0,0,0,2.29,2.49,7,7,0,0,0,2.76.88c.93.09,1.71.14,2.35.14a6,6,0,0,0,3.2-.86,2.43,2.43,0,0,0,1.44-2.07,2.4,2.4,0,0,0-.59-1.67,1.67,1.67,0,0,0-1.26-.65,2.78,2.78,0,0,0-1.19.24,2.78,2.78,0,0,1-1.19.24,4.31,4.31,0,0,1-1.54-.31,2.52,2.52,0,0,1-1.26-1.12,5.13,5.13,0,0,1-.47-2.46V31.73Z"/><path class="cls-5" d="M294.47,26.92a2.89,2.89,0,0,0-4,0,2.69,2.69,0,0,0-.75,1.94V31.6a13.08,13.08,0,0,0-2.22-2.46,14.42,14.42,0,0,0-4.39-2.6,15.47,15.47,0,0,0-5.46-.95,14.9,14.9,0,0,0-8.17,2.35,16.58,16.58,0,0,0-5.83,6.48,20.32,20.32,0,0,0-2.15,9.51,20.36,20.36,0,0,0,2.15,9.47A16.94,16.94,0,0,0,269.53,60a14.83,14.83,0,0,0,8.38,2.42,13.53,13.53,0,0,0,5.15-1,15.21,15.21,0,0,0,4.18-2.52A13.65,13.65,0,0,0,289.77,56v2.89a2.82,2.82,0,0,0,.75,2,2.54,2.54,0,0,0,2,.82,2.58,2.58,0,0,0,1.94-.82,2.76,2.76,0,0,0,.78-2V28.86A2.69,2.69,0,0,0,294.47,26.92Zm-10,28.66a10.57,10.57,0,0,1-6,1.78,10.43,10.43,0,0,1-6-1.78,12.16,12.16,0,0,1-4.12-4.8,15.13,15.13,0,0,1-1.51-6.85,14.91,14.91,0,0,1,1.51-6.82,12,12,0,0,1,4.12-4.74,11.16,11.16,0,0,1,12,0,12,12,0,0,1,4.08,4.77A15.14,15.14,0,0,1,290,43.93a15.51,15.51,0,0,1-1.47,6.85A11.91,11.91,0,0,1,284.49,55.58Z"/><path class="cls-5" d="M325.07,31.73a2.43,2.43,0,0,0,1.81-.72,2.35,2.35,0,0,0,.72-1.74,2.57,2.57,0,0,0-.72-1.84,2.38,2.38,0,0,0-1.81-.75h-6.2V20.21a2.82,2.82,0,0,0-.75-2,2.48,2.48,0,0,0-1.9-.82,2.8,2.8,0,0,0-2.8,2.8v6.47h-4.36a2.6,2.6,0,0,0-1.81.72,2.44,2.44,0,0,0,0,3.58,2.54,2.54,0,0,0,1.81.75h4.36V53.34a10.5,10.5,0,0,0,.92,4.87,5.82,5.82,0,0,0,2.29,2.49,7,7,0,0,0,2.75.88c.93.09,1.72.14,2.35.14a6,6,0,0,0,3.21-.86,2.44,2.44,0,0,0,1.43-2.07,2.39,2.39,0,0,0-.58-1.67,1.67,1.67,0,0,0-1.26-.65,2.78,2.78,0,0,0-1.19.24,2.81,2.81,0,0,1-1.19.24,4.31,4.31,0,0,1-1.54-.31,2.52,2.52,0,0,1-1.26-1.12,5,5,0,0,1-.48-2.46V31.73Z"/><path class="cls-5" d="M342.8,25.93a2.71,2.71,0,0,0-2,.82,2.76,2.76,0,0,0-.78,2V58.92a2.76,2.76,0,0,0,.78,2,2.68,2.68,0,0,0,2,.82,2.56,2.56,0,0,0,1.94-.82,2.76,2.76,0,0,0,.78-2V28.73a2.76,2.76,0,0,0-.78-2A2.6,2.6,0,0,0,342.8,25.93Z"/><path class="cls-5" d="M345.25,15.51a3.73,3.73,0,0,0-2.45-.69,4.05,4.05,0,0,0-2.53.69,2.49,2.49,0,0,0-.88,2.11v.95a2.6,2.6,0,0,0,.82,2.12,3.89,3.89,0,0,0,2.52.68,4,4,0,0,0,2.49-.68,2.55,2.55,0,0,0,.85-2.12v-.95A2.57,2.57,0,0,0,345.25,15.51Z"/><path class="cls-5" d="M391.25,34.52A17.77,17.77,0,0,0,366.93,28a17.42,17.42,0,0,0-6.38,6.54A18.88,18.88,0,0,0,358.2,44a18.87,18.87,0,0,0,2.35,9.47A17.52,17.52,0,0,0,366.93,60a17.47,17.47,0,0,0,24.32-6.55A19.07,19.07,0,0,0,393.57,44,19.08,19.08,0,0,0,391.25,34.52Zm-4.73,16.36a12.39,12.39,0,0,1-4.36,4.74,12,12,0,0,1-12.44,0,12.26,12.26,0,0,1-4.4-4.74,14.35,14.35,0,0,1-1.6-6.88,14.29,14.29,0,0,1,1.6-6.92,12.32,12.32,0,0,1,4.4-4.71,12,12,0,0,1,12.44,0,12.45,12.45,0,0,1,4.36,4.71,14.29,14.29,0,0,1,1.6,6.92A14.35,14.35,0,0,1,386.52,50.88Z"/><path class="cls-5" d="M435.19,32.61a10.32,10.32,0,0,0-3.79-5.11,12.3,12.3,0,0,0-7.29-1.91,13.1,13.1,0,0,0-4.7.86,15.41,15.41,0,0,0-4.09,2.28A14.19,14.19,0,0,0,412.25,32l-.2.34v-3a2.8,2.8,0,0,0-.75-2,2.85,2.85,0,0,0-3.92,0,2.7,2.7,0,0,0-.79,2V58.92a2.73,2.73,0,0,0,.79,2,2.7,2.7,0,0,0,3.88,0,2.77,2.77,0,0,0,.79-2V40a8.16,8.16,0,0,1,1.43-4.7,10.32,10.32,0,0,1,3.82-3.37,11,11,0,0,1,5.25-1.26,8.54,8.54,0,0,1,4.9,1.26,6.92,6.92,0,0,1,2.63,3.37,13.51,13.51,0,0,1,.78,4.7v19a2.82,2.82,0,0,0,.75,2,2.54,2.54,0,0,0,2,.82,2.58,2.58,0,0,0,1.95-.82,2.76,2.76,0,0,0,.78-2V39.84A21.77,21.77,0,0,0,435.19,32.61Z"/></g></g></g></g></svg>