<svg xmlns="http://www.w3.org/2000/svg" viewBox="0 0 1260.12 229.09"><defs><style>.cls-1{fill:none;}.cls-2{fill:#00adee;}.cls-3{fill:#eb008b;}.cls-4{fill:#2e3191;}.cls-5{fill:#fff100;}.cls-6{fill:#00a551;}.cls-7{fill:#ec1c24;}.cls-8{fill:#363639;}</style></defs><g id="Layer_2" data-name="Layer 2"><g id="Layer_1-2" data-name="Layer 1"><path class="cls-1" d="M1095.12,100.21a35.94,35.94,0,0,0-12.6-13.59,33.1,33.1,0,0,0-18-5,34.14,34.14,0,0,0-11.59,2,44.17,44.17,0,0,0-2.58,15.48A41.51,41.51,0,0,0,1055,119a35.34,35.34,0,0,0,12.69,13.69,33.31,33.31,0,0,0,17.94,5,34.29,34.29,0,0,0,11.48-2,43.59,43.59,0,0,0,2.67-15.56A41.27,41.27,0,0,0,1095.12,100.21Z"/><path class="cls-1" d="M489,100.21a35.24,35.24,0,0,0-11.82-13.59,30.39,30.39,0,0,0-17.34-5,33.12,33.12,0,0,0-9.8,1.45,45.74,45.74,0,0,0-2.59,15.67,45.72,45.72,0,0,0,4.23,19.9,34.34,34.34,0,0,0,11.83,14,30.32,30.32,0,0,0,17.43,5.13,32.39,32.39,0,0,0,9.44-1.35,45.94,45.94,0,0,0,3-16.55A43,43,0,0,0,489,100.21Z"/><path class="cls-1" d="M442.85,150.83a5.46,5.46,0,0,1-3.86.23,32.28,32.28,0,0,0,3.39,2.63,29.42,29.42,0,0,0,10.76,4.41,43,43,0,0,1-5.94-3.63A49.25,49.25,0,0,1,442.85,150.83Z"/><path class="cls-1" d="M563.06,155.85a38.53,38.53,0,0,1-3.87-2.55A41,41,0,0,0,563.06,155.85Z"/><path class="cls-1" d="M774.79,118.71a35.12,35.12,0,0,0,11.91,13.88,30,30,0,0,0,17.23,5.13,32.72,32.72,0,0,0,9.58-1.39A46.51,46.51,0,0,0,816.32,120a43.93,43.93,0,0,0-4.23-19.51,34.7,34.7,0,0,0-11.82-13.78,30.39,30.39,0,0,0-17.44-5.12,32.25,32.25,0,0,0-9.68,1.46,45,45,0,0,0-2.71,15.85A43.82,43.82,0,0,0,774.79,118.71Z"/><path class="cls-1" d="M821.79,68.89a8.4,8.4,0,0,1,1.63-.29,8.7,8.7,0,0,1,2.09.37,35.23,35.23,0,0,0-4.14-3.35,29.11,29.11,0,0,0-9.75-4.17,40.11,40.11,0,0,1,8.06,5.26C820.47,67.4,821.08,68.17,821.79,68.89Z"/><path class="cls-1" d="M590.11,130.75a109,109,0,0,0-11.53-3.65c-1.92-.53-3.78-1.18-5.67-1.75a43.74,43.74,0,0,0,12.39,10.1A35.11,35.11,0,0,0,601,139.22a10.45,10.45,0,0,0-2.18-3.16A25.38,25.38,0,0,0,590.11,130.75Z"/><path class="cls-1" d="M810.82,76.17A29.33,29.33,0,0,0,801.07,72a41,41,0,0,1,8.07,5.27,38.38,38.38,0,0,1,6.39,7.35v-4.5A34.27,34.27,0,0,0,810.82,76.17Z"/><path class="cls-1" d="M449,135.54c-.31-.39-.52-.8-.8-1.19v4.82a32.64,32.64,0,0,0,4.72,4,29.32,29.32,0,0,0,10.76,4.41,44.18,44.18,0,0,1-14.68-12Z"/><path class="cls-1" d="M573.61,145.3a37.43,37.43,0,0,1-3.87-2.55A39.75,39.75,0,0,0,573.61,145.3Z"/><path class="cls-1" d="M202.71,145.3a38.53,38.53,0,0,1-3.87-2.55A42.33,42.33,0,0,0,202.71,145.3Z"/><path class="cls-1" d="M192.16,155.85a38.53,38.53,0,0,1-3.87-2.55A42.33,42.33,0,0,0,192.16,155.85Z"/><path class="cls-1" d="M219.21,130.75a107.56,107.56,0,0,0-11.53-3.65c-1.92-.53-3.77-1.18-5.67-1.75a44,44,0,0,0,12.39,10.1,35.11,35.11,0,0,0,15.74,3.77,10.27,10.27,0,0,0-2.18-3.16A25.28,25.28,0,0,0,219.21,130.75Z"/><path class="cls-2" d="M256.54,101.48A42.57,42.57,0,0,0,246,96.06q-5.82-2.07-12.12-3.65c-4.6-1.3-8.8-2.66-12.6-4a24.37,24.37,0,0,1-9-5.4,11.56,11.56,0,0,1-1.8-2.41c-1-.08-2.08-.14-3.16-.14a29.34,29.34,0,0,0-8.89,1.43,17.61,17.61,0,0,0-.26,3,12.51,12.51,0,0,0,3.56,8.67,24.21,24.21,0,0,0,9.06,5.41c3.8,1.37,8,2.74,12.6,4q6.3,1.58,12.11,3.65A42.47,42.47,0,0,1,246,112a24.05,24.05,0,0,1,7.48,8.56c1.85,3.48,2.76,7.85,2.76,13.09a25.42,25.42,0,0,1-3.16,12.65,30.8,30.8,0,0,0,8.59-7.53,24.76,24.76,0,0,0,5.12-15.66q0-7.87-2.76-13.1A24,24,0,0,0,256.54,101.48Z"/><path class="cls-2" d="M218.62,56.47a55.44,55.44,0,0,1,11.52,1.28,44.61,44.61,0,0,1,9.5,3.34c.82.28,1.64.55,2.43.89a28.14,28.14,0,0,1,10.55,7.78A6.32,6.32,0,0,0,257,71.63a7.55,7.55,0,0,0,4.83-1.47,6.33,6.33,0,0,0,2.56-5.32,7.87,7.87,0,0,0-2-4.93,32.89,32.89,0,0,0-10-8.36,44.74,44.74,0,0,0-11.72-4.35,55.51,55.51,0,0,0-11.52-1.28,44.08,44.08,0,0,0-17.93,3.56,31.5,31.5,0,0,0-12.9,10A24.59,24.59,0,0,0,196.78,62a34.36,34.36,0,0,1,3.92-2A44,44,0,0,1,218.62,56.47Z"/><path class="cls-2" d="M202.71,145.3c.38.23.75.48,1.14.69q7.1,3.85,17.33,3.85a40.81,40.81,0,0,0,9.36-1.57c.16,0,.28-.14.44-.18a16.9,16.9,0,0,0,.33-3.26,13.16,13.16,0,0,0-1.17-5.61,35.11,35.11,0,0,1-15.74-3.77A44,44,0,0,1,202,125.35c-2.38-.72-4.79-1.38-7.13-2.2-.25-.08-.47-.2-.71-.29a7.41,7.41,0,0,0-2,.87c-2.1,1.44-3.18,3.12-3.24,5a9.38,9.38,0,0,0,1.47,5.41,45.53,45.53,0,0,0,8.39,8.52l.08.07A38.53,38.53,0,0,0,202.71,145.3Z"/><path class="cls-2" d="M309.62,67.11v53.57q0,13.4,6.89,20.3t19.32,6.89a31.11,31.11,0,0,0,13.08-2.63,28.66,28.66,0,0,0,2.36-8.27,39.89,39.89,0,0,1-4.89.35q-12.42,0-19.32-6.89t-6.89-20.29V56.56A8,8,0,0,0,318,50.75a8.2,8.2,0,0,0-11.31,0,7.8,7.8,0,0,0-2.28,5.81V59.5a7.06,7.06,0,0,1,3,1.79A8.09,8.09,0,0,1,309.62,67.11Z"/><path class="cls-2" d="M380.65,48.49a7.56,7.56,0,0,0-5.73,2.26,8.08,8.08,0,0,0-2.16,5.81V59.5a7,7,0,0,1,3,1.79A8.09,8.09,0,0,1,378,67.11v53.57q0,14.88-6.22,24.74a34.26,34.26,0,0,0,5.64-4.46q11.13-10.92,11.13-30.82V56.56a8,8,0,0,0-2.17-5.81A7.52,7.52,0,0,0,380.65,48.49Z"/><path class="cls-2" d="M506.7,52.72a43.73,43.73,0,0,0-24-6.8,38.47,38.47,0,0,0-12.91,2.18,43.56,43.56,0,0,0-11.23,5.8,39.65,39.65,0,0,0-8.47,8.27c-.39.54-.65,1.08-1,1.62a43.79,43.79,0,0,1,10.15-5.14,38.51,38.51,0,0,1,12.91-2.18,43.76,43.76,0,0,1,24,6.8A48.35,48.35,0,0,1,513,81.89q6.21,11.81,6.21,27.38T513,136.84a53.88,53.88,0,0,1-4.54,7.2,50,50,0,0,0,15.09-17.75q6.21-12,6.21-27.57t-6.21-27.38A48.3,48.3,0,0,0,506.7,52.72Z"/><path class="cls-2" d="M443.87,126.29a29.79,29.79,0,0,0,4.33,8.06V123.73Z"/><path class="cls-2" d="M437.65,23.19V74.87c.27-.19.59-.34.87-.53.35-.54.61-1.09,1-1.62A39.88,39.88,0,0,1,448,64.45c.06,0,.14-.08.21-.13V12.64A8.21,8.21,0,0,0,446,6.92a7.38,7.38,0,0,0-5.7-2.36,7.47,7.47,0,0,0-5.62,2.36,8,8,0,0,0-2.27,5.72v3a6.94,6.94,0,0,1,3,1.87A8.16,8.16,0,0,1,437.65,23.19Z"/><path class="cls-2" d="M442.85,150.83a40.6,40.6,0,0,1-4.4-4.74c-.31-.39-.51-.8-.8-1.2v4.83c.45.45.87.92,1.34,1.34a5.46,5.46,0,0,0,3.86-.23Z"/><path class="cls-2" d="M436.86,109.27a45.64,45.64,0,0,0,4.23,19.89,35.59,35.59,0,0,0,7.11,10v-4.82a29.79,29.79,0,0,1-4.33-8.06l4.33-2.56v10.62c.28.39.49.8.8,1.19a44.18,44.18,0,0,0,14.68,12,33.57,33.57,0,0,0,6.67.72,30.15,30.15,0,0,0,16.35-4.55,40.79,40.79,0,0,0,2.26-4c.53-1.08,1-2.21,1.38-3.34a32.39,32.39,0,0,1-9.44,1.35,30.32,30.32,0,0,1-17.43-5.13,34.34,34.34,0,0,1-11.83-14,45.72,45.72,0,0,1-4.23-19.9A45.74,45.74,0,0,1,450,83.05a28.89,28.89,0,0,0-6.94,3.19,36.88,36.88,0,0,0-2,3.43A43.66,43.66,0,0,0,436.86,109.27Z"/><path class="cls-2" d="M573.61,145.3c.38.23.75.48,1.14.69q7.1,3.85,17.33,3.85a40.81,40.81,0,0,0,9.36-1.57c.16,0,.28-.14.43-.18a16.89,16.89,0,0,0,.34-3.26,13.16,13.16,0,0,0-1.17-5.61,35.11,35.11,0,0,1-15.74-3.77,43.74,43.74,0,0,1-12.39-10.1c-2.38-.72-4.8-1.38-7.14-2.2-.25-.08-.46-.2-.71-.29a7.54,7.54,0,0,0-2,.87c-2.1,1.44-3.17,3.12-3.24,5a9.31,9.31,0,0,0,1.48,5.41,45.49,45.49,0,0,0,8.38,8.52l.09.07A37.43,37.43,0,0,0,573.61,145.3Z"/><path class="cls-2" d="M627.44,101.48a42.57,42.57,0,0,0-10.53-5.42q-5.82-2.07-12.12-3.65c-4.6-1.3-8.8-2.66-12.6-4a24.41,24.41,0,0,1-9.06-5.4,12.3,12.3,0,0,1-1.8-2.41c-1-.08-2.08-.14-3.15-.14a29.29,29.29,0,0,0-8.89,1.43,17.61,17.61,0,0,0-.26,3,12.42,12.42,0,0,0,3.56,8.67,24.17,24.17,0,0,0,9,5.41c3.8,1.37,8,2.74,12.6,4q6.3,1.58,12.12,3.65A42.23,42.23,0,0,1,616.89,112a24,24,0,0,1,7.49,8.56q2.76,5.22,2.76,13.09A25.42,25.42,0,0,1,624,146.33a30.8,30.8,0,0,0,8.59-7.53,24.81,24.81,0,0,0,5.11-15.66q0-7.87-2.75-13.1A24,24,0,0,0,627.44,101.48Z"/><path class="cls-2" d="M589.51,56.47A55.53,55.53,0,0,1,601,57.75a44.53,44.53,0,0,1,9.49,3.34c.82.28,1.64.55,2.44.89a28.18,28.18,0,0,1,10.54,7.78,6.33,6.33,0,0,0,4.43,1.87,7.51,7.51,0,0,0,4.82-1.47,6.32,6.32,0,0,0,2.57-5.32,7.92,7.92,0,0,0-2-4.93,32.81,32.81,0,0,0-10.06-8.36,44.67,44.67,0,0,0-11.71-4.35,55.53,55.53,0,0,0-11.53-1.28,44.07,44.07,0,0,0-17.92,3.56,31.44,31.44,0,0,0-12.9,10A24.68,24.68,0,0,0,567.67,62a34.36,34.36,0,0,1,3.92-2A44.07,44.07,0,0,1,589.51,56.47Z"/><path class="cls-2" d="M844.51,47.51a7.54,7.54,0,0,0-5.72,2.26,7.8,7.8,0,0,0-2.16,5.61v3.15a7,7,0,0,1,3,1.79,7.76,7.76,0,0,1,2.17,5.61v83.9a8.39,8.39,0,0,0,2.67.49,7.52,7.52,0,0,0,5.62-2.35,8,8,0,0,0,2.26-5.73V55.38a7.81,7.81,0,0,0-2.17-5.61A7.53,7.53,0,0,0,844.51,47.51Z"/><path class="cls-2" d="M791.22,56.47A44.3,44.3,0,0,1,807,59.23a42.38,42.38,0,0,1,4.65,2.22,29.11,29.11,0,0,1,9.75,4.17A35.23,35.23,0,0,1,825.51,69c.18,0,.39,0,.57.1V65.93a7.8,7.8,0,0,1,2.16-5.61,7.25,7.25,0,0,1,4.1-2c-.71-.72-1.32-1.49-2.11-2.18a41.75,41.75,0,0,0-12.71-7.48,44.35,44.35,0,0,0-15.76-2.76,43,43,0,0,0-23.62,6.8,46.45,46.45,0,0,0-12.76,12.17c.74-.53,1.43-1.13,2.21-1.62A43,43,0,0,1,791.22,56.47Z"/><path class="cls-2" d="M813.51,136.33a32.72,32.72,0,0,1-9.58,1.39,30,30,0,0,1-17.23-5.13,35.12,35.12,0,0,1-11.91-13.88,43.82,43.82,0,0,1-4.35-19.8,45,45,0,0,1,2.71-15.85,29.23,29.23,0,0,0-6.88,3.19,38.72,38.72,0,0,0-2,3.51,43.37,43.37,0,0,0-4.35,19.7,44,44,0,0,0,4.35,19.8,35.19,35.19,0,0,0,11.91,13.88,30,30,0,0,0,17.23,5.13,30.51,30.51,0,0,0,16.55-4.62,38.47,38.47,0,0,0,2.16-3.84C812.63,138.68,813.07,137.51,813.51,136.33Z"/><path class="cls-2" d="M989.87,46.91a7.78,7.78,0,0,0-5.82,2.36A8,8,0,0,0,981.79,55v2.95a7.23,7.23,0,0,1,3.14,1.88,8,8,0,0,1,2.26,5.72v84.29a8.56,8.56,0,0,0,2.68.49,7.45,7.45,0,0,0,5.61-2.35,8,8,0,0,0,2.26-5.73V55a8,8,0,0,0-2.26-5.72A7.46,7.46,0,0,0,989.87,46.91Z"/><path class="cls-2" d="M989.87,14.81c-3.16,0-5.58.65-7.29,2S980,20.13,980,22.89v2.5c2.79.1,4.93.73,6.38,1.94s2.37,3.35,2.37,6.1v.24c.31,0,.58,0,.9,0,3.14,0,5.55-.66,7.18-2s2.47-3.35,2.47-6.11V22.89q0-4.14-2.37-6.11C995.39,15.46,993,14.81,989.87,14.81Z"/><path class="cls-2" d="M1039.79,109.66a41.51,41.51,0,0,0,4.63,19.89,35.29,35.29,0,0,0,12.7,13.69,34.63,34.63,0,0,0,36,0l.23-.17c.63-1,1.26-1.93,1.82-3a36,36,0,0,0,2-4.34,34.29,34.29,0,0,1-11.48,2,33.31,33.31,0,0,1-17.94-5A35.34,35.34,0,0,1,1055,119a41.51,41.51,0,0,1-4.63-19.89,44.17,44.17,0,0,1,2.58-15.48,33.09,33.09,0,0,0-6.35,3c-.16.1-.3.23-.46.33-.58.89-1.17,1.76-1.69,2.72A41.33,41.33,0,0,0,1039.79,109.66Z"/><path class="cls-2" d="M1111.7,52.81a50.87,50.87,0,0,0-67,13.54,51.75,51.75,0,0,1,4.37-3,50.53,50.53,0,0,1,70.31,18.92,55.2,55.2,0,0,1,6.7,27.38,55.14,55.14,0,0,1-6.7,27.37,50.93,50.93,0,0,1-3.54,5.52,50,50,0,0,0,14.09-16.06,55.2,55.2,0,0,0,6.7-27.38,55.2,55.2,0,0,0-6.7-27.38A50,50,0,0,0,1111.7,52.81Z"/><path class="cls-2" d="M1182.6,86.13a23.74,23.74,0,0,0-3.16,11.9v51.78a7.74,7.74,0,0,0,2.68.51,7.48,7.48,0,0,0,5.61-2.35,8,8,0,0,0,2.26-5.73V87.49a25.18,25.18,0,0,1,.49-4.72,31.35,31.35,0,0,0-6.41,2.47C1183.56,85.52,1183.09,85.84,1182.6,86.13Z"/><path class="cls-2" d="M1256.86,66.21a29.88,29.88,0,0,0-10.93-14.78q-7.67-5.51-21.08-5.51a38.1,38.1,0,0,0-13.59,2.47,45,45,0,0,0-11.81,6.6,41.21,41.21,0,0,0-8.87,9.35l-.09.14a45.17,45.17,0,0,1,10.22-5.54,38.14,38.14,0,0,1,13.59-2.47q13.4,0,21.08,5.51a30,30,0,0,1,10.94,14.78,63,63,0,0,1,3.25,20.89v52.18a8.33,8.33,0,0,0,2.66.49,7.51,7.51,0,0,0,5.63-2.35,8,8,0,0,0,2.26-5.73V87.1A62.74,62.74,0,0,0,1256.86,66.21Z"/><path class="cls-2" d="M1179.44,67.11v8.26c.16-.12.34-.22.5-.34l.09-.14a41.21,41.21,0,0,1,8.87-9.35c.34-.27.74-.46,1.09-.72V56.56a8,8,0,0,0-2.17-5.81,8.2,8.2,0,0,0-11.31,0,7.8,7.8,0,0,0-2.28,5.81V59.5a7.1,7.1,0,0,1,3,1.79A8.12,8.12,0,0,1,1179.44,67.11Z"/><path class="cls-3" d="M194.17,69.07a24,24,0,0,1,2.61-7,30.43,30.43,0,0,0-9,8,27.62,27.62,0,0,0-1.56,2.52,36,36,0,0,1,3.92-2A36.5,36.5,0,0,1,194.17,69.07Z"/><path class="cls-3" d="M187.58,95.39a12.51,12.51,0,0,0,3.56,8.67,24.07,24.07,0,0,0,9.06,5.4c3.8,1.38,8,2.74,12.6,4q6.3,1.59,12.12,3.66a42.23,42.23,0,0,1,10.53,5.42,23.78,23.78,0,0,1,7.48,8.56,21.36,21.36,0,0,1,1.83,5,17.42,17.42,0,0,0,4.41-3.25,12.87,12.87,0,0,0,3.24-9.17,11.63,11.63,0,0,0-3.35-8.77,25.53,25.53,0,0,0-8.75-5.31A113.86,113.86,0,0,0,228.78,106c-4.34-1.19-8.61-2.48-12.81-3.94a46.47,46.47,0,0,1-11.31-5.61,26.75,26.75,0,0,1-8.08-8.66,20.52,20.52,0,0,1-1.82-4.31,17.28,17.28,0,0,0-4.12,3C188.61,88.63,187.58,91.57,187.58,95.39Z"/><path class="cls-3" d="M192.16,155.85c.39.23.75.48,1.15.69q7.08,3.86,17.32,3.85a41,41,0,0,0,9.37-1.57,17.67,17.67,0,0,0,8.07-4.83,10.42,10.42,0,0,0,1.32-1.73,60.1,60.1,0,0,1-20.71-4,38.06,38.06,0,0,1-6-2.95,42.33,42.33,0,0,1-3.87-2.55.27.27,0,0,1-.08-.07,46,46,0,0,1-7.52-7,7.27,7.27,0,0,0-4.83-2.57,7.7,7.7,0,0,0-4.82,1.19c-2.1,1.44-3.18,3.12-3.24,5a9.32,9.32,0,0,0,1.48,5.42,45.18,45.18,0,0,0,8.38,8.52l.08.07A38.53,38.53,0,0,0,192.16,155.85Z"/><path class="cls-3" d="M219.32,60.8a18.24,18.24,0,0,0-7.58,4.63,9.74,9.74,0,0,0-1.33,1.72,57,57,0,0,1,9.18,1.15,44.42,44.42,0,0,1,9.5,3.34c.82.27,1.64.55,2.43.89a28,28,0,0,1,10.55,7.78,6.32,6.32,0,0,0,4.42,1.87,7.6,7.6,0,0,0,4.83-1.47,6.34,6.34,0,0,0,2.56-5.33,7.86,7.86,0,0,0-2-4.92,32.65,32.65,0,0,0-10-8.36c-.73-.4-1.48-.66-2.22-1a35.38,35.38,0,0,0-11.26-1.77A29.27,29.27,0,0,0,219.32,60.8Z"/><path class="cls-3" d="M245.06,150a24,24,0,0,1-2.53,6.93,31,31,0,0,0,8.6-7.53,24.26,24.26,0,0,0,2-3,35.83,35.83,0,0,1-4.9,2.52C247.16,149.27,246.11,149.61,245.06,150Z"/><path class="cls-4" d="M230.54,148.27a40.81,40.81,0,0,1-9.36,1.57q-10.25,0-17.33-3.85c-.39-.21-.76-.46-1.14-.69a38.06,38.06,0,0,0,6,2.95,60.1,60.1,0,0,0,20.71,4,12.38,12.38,0,0,0,1.59-4.17C230.82,148.13,230.7,148.23,230.54,148.27Z"/><path class="cls-3" d="M198.76,142.68a.27.27,0,0,0,.08.07Z"/><path class="cls-4" d="M253.48,120.59A24.05,24.05,0,0,0,246,112a42.47,42.47,0,0,0-10.54-5.42q-5.81-2.07-12.11-3.65c-4.6-1.3-8.8-2.67-12.6-4a24.21,24.21,0,0,1-9.06-5.41,12.51,12.51,0,0,1-3.56-8.67,17.61,17.61,0,0,1,.26-3l-.16,0a19.32,19.32,0,0,0-3.47,1.59,20.52,20.52,0,0,0,1.82,4.31,26.75,26.75,0,0,0,8.08,8.66A46.47,46.47,0,0,0,216,102.06c4.2,1.46,8.47,2.75,12.81,3.94a113.86,113.86,0,0,1,11.53,3.65,25.53,25.53,0,0,1,8.75,5.31,11.63,11.63,0,0,1,3.35,8.77,12.87,12.87,0,0,1-3.24,9.17,17.42,17.42,0,0,1-4.41,3.25,33.4,33.4,0,0,1,.93,8.08,28.55,28.55,0,0,1-.63,5.72c1.05-.34,2.1-.68,3.12-1.1a35.83,35.83,0,0,0,4.9-2.52,25.42,25.42,0,0,0,3.16-12.65C256.24,128.44,255.33,124.07,253.48,120.59Z"/><path class="cls-4" d="M208.07,67c.76,0,1.56.09,2.34.13a9.74,9.74,0,0,1,1.33-1.72,18.24,18.24,0,0,1,7.58-4.63,29.27,29.27,0,0,1,9.06-1.48,35.38,35.38,0,0,1,11.26,1.77,44.61,44.61,0,0,0-9.5-3.34,55.44,55.44,0,0,0-11.52-1.28A44,44,0,0,0,200.7,60a34.36,34.36,0,0,0-3.92,2,24,24,0,0,0-2.61,7A45.84,45.84,0,0,1,208.07,67Z"/><path class="cls-3" d="M367.42,77.66v50.78c3.49-4.49,5.34-10.52,5.34-18.3V59.5A8.61,8.61,0,0,0,370.1,59a7.58,7.58,0,0,0-5.72,2.26,8.09,8.09,0,0,0-2.17,5.82v2.94a7.1,7.1,0,0,1,3.05,1.79A8.12,8.12,0,0,1,367.42,77.66Z"/><path class="cls-3" d="M299.07,77.66v53.57q0,13.4,6.89,20.3t19.32,6.89c8.19,0,14.54-2.22,19.12-6.6-12.19-.35-21.83-3.94-28.85-10.86Q304.42,130,304.41,110.14V59.5a8.67,8.67,0,0,0-2.66-.47,7.61,7.61,0,0,0-5.61,2.26,7.84,7.84,0,0,0-2.28,5.82v2.94a7.1,7.1,0,0,1,3.05,1.79A8.12,8.12,0,0,1,299.07,77.66Z"/><path class="cls-3" d="M361.21,156a33.64,33.64,0,0,0,10.54-10.54,37.25,37.25,0,0,1-7.13,3.52A36.22,36.22,0,0,1,361.21,156Z"/><path class="cls-4" d="M378,67.11a8.09,8.09,0,0,0-2.17-5.82,7,7,0,0,0-3-1.79v50.64c0,7.78-1.85,13.81-5.34,18.3v2.79a51.71,51.71,0,0,1-2.8,17.71,37.25,37.25,0,0,0,7.13-3.52q6.22-9.87,6.22-24.74Z"/><path class="cls-4" d="M315.55,141c7,6.92,16.66,10.51,28.85,10.86.11-.11.26-.18.37-.29a21.15,21.15,0,0,0,4.14-6.29,31.11,31.11,0,0,1-13.08,2.63q-12.4,0-19.32-6.89t-6.89-20.3V67.11a8.09,8.09,0,0,0-2.17-5.82,7.06,7.06,0,0,0-3-1.79v50.64Q304.41,130,315.55,141Z"/><path class="cls-3" d="M449.07,63.79c-.28.19-.6.34-.87.53v.87C448.47,64.72,448.76,64.25,449.07,63.79Z"/><path class="cls-3" d="M463.68,147.55a29.32,29.32,0,0,1-10.76-4.41,32.64,32.64,0,0,1-4.72-4v4.07a8.14,8.14,0,0,1-2.17,5.7,6.91,6.91,0,0,1-3.18,1.89,49.25,49.25,0,0,0,4.35,3.64,43,43,0,0,0,5.94,3.63,33.39,33.39,0,0,0,6.66.72,30,30,0,0,0,17.34-5.13c.76-.52,1.45-1.12,2.15-1.7a39.58,39.58,0,0,1-9.92-2A48.4,48.4,0,0,1,463.68,147.55Z"/><path class="cls-3" d="M427.1,33.74V86.28a33.72,33.72,0,0,1,1.87-3,37.88,37.88,0,0,1,3.47-4V15.6a8.38,8.38,0,0,0-2.66-.49,7.43,7.43,0,0,0-5.61,2.36,7.92,7.92,0,0,0-2.28,5.72v3A7,7,0,0,1,424.94,28,8.18,8.18,0,0,1,427.1,33.74Z"/><path class="cls-3" d="M502.13,147.93a53.38,53.38,0,0,1-4.22,6.66A48.42,48.42,0,0,0,508.46,144c-.56.41-1.08.88-1.66,1.26A40,40,0,0,1,502.13,147.93Z"/><path class="cls-3" d="M427.9,156.64c-.31-.39-.51-.8-.8-1.2v5.92a7.31,7.31,0,0,0,5.21,0A39.85,39.85,0,0,1,427.9,156.64Z"/><path class="cls-3" d="M430.55,100.21a43.6,43.6,0,0,0-4.24,19.61,45.5,45.5,0,0,0,4.24,19.89,36,36,0,0,0,1.89,3.41V96.91A35.35,35.35,0,0,0,430.55,100.21Z"/><path class="cls-3" d="M485.61,73.81a48.48,48.48,0,0,1,16.85,18.63q6.19,11.81,6.2,27.38c0,.48-.06.92-.07,1.39.5-.85,1-1.68,1.46-2.59a44.78,44.78,0,0,0,4.33-19.9,42.77,42.77,0,0,0-4.33-19.6,35.25,35.25,0,0,0-11.81-13.6,30.39,30.39,0,0,0-17.34-5,30.77,30.77,0,0,0-17.43,5c-.69.46-1.31,1-2,1.5h.07A43.75,43.75,0,0,1,485.61,73.81Z"/><path class="cls-4" d="M437.44,75c.06,0,.14-.08.21-.13V23.19a8.16,8.16,0,0,0-2.17-5.72,6.94,6.94,0,0,0-3-1.87V79.32A42.07,42.07,0,0,1,437.44,75Z"/><path class="cls-4" d="M513,81.89a48.35,48.35,0,0,0-16.84-18.62,43.76,43.76,0,0,0-24-6.8,38.51,38.51,0,0,0-12.91,2.18,43.79,43.79,0,0,0-10.15,5.14c-.31.46-.6.93-.87,1.4v-.87c-.07.05-.15.08-.21.13a39.88,39.88,0,0,0-8.47,8.27c-.39.53-.65,1.08-1,1.62a43.42,43.42,0,0,1,7.22-3.89c.82-.35,1.61-.74,2.46-1,.16-.06.31-.14.48-.2A38.51,38.51,0,0,1,461.51,67c.65-.5,1.27-1,2-1.5a30.77,30.77,0,0,1,17.43-5,30.39,30.39,0,0,1,17.34,5,35.25,35.25,0,0,1,11.81,13.6,42.77,42.77,0,0,1,4.33,19.6,44.78,44.78,0,0,1-4.33,19.9c-.45.91-1,1.74-1.46,2.59-.18,9.79-2.19,18.53-6.13,26.18-.1.19-.23.35-.33.54a40,40,0,0,0,4.67-2.63c.58-.38,1.1-.85,1.66-1.26a53.88,53.88,0,0,0,4.54-7.2q6.21-12,6.21-27.57T513,81.89Z"/><path class="cls-4" d="M441.09,129.16a45.64,45.64,0,0,1-4.23-19.89,43.66,43.66,0,0,1,4.23-19.6,36.88,36.88,0,0,1,2-3.43c-.23.14-.47.24-.68.38a33.34,33.34,0,0,0-9.94,10.29v46.21a33.93,33.93,0,0,0,5.21,6.6v-4.83c.29.4.49.81.8,1.2a40.6,40.6,0,0,0,4.4,4.74,6.91,6.91,0,0,0,3.18-1.89,8.14,8.14,0,0,0,2.17-5.7v-4.07A35.59,35.59,0,0,1,441.09,129.16Z"/><path class="cls-3" d="M486.7,143.72a30.15,30.15,0,0,1-16.35,4.55,33.57,33.57,0,0,1-6.67-.72,48.4,48.4,0,0,0,5.69,2.48,39.58,39.58,0,0,0,9.92,2A34.62,34.62,0,0,0,486.7,143.72Z"/><path class="cls-3" d="M616,150a24,24,0,0,1-2.52,6.93,30.8,30.8,0,0,0,8.59-7.53,24.34,24.34,0,0,0,2-3,36,36,0,0,1-4.91,2.52C618.05,149.27,617,149.61,616,150Z"/><path class="cls-3" d="M590.22,60.8a18.17,18.17,0,0,0-7.58,4.63,9.29,9.29,0,0,0-1.33,1.72,57,57,0,0,1,9.18,1.15A44.34,44.34,0,0,1,600,71.64c.83.27,1.65.55,2.44.89A28.08,28.08,0,0,1,613,80.31a6.35,6.35,0,0,0,4.43,1.87,7.57,7.57,0,0,0,4.82-1.47,6.32,6.32,0,0,0,2.57-5.33,7.92,7.92,0,0,0-2-4.92,32.89,32.89,0,0,0-10-8.36c-.73-.4-1.49-.66-2.23-1a35.32,35.32,0,0,0-11.25-1.77A29.17,29.17,0,0,0,590.22,60.8Z"/><path class="cls-3" d="M558.48,95.39a12.42,12.42,0,0,0,3.56,8.67,24.1,24.1,0,0,0,9.05,5.4c3.8,1.38,8,2.74,12.6,4q6.3,1.59,12.12,3.66a42.23,42.23,0,0,1,10.53,5.42,23.9,23.9,0,0,1,7.49,8.56,21.81,21.81,0,0,1,1.83,5,17.6,17.6,0,0,0,4.41-3.25,12.87,12.87,0,0,0,3.23-9.17A11.6,11.6,0,0,0,620,115a25.34,25.34,0,0,0-8.75-5.31A112.86,112.86,0,0,0,599.68,106c-4.35-1.19-8.61-2.48-12.81-3.94a46.72,46.72,0,0,1-11.32-5.61,26.86,26.86,0,0,1-8.08-8.66,21.06,21.06,0,0,1-1.82-4.31,17.22,17.22,0,0,0-4.11,3C559.5,88.63,558.48,91.57,558.48,95.39Z"/><path class="cls-3" d="M563.06,155.85c.38.23.75.48,1.14.69q7.09,3.86,17.33,3.85a40.81,40.81,0,0,0,9.36-1.57A17.65,17.65,0,0,0,599,154a11.63,11.63,0,0,0,1.32-1.73,60.05,60.05,0,0,1-20.71-4,37.63,37.63,0,0,1-6-2.95,39.75,39.75,0,0,1-3.87-2.55l-.09-.07a46,46,0,0,1-7.52-7,7.24,7.24,0,0,0-4.82-2.57,7.75,7.75,0,0,0-4.83,1.19c-2.1,1.44-3.17,3.12-3.23,5a9.32,9.32,0,0,0,1.47,5.42,45.49,45.49,0,0,0,8.38,8.52l.09.07A38.53,38.53,0,0,0,563.06,155.85Z"/><path class="cls-3" d="M565.06,69.07a24.53,24.53,0,0,1,2.61-7,30.39,30.39,0,0,0-9,8,23.81,23.81,0,0,0-1.56,2.52,35.85,35.85,0,0,1,3.91-2A38.09,38.09,0,0,1,565.06,69.07Z"/><path class="cls-4" d="M624.38,120.59a24,24,0,0,0-7.49-8.56,42.23,42.23,0,0,0-10.53-5.42q-5.82-2.07-12.12-3.65c-4.6-1.3-8.8-2.67-12.6-4a24.17,24.17,0,0,1-9-5.41A12.42,12.42,0,0,1,569,84.84a17.61,17.61,0,0,1,.26-3l-.17,0a20,20,0,0,0-3.47,1.59,21.06,21.06,0,0,0,1.82,4.31,26.86,26.86,0,0,0,8.08,8.66,46.72,46.72,0,0,0,11.32,5.61c4.2,1.46,8.46,2.75,12.81,3.94a112.86,112.86,0,0,1,11.52,3.65A25.34,25.34,0,0,1,620,115a11.6,11.6,0,0,1,3.35,8.77,12.87,12.87,0,0,1-3.23,9.17,17.6,17.6,0,0,1-4.41,3.25,33.91,33.91,0,0,1,.93,8.08A27.84,27.84,0,0,1,616,150c1-.34,2.1-.68,3.12-1.1a36,36,0,0,0,4.91-2.52,25.42,25.42,0,0,0,3.16-12.65Q627.14,125.82,624.38,120.59Z"/><path class="cls-4" d="M601.44,148.27a40.81,40.81,0,0,1-9.36,1.57q-10.25,0-17.33-3.85c-.39-.21-.76-.46-1.14-.69a37.63,37.63,0,0,0,6,2.95,60.05,60.05,0,0,0,20.71,4,12.37,12.37,0,0,0,1.58-4.17C601.72,148.13,601.6,148.23,601.44,148.27Z"/><path class="cls-4" d="M579,67c.77,0,1.57.09,2.35.13a9.29,9.29,0,0,1,1.33-1.72,18.17,18.17,0,0,1,7.58-4.63,29.17,29.17,0,0,1,9.06-1.48,35.32,35.32,0,0,1,11.25,1.77A44.53,44.53,0,0,0,601,57.75a55.53,55.53,0,0,0-11.53-1.28A44.07,44.07,0,0,0,571.59,60a34.36,34.36,0,0,0-3.92,2,24.53,24.53,0,0,0-2.61,7A45.89,45.89,0,0,1,579,67Z"/><path class="cls-3" d="M569.65,142.68l.09.07Z"/><path class="cls-3" d="M761.25,71.52s0,0,0-.08a52.45,52.45,0,0,1,4.09-6.55,46.73,46.73,0,0,0-10.55,10.55c.74-.53,1.43-1.13,2.21-1.63A46.59,46.59,0,0,1,761.25,71.52Z"/><path class="cls-3" d="M815.29,155.22l.24-.17v-.17C815.46,155,815.36,155.11,815.29,155.22Z"/><path class="cls-3" d="M761.29,126.29a58.75,58.75,0,0,1-6.21-27.38c0-.38.06-.74.06-1.12-.49.83-1,1.64-1.45,2.52a43.34,43.34,0,0,0-4.35,19.7,44,44,0,0,0,4.35,19.8,35.19,35.19,0,0,0,11.91,13.88,30.1,30.1,0,0,0,17.23,5.13,30.47,30.47,0,0,0,17.44-5.13c.64-.43,1.21-.94,1.82-1.41a43,43,0,0,1-24-7A49.07,49.07,0,0,1,761.29,126.29Z"/><path class="cls-3" d="M801.07,72a29.33,29.33,0,0,1,9.75,4.18,34.27,34.27,0,0,1,4.71,3.94V76.47a7.8,7.8,0,0,1,2.17-5.61,7.17,7.17,0,0,1,4.09-2c-.71-.72-1.32-1.49-2.11-2.18a40.11,40.11,0,0,0-8.06-5.26,33.12,33.12,0,0,0-7.69-.94,30.44,30.44,0,0,0-17.23,5c-.77.51-1.46,1.1-2.17,1.66a43.22,43.22,0,0,1,11.89,2.59A44.29,44.29,0,0,1,801.07,72Z"/><path class="cls-3" d="M836.63,58.53a8.67,8.67,0,0,0-2.66-.47,9.24,9.24,0,0,0-1.63.28,38.19,38.19,0,0,1,4.29,5.17Z"/><path class="cls-3" d="M831.29,122.09a36.76,36.76,0,0,0,1.89-3.38,45,45,0,0,0,4.23-19.8,43.89,43.89,0,0,0-4.23-19.5,36.62,36.62,0,0,0-2-3.53c0,.21.11.38.11.59Z"/><path class="cls-3" d="M836.63,142.24v-8.46a37.08,37.08,0,0,1-5.34,6.41v20.19a8.45,8.45,0,0,0,2.68.49,7.49,7.49,0,0,0,5.61-2.36,8,8,0,0,0,2.26-5.72v-3a7,7,0,0,1-3.05-1.86A8.2,8.2,0,0,1,836.63,142.24Z"/><path class="cls-4" d="M761.25,71.52A43.22,43.22,0,0,1,780.67,67c1.31,0,2.59.06,3.86.16.71-.56,1.4-1.15,2.17-1.66a30.44,30.44,0,0,1,17.23-5,33.12,33.12,0,0,1,7.69.94A42.38,42.38,0,0,0,807,59.23a44.3,44.3,0,0,0-15.75-2.76,43,43,0,0,0-23.63,6.8c-.78.49-1.47,1.09-2.21,1.62a52.45,52.45,0,0,0-4.09,6.55S761.27,71.5,761.25,71.52Z"/><path class="cls-4" d="M839.67,60.32a7,7,0,0,0-3-1.79v5a38.19,38.19,0,0,0-4.29-5.17,7.25,7.25,0,0,0-4.1,2,7.8,7.8,0,0,0-2.16,5.61v3.14a7,7,0,0,1,3,1.79,7.68,7.68,0,0,1,2.06,5,36.62,36.62,0,0,1,2,3.53,43.89,43.89,0,0,1,4.23,19.5,45,45,0,0,1-4.23,19.8,36.76,36.76,0,0,1-1.89,3.38v18.1a37.08,37.08,0,0,0,5.34-6.41v8.46a8.2,8.2,0,0,0,2.16,5.73,7,7,0,0,0,3.05,1.86V65.93A7.76,7.76,0,0,0,839.67,60.32Z"/><path class="cls-4" d="M809.93,143.65a30.51,30.51,0,0,1-16.55,4.62,30,30,0,0,1-17.23-5.13,35.19,35.19,0,0,1-11.91-13.88,44,44,0,0,1-4.35-19.8,43.37,43.37,0,0,1,4.35-19.7,38.72,38.72,0,0,1,2-3.51c-.22.13-.46.23-.67.37a34.17,34.17,0,0,0-10.46,11.17c0,.38-.06.74-.06,1.12a58.75,58.75,0,0,0,6.21,27.38,49.07,49.07,0,0,0,16.85,19,43,43,0,0,0,24,7A33.9,33.9,0,0,0,809.93,143.65Z"/><path class="cls-3" d="M981.79,142.24V57.94a7.64,7.64,0,0,0-2.47-.48,7.75,7.75,0,0,0-5.81,2.36,8,8,0,0,0-2.26,5.72v2.94a7.47,7.47,0,0,1,3.14,1.89,8,8,0,0,1,2.26,5.72v84.29a8.44,8.44,0,0,0,2.67.49,7.42,7.42,0,0,0,5.61-2.36,8,8,0,0,0,2.26-5.72v-3a7.53,7.53,0,0,1-3.14-1.86A8,8,0,0,1,981.79,142.24Z"/><path class="cls-3" d="M980,25.64v-.25c-.24,0-.45,0-.71,0-3.15,0-5.57.65-7.29,2s-2.55,3.35-2.55,6.1v2.51c2.79.1,4.93.73,6.38,1.94s2.37,3.35,2.37,6.1v.24c.31,0,.58.05.9.05,3.14,0,5.55-.66,7.18-2s2.47-3.35,2.47-6.11V33.67c-2.81-.11-5-.73-6.39-1.92Q980,29.79,980,25.64Z"/><path class="cls-4" d="M986.41,27.33c-1.45-1.21-3.59-1.84-6.38-1.94v.25q0,4.14,2.36,6.11c1.41,1.19,3.58,1.81,6.39,1.92v-.24C988.78,30.68,988,28.64,986.41,27.33Z"/><path class="cls-4" d="M984.93,59.82a7.23,7.23,0,0,0-3.14-1.88v84.3a8,8,0,0,0,2.26,5.73,7.53,7.53,0,0,0,3.14,1.86V65.54A8,8,0,0,0,984.93,59.82Z"/><path class="cls-3" d="M1040.66,72.83c.19-.36.32-.75.52-1.1a55.18,55.18,0,0,1,3.5-5.38,49.78,49.78,0,0,0-10.55,10.55c1.41-1,2.84-2.08,4.37-3C1039.2,73.5,1040,73.2,1040.66,72.83Z"/><path class="cls-3" d="M1109.26,146.64c-.17.31-.28.64-.45.94a52.43,52.43,0,0,1-3.53,5.52,48.82,48.82,0,0,0,10.54-10.55c-1.33,1-2.67,2-4.12,2.85C1110.91,145.87,1110.07,146.22,1109.26,146.64Z"/><path class="cls-3" d="M1108.81,92.83a55.14,55.14,0,0,1,6.7,27.33c.23-.4.49-.75.71-1.16a41.51,41.51,0,0,0,4.63-19.89,41.33,41.33,0,0,0-4.63-20,36,36,0,0,0-12.6-13.6,34.77,34.77,0,0,0-36,0c-.76.48-1.45,1-2.17,1.56a49.1,49.1,0,0,1,43.32,25.75Z"/><path class="cls-3" d="M1041.18,126.49a54.58,54.58,0,0,1-6.78-27.13c-.17.3-.37.56-.53.85a41.38,41.38,0,0,0-4.63,20,41.52,41.52,0,0,0,4.63,19.9,35.36,35.36,0,0,0,12.7,13.69,34.63,34.63,0,0,0,36,0c.76-.48,1.43-1,2.14-1.55a49.74,49.74,0,0,1-25.06-6.84A50.3,50.3,0,0,1,1041.18,126.49Z"/><path class="cls-4" d="M1093.3,143.07l-.23.17a34.63,34.63,0,0,1-36,0,35.29,35.29,0,0,1-12.7-13.69,41.51,41.51,0,0,1-4.63-19.89,41.33,41.33,0,0,1,4.63-20c.52-1,1.11-1.83,1.69-2.72a35.55,35.55,0,0,0-11.71,12.41,54.58,54.58,0,0,0,6.78,27.13,50.3,50.3,0,0,0,18.42,18.91,49.74,49.74,0,0,0,25.06,6.84A35.15,35.15,0,0,0,1093.3,143.07Z"/><path class="cls-4" d="M1126.06,109.66a55.2,55.2,0,0,0-6.7-27.38,51.43,51.43,0,0,0-70.31-18.92,51.75,51.75,0,0,0-4.37,3,55.18,55.18,0,0,0-3.5,5.38c-.2.35-.33.74-.52,1.1A50.29,50.29,0,0,1,1064.51,67c.33,0,.65,0,1,.06.72-.53,1.41-1.08,2.17-1.56a34.77,34.77,0,0,1,36,0,36,36,0,0,1,12.6,13.6,41.33,41.33,0,0,1,4.63,20,41.51,41.51,0,0,1-4.63,19.89c-.22.41-.48.76-.71,1.16v0a55.39,55.39,0,0,1-6.25,26.44c.81-.42,1.65-.77,2.44-1.24,1.45-.87,2.79-1.86,4.12-2.85a50.93,50.93,0,0,0,3.54-5.52A55.14,55.14,0,0,0,1126.06,109.66Z"/><path class="cls-3" d="M1244.36,142.24V87.49a38.88,38.88,0,0,0-2.26-13.6,19.93,19.93,0,0,0-7.6-9.74q-5.31-3.63-14.17-3.64a31,31,0,0,0-19.77,6.65c1-.09,2.12-.14,3.2-.14,8.92,0,16,1.84,21.07,5.51a30,30,0,0,1,10.94,14.78A63,63,0,0,1,1239,108.2v52.18a8.38,8.38,0,0,0,2.66.49,7.47,7.47,0,0,0,5.63-2.36,8,8,0,0,0,2.26-5.72v-3a7,7,0,0,1-3-1.86A8.2,8.2,0,0,1,1244.36,142.24Z"/><path class="cls-3" d="M1174.23,142.24V93.43c-.4.52-.83,1-1.2,1.56a23.7,23.7,0,0,0-4.14,13.59v51.78a7.74,7.74,0,0,0,2.68.51,7.44,7.44,0,0,0,5.61-2.36,8,8,0,0,0,2.26-5.72v-3a7.53,7.53,0,0,1-2.93-1.84A7.92,7.92,0,0,1,1174.23,142.24Z"/><path class="cls-3" d="M1168.89,77.66v8.73c.2-.32.38-.63.59-1a40,40,0,0,1,4.75-5.63V59.5a8.61,8.61,0,0,0-2.66-.47,7.61,7.61,0,0,0-5.61,2.26,7.88,7.88,0,0,0-2.28,5.82v2.94a7.1,7.1,0,0,1,3,1.79A8.12,8.12,0,0,1,1168.89,77.66Z"/><path class="cls-3" d="M1190.49,64.48c-.16.12-.34.22-.5.34v.48C1190.16,65,1190.31,64.76,1190.49,64.48Z"/><path class="cls-4" d="M1178.35,76.09c.34-.27.74-.47,1.09-.72V67.11a8.12,8.12,0,0,0-2.16-5.82,7.1,7.1,0,0,0-3-1.79V79.81A44.73,44.73,0,0,1,1178.35,76.09Z"/><path class="cls-4" d="M1182.6,86.13a30,30,0,0,0-8.37,7.3v48.81a7.92,7.92,0,0,0,2.28,5.73,7.53,7.53,0,0,0,2.93,1.84V98A23.74,23.74,0,0,1,1182.6,86.13Z"/><path class="cls-4" d="M1246.32,76.76A30,30,0,0,0,1235.38,62q-7.67-5.5-21.08-5.51a38.14,38.14,0,0,0-13.59,2.47,45.17,45.17,0,0,0-10.22,5.54c-.18.28-.33.55-.5.82v-.48c-.35.26-.75.45-1.09.72a41.21,41.21,0,0,0-8.87,9.35l-.09.14a44.88,44.88,0,0,1,7.23-4.15c.94-.44,1.84-.94,2.82-1.31l.17-.08a37.89,37.89,0,0,1,10.4-2.33,31,31,0,0,1,19.77-6.65q8.85,0,14.17,3.64a19.93,19.93,0,0,1,7.6,9.74,38.88,38.88,0,0,1,2.26,13.6v54.75a8.2,8.2,0,0,0,2.16,5.73,7,7,0,0,0,3,1.86V97.65A63,63,0,0,0,1246.32,76.76Z"/><path class="cls-5" d="M201.79,125.11l.22.24c1.9.57,3.75,1.22,5.67,1.75a107.56,107.56,0,0,1,11.53,3.65,25.28,25.28,0,0,1,8.75,5.31,10.27,10.27,0,0,1,2.18,3.16c.54,0,1,.07,1.59.07a39.75,39.75,0,0,0,9.36-1.57c.16,0,.28-.13.43-.18a16.89,16.89,0,0,0,.34-3.26,11.63,11.63,0,0,0-3.35-8.77,25.38,25.38,0,0,0-8.75-5.31,110.62,110.62,0,0,0-11.53-3.65c-4.34-1.19-8.61-2.49-12.81-3.94A46.13,46.13,0,0,1,194.11,107,26.62,26.62,0,0,1,186,98.34,25.18,25.18,0,0,1,183,85.43a25.69,25.69,0,0,1,3.26-12.85,30.6,30.6,0,0,0-9,8A25.19,25.19,0,0,0,172.42,96a25.18,25.18,0,0,0,3.06,12.91,26.72,26.72,0,0,0,8.08,8.65,45.61,45.61,0,0,0,10.61,5.32,7.81,7.81,0,0,1,2.79-.32A7.33,7.33,0,0,1,201.79,125.11Z"/><path class="cls-5" d="M208.94,71.3a17.61,17.61,0,0,0-.26,3,13.31,13.31,0,0,0,1.76,6.27A33,33,0,0,1,221,83.08a28.11,28.11,0,0,1,10.55,7.77,6.33,6.33,0,0,0,4.42,1.88,7.55,7.55,0,0,0,4.83-1.48,6.32,6.32,0,0,0,2.56-5.32,7.81,7.81,0,0,0-2-4.92,32.83,32.83,0,0,0-10.05-8.37c-.73-.39-1.48-.65-2.22-1a35.38,35.38,0,0,0-11.26-1.77A29.29,29.29,0,0,0,208.94,71.3Z"/><path class="cls-5" d="M219.61,162.84a60,60,0,0,1-21.48-4,38.5,38.5,0,0,1-6-3,42.33,42.33,0,0,1-3.87-2.55l-.08-.07a45.59,45.59,0,0,1-7.52-7,7.25,7.25,0,0,0-4.82-2.56,7.71,7.71,0,0,0-4.83,1.19c-2.1,1.44-3.17,3.12-3.24,5a9.32,9.32,0,0,0,1.48,5.42,41.39,41.39,0,0,0,18.3,14.09,60.18,60.18,0,0,0,21.48,4,46.83,46.83,0,0,0,18-3.45,32.12,32.12,0,0,0,13.5-10.05,23.44,23.44,0,0,0,1.95-3,35.83,35.83,0,0,1-4.9,2.52A47,47,0,0,1,219.61,162.84Z"/><path class="cls-6" d="M208.94,71.3l-.17,0A18.42,18.42,0,0,0,201.19,76a10.93,10.93,0,0,0-2.8,5.87,29.34,29.34,0,0,1,8.89-1.43c1.08,0,2.12.06,3.16.14a13.31,13.31,0,0,1-1.76-6.27A17.61,17.61,0,0,1,208.94,71.3Z"/><path class="cls-6" d="M202,125.35l-.22-.24a7.33,7.33,0,0,0-4.83-2.57,7.81,7.81,0,0,0-2.79.32c.24.09.46.21.71.29C197.22,124,199.63,124.63,202,125.35Z"/><path class="cls-6" d="M241.52,137.54c-.15.05-.27.14-.43.18a39.75,39.75,0,0,1-9.36,1.57c-.55,0-1-.06-1.59-.07a13.16,13.16,0,0,1,1.17,5.61,16.9,16.9,0,0,1-.33,3.26,17.65,17.65,0,0,0,7.64-4.64A11.74,11.74,0,0,0,241.52,137.54Z"/><path class="cls-5" d="M188.21,153.23l.08.07Z"/><path class="cls-7" d="M230.16,152.29c-.26,0-.51,0-.77,0a10.42,10.42,0,0,1-1.32,1.73,17.67,17.67,0,0,1-8.07,4.83,41,41,0,0,1-9.37,1.57q-10.24,0-17.32-3.85c-.4-.21-.76-.46-1.15-.69a38.5,38.5,0,0,0,6,3,60,60,0,0,0,21.48,4,47,47,0,0,0,18-3.44,35.83,35.83,0,0,0,4.9-2.52,24,24,0,0,0,2.53-6.93A47.73,47.73,0,0,1,230.16,152.29Z"/><path class="cls-7" d="M210.41,67.15a11.81,11.81,0,0,0-1.47,4.15,29.29,29.29,0,0,1,8.89-1.43,35.38,35.38,0,0,1,11.26,1.77,44.42,44.42,0,0,0-9.5-3.34A57,57,0,0,0,210.41,67.15Z"/><path class="cls-7" d="M186,98.34a26.62,26.62,0,0,0,8.08,8.65,46.13,46.13,0,0,0,11.31,5.62c4.2,1.45,8.47,2.75,12.81,3.94a110.62,110.62,0,0,1,11.53,3.65,25.38,25.38,0,0,1,8.75,5.31,11.63,11.63,0,0,1,3.35,8.77,16.89,16.89,0,0,1-.34,3.26,19.63,19.63,0,0,0,3.24-1.39,21.36,21.36,0,0,0-1.83-5,23.78,23.78,0,0,0-7.48-8.56,42.23,42.23,0,0,0-10.53-5.42q-5.82-2.07-12.12-3.66c-4.6-1.3-8.8-2.66-12.6-4a24.07,24.07,0,0,1-9.06-5.4,12.51,12.51,0,0,1-3.56-8.67c0-3.82,1-6.76,3.06-8.86a17.28,17.28,0,0,1,4.12-3,28.58,28.58,0,0,1-1.24-8.59,28,28,0,0,1,.65-5.82,36.5,36.5,0,0,0-4,1.51,36,36,0,0,0-3.92,2A25.69,25.69,0,0,0,183,85.43,25.18,25.18,0,0,0,186,98.34Z"/><path class="cls-8" d="M238.62,143.45a17.65,17.65,0,0,1-7.64,4.64,12.38,12.38,0,0,1-1.59,4.17c.26,0,.51,0,.77,0a47.73,47.73,0,0,0,14.9-2.34,28.55,28.55,0,0,0,.63-5.72,33.4,33.4,0,0,0-.93-8.08,19.63,19.63,0,0,1-3.24,1.39A11.74,11.74,0,0,1,238.62,143.45Z"/><path class="cls-8" d="M208.77,71.34l.17,0a11.81,11.81,0,0,1,1.47-4.15c-.78,0-1.58-.13-2.34-.13a45.84,45.84,0,0,0-13.9,2,28,28,0,0,0-.65,5.82,28.58,28.58,0,0,0,1.24,8.59,19.32,19.32,0,0,1,3.47-1.59l.16,0a10.93,10.93,0,0,1,2.8-5.87A18.42,18.42,0,0,1,208.77,71.34Z"/><path class="cls-5" d="M305,151.51q-11.13-10.92-11.14-30.83V70.05a8.61,8.61,0,0,0-2.66-.47,7.62,7.62,0,0,0-5.61,2.26,7.88,7.88,0,0,0-2.28,5.82v53.57q0,19.92,11.14,30.83T325.28,173q19.88,0,31-10.93a33.58,33.58,0,0,0,4.91-6.1c-6.75,4.31-15.19,6.48-25.38,6.48Q316.11,162.44,305,151.51Z"/><path class="cls-5" d="M362.21,120.68V70.05a8.61,8.61,0,0,0-2.66-.47,7.58,7.58,0,0,0-5.72,2.26,8.09,8.09,0,0,0-2.17,5.82v53.57a43.28,43.28,0,0,1-.39,5.74,27.92,27.92,0,0,0,8.19-2.28A33.4,33.4,0,0,0,362.21,120.68Z"/><path class="cls-6" d="M355.32,141a21.15,21.15,0,0,0,4.14-6.29,27.92,27.92,0,0,1-8.19,2.28,28.66,28.66,0,0,1-2.36,8.27A21.68,21.68,0,0,0,355.32,141Z"/><path class="cls-7" d="M359.46,134.69a21.81,21.81,0,0,0,6.41-4.26,20.34,20.34,0,0,0,1.55-2V77.66a8.12,8.12,0,0,0-2.16-5.82,7.1,7.1,0,0,0-3.05-1.79v50.63A33.4,33.4,0,0,1,359.46,134.69Z"/><path class="cls-7" d="M346.38,151.89c-.68,0-1.32,0-2-.07-4.58,4.38-10.93,6.6-19.12,6.6s-14.72-2.29-19.32-6.89-6.89-11.37-6.89-20.3V77.66a8.12,8.12,0,0,0-2.16-5.82,7.1,7.1,0,0,0-3.05-1.79v50.63q0,19.92,11.14,30.83t30.83,10.93c10.19,0,18.63-2.17,25.38-6.48a36.22,36.22,0,0,0,3.41-7A52.58,52.58,0,0,1,346.38,151.89Z"/><path class="cls-8" d="M359.46,134.69a21.15,21.15,0,0,1-4.14,6.29,21.68,21.68,0,0,1-6.41,4.26,21.15,21.15,0,0,1-4.14,6.29c-.11.11-.26.18-.37.29.66,0,1.3.07,2,.07a52.58,52.58,0,0,0,18.24-2.95,51.71,51.71,0,0,0,2.8-17.71v-2.79a20.34,20.34,0,0,1-1.55,2A21.81,21.81,0,0,1,359.46,134.69Z"/><path class="cls-5" d="M472.51,162.84a40.79,40.79,0,0,1-13.69-2.26,47.53,47.53,0,0,1-5.68-2.48,29.42,29.42,0,0,1-10.76-4.41,32.28,32.28,0,0,1-3.39-2.63,9.62,9.62,0,0,1-1.34-.25v3a8.11,8.11,0,0,1-2.17,5.7,6.93,6.93,0,0,1-3.17,1.89,47.69,47.69,0,0,0,4.34,3.64,45.3,45.3,0,0,0,11.62,6.11A40.79,40.79,0,0,0,462,173.39a41.9,41.9,0,0,0,23.74-7,48.05,48.05,0,0,0,12.21-11.81c-.56.41-1.07.88-1.66,1.26A41.9,41.9,0,0,1,472.51,162.84Z"/><path class="cls-5" d="M450,83.05a33.12,33.12,0,0,1,9.8-1.45,30.39,30.39,0,0,1,17.34,5A35.24,35.24,0,0,1,489,100.21a43,43,0,0,1,4.33,19.61,45.94,45.94,0,0,1-3,16.55,28.68,28.68,0,0,0,6.9-3.2,43,43,0,0,0,2.27-4,44.84,44.84,0,0,0,4.32-19.89,42.9,42.9,0,0,0-4.32-19.6,35.28,35.28,0,0,0-11.82-13.6,30.39,30.39,0,0,0-17.34-5,30.93,30.93,0,0,0-16.75,4.63,33.17,33.17,0,0,0-3.6,7.36Z"/><path class="cls-5" d="M421.89,153.79V26.15a8.33,8.33,0,0,0-2.66-.49A7.43,7.43,0,0,0,413.62,28a7.94,7.94,0,0,0-2.28,5.72V164.33a7.84,7.84,0,0,0,2.28,5.81,7.61,7.61,0,0,0,5.61,2.26,7.42,7.42,0,0,0,5.71-2.36,8.16,8.16,0,0,0,2.16-5.71v-3a7.47,7.47,0,0,1-2.93-1.77A7.8,7.8,0,0,1,421.89,153.79Z"/><path class="cls-6" d="M438.52,74.34c-.28.19-.6.34-.87.53v.86C437.92,75.27,438.21,74.8,438.52,74.34Z"/><path class="cls-6" d="M489,139.71a40.79,40.79,0,0,1-2.26,4c.32-.21.67-.36,1-.58a34.19,34.19,0,0,0,9.55-10,28.68,28.68,0,0,1-6.9,3.2C489.91,137.5,489.49,138.63,489,139.71Z"/><path class="cls-6" d="M437.65,149.72v1.09a9.62,9.62,0,0,0,1.34.25C438.52,150.64,438.1,150.17,437.65,149.72Z"/><path class="cls-6" d="M451.64,79.12a39.22,39.22,0,0,1,2-3.43c-.22.14-.46.24-.68.38a33.58,33.58,0,0,0-9.86,10.17A28.89,28.89,0,0,1,450,83.05,39.12,39.12,0,0,1,451.64,79.12Z"/><path class="cls-7" d="M483.06,152.29c-1.29,0-2.51-.19-3.77-.3-.7.58-1.39,1.18-2.15,1.7a30,30,0,0,1-17.34,5.13,33.39,33.39,0,0,1-6.66-.72,47.53,47.53,0,0,0,5.68,2.48,40.79,40.79,0,0,0,13.69,2.26,41.9,41.9,0,0,0,23.74-7c.59-.38,1.1-.85,1.66-1.26a53.38,53.38,0,0,0,4.22-6.66A42.35,42.35,0,0,1,483.06,152.29Z"/><path class="cls-7" d="M453.6,75.69a30.93,30.93,0,0,1,16.75-4.63,30.39,30.39,0,0,1,17.34,5,35.28,35.28,0,0,1,11.82,13.6,42.9,42.9,0,0,1,4.32,19.6,44.84,44.84,0,0,1-4.32,19.89,43,43,0,0,1-2.27,4c.33-.21.68-.36,1-.58a34.72,34.72,0,0,0,10.35-11.38c0-.47.07-.91.07-1.39q0-15.55-6.2-27.38a48.48,48.48,0,0,0-16.85-18.63,43.75,43.75,0,0,0-24-6.79h-.07A33.45,33.45,0,0,0,453.6,75.69Z"/><path class="cls-7" d="M434.71,149a7.83,7.83,0,0,1-2.27-5.8v-.12a36,36,0,0,1-1.89-3.41,45.5,45.5,0,0,1-4.24-19.89,43.6,43.6,0,0,1,4.24-19.61,35.35,35.35,0,0,1,1.89-3.3V79.32a37.88,37.88,0,0,0-3.47,4,33.72,33.72,0,0,0-1.87,3V33.74A8.18,8.18,0,0,0,424.94,28a7,7,0,0,0-3.05-1.87V153.79a7.8,7.8,0,0,0,2.28,5.8,7.47,7.47,0,0,0,2.93,1.77v-5.92c.29.4.49.81.8,1.2a39.85,39.85,0,0,0,4.41,4.74,6.93,6.93,0,0,0,3.17-1.89,8.11,8.11,0,0,0,2.17-5.7v-3A7.51,7.51,0,0,1,434.71,149Z"/><path class="cls-8" d="M432.44,143.12v.12a7.83,7.83,0,0,0,2.27,5.8,7.51,7.51,0,0,0,2.94,1.77v-1.09A33.93,33.93,0,0,1,432.44,143.12Z"/><path class="cls-8" d="M448.68,69.2c-.17.06-.32.14-.48.2-.85.31-1.64.7-2.46,1a43.42,43.42,0,0,0-7.22,3.89c-.31.46-.6.93-.87,1.39v-.86c-.07,0-.15.08-.21.13a42.07,42.07,0,0,0-5,4.32V96.91a33.34,33.34,0,0,1,9.94-10.29c.21-.14.45-.24.68-.38a33.58,33.58,0,0,1,9.86-10.17c.22-.14.46-.24.68-.38A33.45,33.45,0,0,1,461.51,67,38.51,38.51,0,0,0,448.68,69.2Z"/><path class="cls-8" d="M498.24,132.59c-.32.22-.67.37-1,.58a34.19,34.19,0,0,1-9.55,10c-.32.22-.67.37-1,.58a34.62,34.62,0,0,1-7.41,8.27c1.26.11,2.48.3,3.77.3a42.35,42.35,0,0,0,19.07-4.36c.1-.19.23-.35.33-.54,3.94-7.65,6-16.39,6.13-26.18A34.72,34.72,0,0,1,498.24,132.59Z"/><path class="cls-5" d="M572.68,125.11l.23.24c1.89.57,3.75,1.22,5.67,1.75a109,109,0,0,1,11.53,3.65,25.38,25.38,0,0,1,8.75,5.31,10.45,10.45,0,0,1,2.18,3.16c.53,0,1,.07,1.59.07a39.75,39.75,0,0,0,9.36-1.57c.15,0,.28-.13.43-.18a16.89,16.89,0,0,0,.34-3.26,11.63,11.63,0,0,0-3.35-8.77,25.33,25.33,0,0,0-8.76-5.31,110.42,110.42,0,0,0-11.52-3.65c-4.35-1.19-8.61-2.49-12.81-3.94A46.38,46.38,0,0,1,565,107a26.72,26.72,0,0,1-8.08-8.65,25.28,25.28,0,0,1-3.06-12.91,25.59,25.59,0,0,1,3.27-12.85,30.48,30.48,0,0,0-9,8A25.14,25.14,0,0,0,543.31,96a25.18,25.18,0,0,0,3.07,12.91,26.62,26.62,0,0,0,8.08,8.65,45.54,45.54,0,0,0,10.6,5.32,7.87,7.87,0,0,1,2.8-.32A7.29,7.29,0,0,1,572.68,125.11Z"/><path class="cls-5" d="M579.84,71.3a17.61,17.61,0,0,0-.26,3,13.19,13.19,0,0,0,1.75,6.27,33.09,33.09,0,0,1,10.54,2.52,28.27,28.27,0,0,1,10.55,7.77,6.33,6.33,0,0,0,4.42,1.88,7.56,7.56,0,0,0,4.83-1.48,6.32,6.32,0,0,0,2.56-5.32,7.92,7.92,0,0,0-2-4.92,33.06,33.06,0,0,0-10-8.37c-.73-.39-1.49-.65-2.23-1a35.27,35.27,0,0,0-11.25-1.77A29.29,29.29,0,0,0,579.84,71.3Z"/><path class="cls-5" d="M590.51,162.84a60,60,0,0,1-21.48-4,37.63,37.63,0,0,1-6-3,41,41,0,0,1-3.87-2.55l-.09-.07a45.14,45.14,0,0,1-7.51-7,7.27,7.27,0,0,0-4.83-2.56,7.7,7.7,0,0,0-4.82,1.19c-2.1,1.44-3.18,3.12-3.24,5a9.39,9.39,0,0,0,1.47,5.42,41.42,41.42,0,0,0,18.31,14.09,60.18,60.18,0,0,0,21.48,4,46.83,46.83,0,0,0,18-3.45,32.09,32.09,0,0,0,13.49-10.05,22.48,22.48,0,0,0,2-3,35.39,35.39,0,0,1-4.91,2.52A47,47,0,0,1,590.51,162.84Z"/><path class="cls-6" d="M579.84,71.3l-.17,0A18.29,18.29,0,0,0,572.09,76a10.79,10.79,0,0,0-2.8,5.87,29.29,29.29,0,0,1,8.89-1.43c1.07,0,2.12.06,3.15.14a13.19,13.19,0,0,1-1.75-6.27A17.61,17.61,0,0,1,579.84,71.3Z"/><path class="cls-5" d="M572.91,125.35l-.23-.24a7.29,7.29,0,0,0-4.82-2.57,7.87,7.87,0,0,0-2.8.32c.25.09.46.21.71.29C568.11,124,570.53,124.63,572.91,125.35Z"/><path class="cls-6" d="M612.42,137.54c-.15.05-.28.14-.43.18a39.75,39.75,0,0,1-9.36,1.57c-.55,0-1.06-.06-1.59-.07a13.16,13.16,0,0,1,1.17,5.61,16.89,16.89,0,0,1-.34,3.26,17.74,17.74,0,0,0,7.65-4.64A11.82,11.82,0,0,0,612.42,137.54Z"/><path class="cls-7" d="M601.06,152.29c-.26,0-.52,0-.77,0A11.63,11.63,0,0,1,599,154a17.65,17.65,0,0,1-8.08,4.83,40.81,40.81,0,0,1-9.36,1.57q-10.24,0-17.33-3.85c-.39-.21-.76-.46-1.14-.69a37.63,37.63,0,0,0,6,3,60,60,0,0,0,21.48,4,47,47,0,0,0,18-3.44,35.39,35.39,0,0,0,4.91-2.52A24,24,0,0,0,616,150,47.62,47.62,0,0,1,601.06,152.29Z"/><path class="cls-7" d="M581.31,67.15a11.81,11.81,0,0,0-1.47,4.15,29.29,29.29,0,0,1,8.89-1.43A35.27,35.27,0,0,1,600,71.64a44.34,44.34,0,0,0-9.49-3.34A57,57,0,0,0,581.31,67.15Z"/><path class="cls-7" d="M556.92,98.34A26.72,26.72,0,0,0,565,107a46.38,46.38,0,0,0,11.32,5.62c4.2,1.45,8.46,2.75,12.81,3.94a110.42,110.42,0,0,1,11.52,3.65,25.33,25.33,0,0,1,8.76,5.31,11.63,11.63,0,0,1,3.35,8.77,16.89,16.89,0,0,1-.34,3.26,20,20,0,0,0,3.24-1.39,21.81,21.81,0,0,0-1.83-5,23.9,23.9,0,0,0-7.49-8.56,42.23,42.23,0,0,0-10.53-5.42q-5.82-2.07-12.12-3.66c-4.6-1.3-8.8-2.66-12.6-4a24.1,24.1,0,0,1-9.05-5.4,12.42,12.42,0,0,1-3.56-8.67c0-3.82,1-6.76,3.06-8.86a17.22,17.22,0,0,1,4.11-3,28.63,28.63,0,0,1-.59-14.41,38.09,38.09,0,0,0-4,1.51,35.85,35.85,0,0,0-3.91,2,25.59,25.59,0,0,0-3.27,12.85A25.28,25.28,0,0,0,556.92,98.34Z"/><path class="cls-5" d="M559.1,153.23l.09.07Z"/><path class="cls-8" d="M609.52,143.45a17.74,17.74,0,0,1-7.65,4.64,12.37,12.37,0,0,1-1.58,4.17c.25,0,.51,0,.77,0A47.62,47.62,0,0,0,616,150a27.84,27.84,0,0,0,.64-5.72,33.91,33.91,0,0,0-.93-8.08,20,20,0,0,1-3.24,1.39A11.82,11.82,0,0,1,609.52,143.45Z"/><path class="cls-8" d="M579.67,71.34l.17,0a11.81,11.81,0,0,1,1.47-4.15c-.78,0-1.58-.13-2.35-.13a45.89,45.89,0,0,0-13.9,2,28.63,28.63,0,0,0,.59,14.41,20,20,0,0,1,3.47-1.59l.17,0a10.79,10.79,0,0,1,2.8-5.87A18.29,18.29,0,0,1,579.67,71.34Z"/><path class="cls-2" d="M689.19,84.75v51.1c0,3.16.46,5.51,1.37,7.1a7.31,7.31,0,0,0,3.64,3.25,12.39,12.39,0,0,0,4.44.88,8.08,8.08,0,0,0,3.45-.68,7.9,7.9,0,0,1,3.45-.69,4.81,4.81,0,0,1,3.63,1.87,6.41,6.41,0,0,1,1.34,2.59,17.22,17.22,0,0,0,6.76-2.32c2.76-1.63,4.14-3.64,4.14-6a6.92,6.92,0,0,0-1.69-4.83,4.81,4.81,0,0,0-3.64-1.87,7.88,7.88,0,0,0-3.44.69,8.11,8.11,0,0,1-3.45.69,12.61,12.61,0,0,1-4.44-.88,7.33,7.33,0,0,1-3.64-3.26c-.91-1.59-1.38-3.94-1.38-7.1V84a7.57,7.57,0,0,1-3.17.71Z"/><path class="cls-2" d="M722.88,51.24a6.92,6.92,0,0,0-5.22-2.16H699.73V30.37a8.2,8.2,0,0,0-2.16-5.72,7.17,7.17,0,0,0-5.51-2.36A8,8,0,0,0,684,30.37v2.95a7,7,0,0,1,3,1.88,8.19,8.19,0,0,1,2.17,5.72V59.63h17.92a6.92,6.92,0,0,1,5.22,2.16,7.57,7.57,0,0,1,1.2,1.86h4.13a7.08,7.08,0,0,0,5.22-2.07,6.81,6.81,0,0,0,2.07-5A7.42,7.42,0,0,0,722.88,51.24Z"/><path class="cls-3" d="M678.22,49.08H684V33.32a7.64,7.64,0,0,0-2.47-.48,8.06,8.06,0,0,0-8.08,8.08v2.95a6.86,6.86,0,0,1,3,1.88A7.93,7.93,0,0,1,678.22,49.08Z"/><path class="cls-3" d="M662.88,59.63h-2a7.57,7.57,0,0,0-5.23,2.06,6.82,6.82,0,0,0-2.26,5.23,6.6,6.6,0,0,0,.93,3.26h8.61Z"/><rect class="cls-3" x="678.64" y="63.65" width="5.34" height="6.53"/><path class="cls-3" d="M701.21,149.92a20.36,20.36,0,0,1-8-2.55,16.73,16.73,0,0,1-6.6-7.19q-2.67-5-2.66-14.08V84.75h-5.34V146.4c0,3.15.46,5.51,1.38,7.1a7.25,7.25,0,0,0,3.63,3.25,12.4,12.4,0,0,0,4.45.88,7.92,7.92,0,0,0,3.44-.69,8,8,0,0,1,3.45-.69,4.86,4.86,0,0,1,3.64,1.88,6.4,6.4,0,0,1,1.33,2.59,17.22,17.22,0,0,0,6.76-2.32c2.76-1.63,4.14-3.64,4.14-6a8.21,8.21,0,0,0-.35-2.24,20.59,20.59,0,0,1-2.5.15C706.16,150.32,703.9,150.19,701.21,149.92Z"/><path class="cls-3" d="M699.73,70.92a6.63,6.63,0,0,1,2,1.42A7,7,0,0,1,703,74.2h4.13a7.08,7.08,0,0,0,5.22-2.07,6.83,6.83,0,0,0,2.07-5,7.61,7.61,0,0,0-.87-3.46h-13.8Z"/><path class="cls-4" d="M705.54,145.71a7.9,7.9,0,0,0-3.45.69,8.08,8.08,0,0,1-3.45.68,12.39,12.39,0,0,1-4.44-.88,7.31,7.31,0,0,1-3.64-3.25c-.91-1.59-1.37-3.94-1.37-7.1V84.75H684V126.1q0,9,2.66,14.08a16.73,16.73,0,0,0,6.6,7.19,20.36,20.36,0,0,0,8,2.55c2.69.27,4.95.4,6.8.4a20.59,20.59,0,0,0,2.5-.15,6.41,6.41,0,0,0-1.34-2.59A4.81,4.81,0,0,0,705.54,145.71Z"/><path class="cls-4" d="M712.33,61.79a6.92,6.92,0,0,0-5.22-2.16H689.19V40.92A8.19,8.19,0,0,0,687,35.2a7,7,0,0,0-3-1.88V49.08h-5.76a8.8,8.8,0,0,1,.42,2.39V63.65H684v6.53h12.58a7.15,7.15,0,0,1,3.17.74V63.65h13.8A7.57,7.57,0,0,0,712.33,61.79Z"/><path class="cls-5" d="M699.73,84a6.79,6.79,0,0,0,4.12-6.38A7.61,7.61,0,0,0,703,74.2h-3.25Z"/><path class="cls-5" d="M663.89,56.37a6.78,6.78,0,0,1,2.26-5.22,7.53,7.53,0,0,1,5.23-2.07h2V43.87a7.64,7.64,0,0,0-2.47-.48,8.06,8.06,0,0,0-8.08,8.08v8.16h1.94A6.57,6.57,0,0,1,663.89,56.37Z"/><path class="cls-5" d="M700,160.72a20.47,20.47,0,0,1-2.5.15c-1.85,0-4.11-.13-6.8-.4a20.58,20.58,0,0,1-8-2.55,16.76,16.76,0,0,1-6.6-7.2q-2.67-5-2.66-14.07V74.2h-12.6A7.33,7.33,0,0,1,655.6,72a7.45,7.45,0,0,1-1.33-1.85h-4a7.48,7.48,0,0,0-5.22,2.06,7,7,0,0,0,0,10.34,7.34,7.34,0,0,0,5.22,2.17h12.6V147.2c0,6,.88,10.72,2.66,14.07a16.78,16.78,0,0,0,6.61,7.2,20.49,20.49,0,0,0,8,2.55c2.7.27,5,.4,6.8.4a17.68,17.68,0,0,0,9.26-2.47c2.76-1.63,4.14-3.64,4.14-6A8.21,8.21,0,0,0,700,160.72Z"/><path class="cls-6" d="M689.19,74.2V84.75h7.37a7.57,7.57,0,0,0,3.17-.71V74.2Z"/><path class="cls-6" d="M673.43,49.08h-2a7.53,7.53,0,0,0-5.23,2.07,6.78,6.78,0,0,0-2.26,5.22,6.57,6.57,0,0,0,.93,3.26h8.61Z"/><path class="cls-7" d="M699.73,70.92V74.2H703a7,7,0,0,0-1.2-1.86A6.63,6.63,0,0,0,699.73,70.92Z"/><path class="cls-7" d="M698.63,158.13a4.86,4.86,0,0,0-3.64-1.88,8,8,0,0,0-3.45.69,7.92,7.92,0,0,1-3.44.69,12.4,12.4,0,0,1-4.45-.88A7.25,7.25,0,0,1,680,153.5c-.92-1.59-1.38-3.95-1.38-7.1V84.75H684V70.18h-5.34V63.65h-7.26a7.36,7.36,0,0,1-5.23-2.16,7.5,7.5,0,0,1-1.33-1.86h-1.94V70.18h-8.61A7.45,7.45,0,0,0,655.6,72a7.33,7.33,0,0,0,5.23,2.17h12.6v62.45q0,9,2.66,14.07a16.76,16.76,0,0,0,6.6,7.2,20.58,20.58,0,0,0,8,2.55c2.69.27,5,.4,6.8.4a20.47,20.47,0,0,0,2.5-.15A6.4,6.4,0,0,0,698.63,158.13Z"/><path class="cls-7" d="M678.22,49.08a7.93,7.93,0,0,0-1.75-3.33,6.86,6.86,0,0,0-3-1.88v5.21Z"/><path class="cls-8" d="M696.56,70.18H684V84.75h5.21V74.2h10.54V70.92A7.15,7.15,0,0,0,696.56,70.18Z"/><path class="cls-8" d="M678.22,49.08h-4.79V59.63h-8.61a7.5,7.5,0,0,0,1.33,1.86,7.36,7.36,0,0,0,5.23,2.16h7.26V51.47A8.8,8.8,0,0,0,678.22,49.08Z"/><path class="cls-5" d="M826.08,152.79V144.5l-.25.18a39.12,39.12,0,0,1-7,8c-1,.85-2.16,1.58-3.26,2.35v8.29a8.14,8.14,0,0,0,2.17,5.72,7.4,7.4,0,0,0,5.72,2.36,7.49,7.49,0,0,0,5.61-2.36,8,8,0,0,0,2.26-5.72v-3a6.92,6.92,0,0,1-3-1.87A8.16,8.16,0,0,1,826.08,152.79Z"/><path class="cls-5" d="M817.6,87.71a24,24,0,0,1,3.06,11.41L815.53,98V84.61a38.38,38.38,0,0,0-6.39-7.35A41,41,0,0,0,801.07,72a33.6,33.6,0,0,0-7.69-.93,30.52,30.52,0,0,0-16.56,4.64,36.49,36.49,0,0,0-2,3.51,38.35,38.35,0,0,0-1.64,3.85,32.25,32.25,0,0,1,9.68-1.46,30.39,30.39,0,0,1,17.44,5.12,34.7,34.7,0,0,1,11.82,13.78A43.93,43.93,0,0,1,816.32,120a46.51,46.51,0,0,1-2.81,16.32,29.62,29.62,0,0,0,7-3.23,38.41,38.41,0,0,0,2.15-3.84,45,45,0,0,0,4.24-19.8A43.94,43.94,0,0,0,822.63,90a35.37,35.37,0,0,0-7.1-9.84v4.5A32.77,32.77,0,0,1,817.6,87.71Z"/><path class="cls-5" d="M821.79,68.89a36.2,36.2,0,0,1,4.29,5.17v-4.5c-.2-.19-.38-.4-.57-.59a8.7,8.7,0,0,0-2.09-.37A8.4,8.4,0,0,0,821.79,68.89Z"/><path class="cls-5" d="M791.81,162.84a43,43,0,0,1-24.22-7,49.23,49.23,0,0,1-16.85-19q-6.21-12-6.2-27.38,0-15.55,6.2-27.47a52.45,52.45,0,0,1,4.09-6.55,48.26,48.26,0,0,0-14.64,17.1Q734,104.44,734,120a58.9,58.9,0,0,0,6.2,27.38,49.23,49.23,0,0,0,16.85,19,43,43,0,0,0,24.22,7,39.33,39.33,0,0,0,14.88-2.85,44,44,0,0,0,12.1-7.3,39,39,0,0,0,7-8,45.07,45.07,0,0,1-8.61,4.77A39.24,39.24,0,0,1,791.81,162.84Z"/><path class="cls-5" d="M820.66,99.12a24,24,0,0,0-3.06-11.41,32.77,32.77,0,0,0-2.07-3.1V98Z"/><path class="cls-5" d="M825.83,144.68l.25-.18v-.17Z"/><path class="cls-6" d="M774.79,79.21a36.49,36.49,0,0,1,2-3.51c-.22.14-.46.23-.67.37a33.93,33.93,0,0,0-9.88,10.18,29.23,29.23,0,0,1,6.88-3.19A38.35,38.35,0,0,1,774.79,79.21Z"/><path class="cls-6" d="M826.08,69.56v-.49c-.18,0-.39,0-.57-.1C825.7,69.16,825.88,69.37,826.08,69.56Z"/><path class="cls-6" d="M812.09,139.81a38.47,38.47,0,0,1-2.16,3.84c.29-.19.6-.32.89-.51a33.55,33.55,0,0,0,9.66-10,29.62,29.62,0,0,1-7,3.23C813.07,137.51,812.63,138.68,812.09,139.81Z"/><path class="cls-7" d="M831.18,75.88a34.6,34.6,0,0,0-5.1-6.32v4.5a36.2,36.2,0,0,0-4.29-5.17,7.17,7.17,0,0,0-4.09,2,7.8,7.8,0,0,0-2.17,5.61v3.64a35.37,35.37,0,0,1,7.1,9.84,43.94,43.94,0,0,1,4.24,19.51,45,45,0,0,1-4.24,19.8,38.41,38.41,0,0,1-2.15,3.84c.29-.18.6-.31.89-.51a33.79,33.79,0,0,0,9.92-10.5V76.47C831.29,76.26,831.2,76.09,831.18,75.88Z"/><path class="cls-7" d="M815.53,150a39.6,39.6,0,0,1-13.17,2.25h-.27c-.61.47-1.18,1-1.82,1.41a30.47,30.47,0,0,1-17.44,5.13,30.1,30.1,0,0,1-17.23-5.13,35.19,35.19,0,0,1-11.91-13.88,44,44,0,0,1-4.35-19.8,43.34,43.34,0,0,1,4.35-19.7c.44-.88,1-1.69,1.45-2.52.15-9.86,2.16-18.64,6.11-26.27A46.59,46.59,0,0,0,757,73.81c-.78.5-1.47,1.1-2.21,1.63A52.45,52.45,0,0,0,750.74,82q-6.21,11.9-6.2,27.47,0,15.38,6.2,27.38a49.23,49.23,0,0,0,16.85,19,43,43,0,0,0,24.22,7A39.24,39.24,0,0,0,806.68,160a45.07,45.07,0,0,0,8.61-4.77c.07-.11.17-.22.24-.34Z"/><path class="cls-5" d="M776.82,75.7a30.52,30.52,0,0,1,16.56-4.64,33.6,33.6,0,0,1,7.69.93,44.29,44.29,0,0,0-4.65-2.22,43.22,43.22,0,0,0-11.89-2.59A33.84,33.84,0,0,0,776.82,75.7Z"/><path class="cls-7" d="M817.23,149.44c-.56.23-1.13.4-1.7.6v5c1.1-.77,2.26-1.5,3.26-2.35a39.12,39.12,0,0,0,7-8,44.61,44.61,0,0,1-7.26,4.09C818.1,149,817.71,149.25,817.23,149.44Z"/><path class="cls-7" d="M829.33,142.15a39.05,39.05,0,0,1-3.25,2.35v8.29a8.16,8.16,0,0,0,2.16,5.72,6.92,6.92,0,0,0,3,1.87V140.19C830.63,140.84,830.06,141.52,829.33,142.15Z"/><path class="cls-8" d="M765.6,86.62c.21-.14.45-.24.67-.37a33.93,33.93,0,0,1,9.88-10.18c.21-.14.45-.23.67-.37a33.84,33.84,0,0,1,7.71-8.52c-1.27-.1-2.55-.16-3.86-.16a43.22,43.22,0,0,0-19.42,4.5c-4,7.63-6,16.41-6.11,26.27A34.17,34.17,0,0,1,765.6,86.62Z"/><path class="cls-8" d="M821.37,132.59c-.29.2-.6.33-.89.51a33.55,33.55,0,0,1-9.66,10c-.29.19-.6.32-.89.51a33.9,33.9,0,0,1-7.84,8.63h.27A39.6,39.6,0,0,0,815.53,150c.57-.2,1.14-.37,1.7-.6s.87-.46,1.34-.67a44.61,44.61,0,0,0,7.26-4.09l.25-.35v.17a39.05,39.05,0,0,0,3.25-2.35c.73-.63,1.3-1.31,2-2v-18.1A33.79,33.79,0,0,1,821.37,132.59Z"/><path class="cls-8" d="M831.18,75.88a7.68,7.68,0,0,0-2.06-5,7,7,0,0,0-3-1.79v.49A34.6,34.6,0,0,1,831.18,75.88Z"/><path class="cls-5" d="M969.48,36.19v-.25c-.24,0-.45,0-.7,0-3.16,0-5.58.66-7.3,2s-2.55,3.35-2.55,6.1v2.76c0,2.76.79,4.79,2.36,6.11s4,2,7.29,2,5.55-.66,7.18-2,2.47-3.35,2.47-6.11V44.22c-2.81-.11-5-.73-6.39-1.92C970.27,41,969.48,39,969.48,36.19Z"/><path class="cls-5" d="M971.25,152.79V68.48a8,8,0,0,0-2.47-.47A7.75,7.75,0,0,0,963,70.37a8,8,0,0,0-2.26,5.72v87.25a8,8,0,0,0,2.26,5.72,7.75,7.75,0,0,0,5.82,2.36,7.49,7.49,0,0,0,5.61-2.36,8,8,0,0,0,2.26-5.72v-3a7.39,7.39,0,0,1-3.14-1.87A8,8,0,0,1,971.25,152.79Z"/><path class="cls-7" d="M974.39,70.37a7.47,7.47,0,0,0-3.14-1.89v84.31a8,8,0,0,0,2.26,5.72,7.39,7.39,0,0,0,3.14,1.87V76.09A8,8,0,0,0,974.39,70.37Z"/><path class="cls-7" d="M975.86,37.88c-1.45-1.21-3.59-1.84-6.38-1.94v.25c0,2.76.79,4.79,2.36,6.11,1.42,1.19,3.58,1.81,6.39,1.92V44C978.23,41.23,977.45,39.19,975.86,37.88Z"/><path class="cls-5" d="M1075.05,162.84A50,50,0,0,1,1030.64,137a54.46,54.46,0,0,1-6.8-27.37,54.52,54.52,0,0,1,6.8-27.38,53.31,53.31,0,0,1,3.49-5.38,50.5,50.5,0,0,0-14,15.93,54.51,54.51,0,0,0-6.8,27.37,54.5,54.5,0,0,0,6.8,27.38,50,50,0,0,0,44.42,25.81,49.15,49.15,0,0,0,40.77-20.29c-1.34,1-2.68,2-4.13,2.85A49.8,49.8,0,0,1,1075.05,162.84Z"/><path class="cls-5" d="M1052.92,83.63a34.14,34.14,0,0,1,11.59-2,33.1,33.1,0,0,1,18,5,35.94,35.94,0,0,1,12.6,13.59,41.27,41.27,0,0,1,4.63,20,43.59,43.59,0,0,1-2.67,15.56,32.46,32.46,0,0,0,6.54-3.07l.23-.16c.63-1,1.26-1.93,1.82-3a41.51,41.51,0,0,0,4.63-19.89,41.33,41.33,0,0,0-4.63-20,35.89,35.89,0,0,0-12.6-13.6,34.75,34.75,0,0,0-36,0c-.16.1-.3.23-.46.33-.58.89-1.18,1.76-1.69,2.72A36.79,36.79,0,0,0,1052.92,83.63Z"/><path class="cls-6" d="M1052.92,83.63a36.79,36.79,0,0,1,2-4.51c.51-1,1.11-1.83,1.69-2.72A35.26,35.26,0,0,0,1046.11,87c.16-.1.3-.23.46-.33A33.09,33.09,0,0,1,1052.92,83.63Z"/><path class="cls-6" d="M1097.08,135.76a36,36,0,0,1-2,4.34c-.56,1-1.19,2-1.82,3a35.23,35.23,0,0,0,10.55-10.54l-.23.16A32.46,32.46,0,0,1,1097.08,135.76Z"/><path class="cls-7" d="M1056.66,76.4c.16-.1.3-.23.46-.33a34.75,34.75,0,0,1,36,0,35.89,35.89,0,0,1,12.6,13.6,41.33,41.33,0,0,1,4.63,20,41.51,41.51,0,0,1-4.63,19.89c-.56,1-1.19,2-1.82,3a35.5,35.5,0,0,0,11.66-12.37,55.14,55.14,0,0,0-6.7-27.33,49.1,49.1,0,0,0-43.32-25.75A35.16,35.16,0,0,0,1056.66,76.4Z"/><path class="cls-7" d="M1109.26,146.64a50.28,50.28,0,0,1-23.66,5.65c-.32,0-.62,0-.94,0-.71.52-1.38,1.07-2.14,1.55a34.63,34.63,0,0,1-36,0,35.36,35.36,0,0,1-12.7-13.69,41.52,41.52,0,0,1-4.63-19.9,41.38,41.38,0,0,1,4.63-20c.16-.29.36-.55.53-.85,0-.08,0-.16,0-.25a54.75,54.75,0,0,1,6.27-26.28c-.71.37-1.46.67-2.16,1.08-1.53.91-3,2-4.37,3a53.31,53.31,0,0,0-3.49,5.38,54.52,54.52,0,0,0-6.8,27.38,54.46,54.46,0,0,0,6.8,27.37A51.67,51.67,0,0,0,1101.15,156c1.45-.87,2.79-1.86,4.13-2.85a52.43,52.43,0,0,0,3.53-5.52C1109,147.28,1109.09,147,1109.26,146.64Z"/><path class="cls-8" d="M1034.4,99.36A35.55,35.55,0,0,1,1046.11,87a35.26,35.26,0,0,1,10.55-10.55,35.16,35.16,0,0,1,8.83-9.32c-.33,0-.65-.06-1-.06a50.29,50.29,0,0,0-23.85,5.81,54.75,54.75,0,0,0-6.27,26.28C1034.39,99.2,1034.4,99.28,1034.4,99.36Z"/><path class="cls-8" d="M1103.85,132.53a35.23,35.23,0,0,1-10.55,10.54,35.15,35.15,0,0,1-8.64,9.17c.32,0,.62,0,.94,0a50.28,50.28,0,0,0,23.66-5.65,55.39,55.39,0,0,0,6.25-26.44v0A35.5,35.5,0,0,1,1103.85,132.53Z"/><path class="cls-5" d="M1233.81,152.79V98a38.86,38.86,0,0,0-2.26-13.59,20,20,0,0,0-7.6-9.75q-5.31-3.63-14.17-3.63a32,32,0,0,0-15.16,3.63c-.52.28-1,.6-1.47.89a23.39,23.39,0,0,0-2.67,7.19,33.44,33.44,0,0,1,8.76-1.17q8.84,0,14.17,3.64A20,20,0,0,1,1221,95a38.86,38.86,0,0,1,2.26,13.59v54.76a8.19,8.19,0,0,0,2.17,5.72,7.38,7.38,0,0,0,5.7,2.36,7.5,7.5,0,0,0,5.63-2.36,8,8,0,0,0,2.26-5.72v-3a6.94,6.94,0,0,1-3-1.87A8.13,8.13,0,0,1,1233.81,152.79Z"/><path class="cls-5" d="M1163.68,152.79V70.05a8.61,8.61,0,0,0-2.66-.47,7.64,7.64,0,0,0-5.61,2.26,7.88,7.88,0,0,0-2.28,5.82v85.68a7.94,7.94,0,0,0,2.28,5.72,7.85,7.85,0,0,0,11.22,0,8,8,0,0,0,2.26-5.72v-3a7.44,7.44,0,0,1-2.93-1.85A7.92,7.92,0,0,1,1163.68,152.79Z"/><path class="cls-6" d="M1183.57,84.44c-.37.55-.65,1.13-1,1.69.49-.29,1-.61,1.47-.89a31.35,31.35,0,0,1,6.41-2.47,23.39,23.39,0,0,1,2.67-7.19A29.74,29.74,0,0,0,1183.57,84.44Z"/><path class="cls-6" d="M1179.94,75c-.16.12-.34.22-.5.34v.48C1179.61,75.57,1179.76,75.3,1179.94,75Z"/><path class="cls-7" d="M1235.77,87.31a30,30,0,0,0-10.94-14.78c-5.11-3.67-12.15-5.51-21.07-5.51-1.08,0-2.15,0-3.2.14a29,29,0,0,0-6.44,6.73c-.37.55-.65,1.13-1,1.69.49-.29.95-.61,1.47-.89a32,32,0,0,1,15.16-3.63q8.85,0,14.17,3.63a20,20,0,0,1,7.6,9.75A38.86,38.86,0,0,1,1233.81,98v54.76a8.13,8.13,0,0,0,2.17,5.72,6.94,6.94,0,0,0,3,1.87V108.2A63,63,0,0,0,1235.77,87.31Z"/><path class="cls-7" d="M1169.48,85.44c-.21.32-.39.63-.59,1V77.66a8.12,8.12,0,0,0-2.16-5.82,7.1,7.1,0,0,0-3-1.79v82.74a7.92,7.92,0,0,0,2.28,5.72,7.44,7.44,0,0,0,2.93,1.85V108.58A23.7,23.7,0,0,1,1173,95c.37-.55.8-1,1.2-1.56V79.81A40,40,0,0,0,1169.48,85.44Z"/><path class="cls-8" d="M1190.16,69.49l-.17.08c-1,.37-1.88.87-2.82,1.31a44.88,44.88,0,0,0-7.23,4.15c-.18.27-.33.54-.5.82v-.48c-.35.25-.75.45-1.09.72a44.73,44.73,0,0,0-4.12,3.72V93.43a30,30,0,0,1,8.37-7.3c.32-.56.6-1.14,1-1.69a29.74,29.74,0,0,1,9.58-8.86c.32-.56.6-1.14,1-1.69a29,29,0,0,1,6.44-6.73A37.89,37.89,0,0,0,1190.16,69.49Z"/><path class="cls-2" d="M910.19,84.75v51.1c0,3.16.46,5.51,1.38,7.1a7.25,7.25,0,0,0,3.63,3.25,12.4,12.4,0,0,0,4.45.88,8.06,8.06,0,0,0,3.44-.68,7.9,7.9,0,0,1,3.45-.69,4.84,4.84,0,0,1,3.64,1.87,6.4,6.4,0,0,1,1.33,2.59,17.22,17.22,0,0,0,6.76-2.32c2.76-1.63,4.14-3.64,4.14-6a6.92,6.92,0,0,0-1.69-4.83,4.81,4.81,0,0,0-3.63-1.87,7.9,7.9,0,0,0-3.45.69,8.08,8.08,0,0,1-3.45.69,12.61,12.61,0,0,1-4.44-.88,7.37,7.37,0,0,1-3.64-3.26c-.91-1.59-1.37-3.94-1.37-7.1V84a7.65,7.65,0,0,1-3.18.71Z"/><path class="cls-2" d="M943.88,51.24a6.92,6.92,0,0,0-5.22-2.16H920.74V30.37a8.21,8.21,0,0,0-2.17-5.72,7.16,7.16,0,0,0-5.51-2.36A8.06,8.06,0,0,0,905,30.37v2.95a7,7,0,0,1,3,1.88,8.14,8.14,0,0,1,2.17,5.72V59.63h17.92a6.91,6.91,0,0,1,5.22,2.16,7.29,7.29,0,0,1,1.2,1.86h4.13a7.08,7.08,0,0,0,5.22-2.07,6.81,6.81,0,0,0,2.07-5A7.42,7.42,0,0,0,943.88,51.24Z"/><path class="cls-3" d="M899.22,49.08H905V33.32a7.64,7.64,0,0,0-2.47-.48,8.06,8.06,0,0,0-8.08,8.08v2.95a6.89,6.89,0,0,1,3.05,1.88A8,8,0,0,1,899.22,49.08Z"/><path class="cls-3" d="M883.88,59.63h-2a7.53,7.53,0,0,0-5.22,2.06,6.79,6.79,0,0,0-2.26,5.23,6.69,6.69,0,0,0,.92,3.26h8.61Z"/><rect class="cls-3" x="899.64" y="63.65" width="5.34" height="6.53"/><path class="cls-3" d="M922.21,149.92a20.42,20.42,0,0,1-8-2.55,16.73,16.73,0,0,1-6.6-7.19q-2.67-5-2.66-14.08V84.75h-5.34V146.4c0,3.15.46,5.51,1.38,7.1a7.23,7.23,0,0,0,3.64,3.25,12.31,12.31,0,0,0,4.44.88,7.92,7.92,0,0,0,3.44-.69,8.08,8.08,0,0,1,3.45-.69,4.86,4.86,0,0,1,3.64,1.88,6.4,6.4,0,0,1,1.33,2.59,17.16,17.16,0,0,0,6.76-2.32c2.76-1.63,4.14-3.64,4.14-6a8.21,8.21,0,0,0-.35-2.24,20.47,20.47,0,0,1-2.5.15C927.16,150.32,924.9,150.19,922.21,149.92Z"/><path class="cls-3" d="M920.74,70.92a6.87,6.87,0,0,1,2,1.42A7.18,7.18,0,0,1,924,74.2h4.13a7.06,7.06,0,0,0,5.22-2.07,6.83,6.83,0,0,0,2.07-5,7.61,7.61,0,0,0-.87-3.46H920.74Z"/><path class="cls-4" d="M926.54,145.71a7.9,7.9,0,0,0-3.45.69,8.06,8.06,0,0,1-3.44.68,12.4,12.4,0,0,1-4.45-.88,7.25,7.25,0,0,1-3.63-3.25c-.92-1.59-1.38-3.94-1.38-7.1V84.75H905V126.1q0,9,2.66,14.08a16.73,16.73,0,0,0,6.6,7.19,20.42,20.42,0,0,0,8,2.55c2.69.27,4.95.4,6.8.4a20.47,20.47,0,0,0,2.5-.15,6.4,6.4,0,0,0-1.33-2.59A4.84,4.84,0,0,0,926.54,145.71Z"/><path class="cls-4" d="M933.33,61.79a6.91,6.91,0,0,0-5.22-2.16H910.19V40.92A8.14,8.14,0,0,0,908,35.2a7,7,0,0,0-3-1.88V49.08h-5.76a8.43,8.43,0,0,1,.42,2.39V63.65H905v6.53h12.58a7.23,7.23,0,0,1,3.18.74V63.65h13.79A7.29,7.29,0,0,0,933.33,61.79Z"/><path class="cls-5" d="M920.74,84a7,7,0,0,0,2-1.36,6.86,6.86,0,0,0,2.06-5A7.61,7.61,0,0,0,924,74.2h-3.24Z"/><path class="cls-5" d="M884.89,56.37a6.78,6.78,0,0,1,2.26-5.22,7.53,7.53,0,0,1,5.23-2.07h2V43.87a7.59,7.59,0,0,0-2.47-.48,8.06,8.06,0,0,0-8.08,8.08v8.16h1.94A6.57,6.57,0,0,1,884.89,56.37Z"/><path class="cls-5" d="M921,160.72a20.47,20.47,0,0,1-2.5.15c-1.84,0-4.1-.13-6.8-.4a20.49,20.49,0,0,1-8-2.55,16.78,16.78,0,0,1-6.61-7.2q-2.67-5-2.66-14.07V74.2h-12.6a7.36,7.36,0,0,1-6.56-4h-4a7.48,7.48,0,0,0-5.22,2.06,7,7,0,0,0,0,10.34,7.34,7.34,0,0,0,5.22,2.17h12.6V147.2c0,6,.88,10.72,2.66,14.07a16.84,16.84,0,0,0,6.61,7.2,20.49,20.49,0,0,0,8,2.55c2.7.27,5,.4,6.8.4a17.74,17.74,0,0,0,9.27-2.47c2.75-1.63,4.13-3.64,4.13-6A7.85,7.85,0,0,0,921,160.72Z"/><path class="cls-6" d="M910.19,74.2V84.75h7.37a7.65,7.65,0,0,0,3.18-.71V74.2Z"/><path class="cls-6" d="M894.43,49.08h-2a7.53,7.53,0,0,0-5.23,2.07,6.78,6.78,0,0,0-2.26,5.22,6.57,6.57,0,0,0,.93,3.26h8.61Z"/><path class="cls-7" d="M920.74,70.92V74.2H924a7.18,7.18,0,0,0-1.19-1.86A6.87,6.87,0,0,0,920.74,70.92Z"/><path class="cls-7" d="M919.63,158.13a4.86,4.86,0,0,0-3.64-1.88,8.08,8.08,0,0,0-3.45.69,7.92,7.92,0,0,1-3.44.69,12.31,12.31,0,0,1-4.44-.88A7.23,7.23,0,0,1,901,153.5c-.92-1.59-1.38-3.95-1.38-7.1V84.75H905V70.18h-5.34V63.65h-7.26a7.36,7.36,0,0,1-5.23-2.16,7.5,7.5,0,0,1-1.33-1.86h-1.94V70.18h-8.61a7.36,7.36,0,0,0,6.56,4h12.6v62.45q0,9,2.66,14.07a16.78,16.78,0,0,0,6.61,7.2,20.49,20.49,0,0,0,8,2.55c2.7.27,5,.4,6.8.4a20.47,20.47,0,0,0,2.5-.15A6.4,6.4,0,0,0,919.63,158.13Z"/><path class="cls-7" d="M899.22,49.08a8,8,0,0,0-1.74-3.33,6.89,6.89,0,0,0-3.05-1.88v5.21Z"/><path class="cls-8" d="M917.56,70.18H905V84.75h5.21V74.2h10.55V70.92A7.23,7.23,0,0,0,917.56,70.18Z"/><path class="cls-8" d="M899.22,49.08h-4.79V59.63h-8.61a7.5,7.5,0,0,0,1.33,1.86,7.36,7.36,0,0,0,5.23,2.16h7.26V51.47A8.43,8.43,0,0,0,899.22,49.08Z"/><path class="cls-1" d="M43.39,43.37a44.06,44.06,0,0,0,3,12.27,9.53,9.53,0,0,1,8.28-8.07A25.41,25.41,0,0,0,47.15,44,19.56,19.56,0,0,0,43.39,43.37Z"/><path class="cls-1" d="M87.63,180.3A9.59,9.59,0,0,1,84,181.52a25.47,25.47,0,0,0,7.47,3.57,18.89,18.89,0,0,0,3.77.62,43.89,43.89,0,0,0-3-12.27A9.54,9.54,0,0,1,87.63,180.3Z"/><path class="cls-2" d="M32.51,45.73A14.86,14.86,0,0,0,32,47.48c-1.76,6.78.2,14.63,2.38,20.19A9.51,9.51,0,0,1,46.65,60a9.6,9.6,0,0,1-.3-4.35,44.06,44.06,0,0,1-3-12.27A21.4,21.4,0,0,0,32.51,45.73Z"/><path class="cls-2" d="M64.4,13.45c20.18,5.6,31.86,26.35,32.35,27.23l14.77,25.58a10,10,0,0,1,.84,1.94,9.6,9.6,0,0,0,11.19-14L108.78,28.65C108.29,27.77,96.61,7,76.43,1.42,65.92-1.5,55.3.08,44.85,6.11A42.19,42.19,0,0,0,29.94,20c.94-.63,1.88-1.25,2.89-1.83C43.27,12.11,53.89,10.53,64.4,13.45Z"/><path class="cls-2" d="M94.11,195.38a17,17,0,0,0,.55-1.75,24.15,24.15,0,0,0,.59-7.92,18.89,18.89,0,0,1-3.77-.62A25.47,25.47,0,0,1,84,181.52a9.72,9.72,0,0,1-4.05-.39,9.61,9.61,0,0,1-4.36,11.2A9.72,9.72,0,0,1,72,193.55a25.49,25.49,0,0,0,7.47,3.57C84.21,198.42,89,197.85,94.11,195.38Z"/><path class="cls-2" d="M37.9,146.28a9.58,9.58,0,0,0,.41,2.58,10.13,10.13,0,0,1,1.39.52Z"/><path class="cls-2" d="M130.06,133.6,100.73,82.81a9.58,9.58,0,0,1-13.82,8.92L118,145.63c.4.65,12.42,20.73,7.32,40.67a37.32,37.32,0,0,1-4.62,10.79c8.63-5.78,14.25-13.43,16.65-22.82C142.48,154.33,130.46,134.26,130.06,133.6Z"/><path class="cls-3" d="M26.34,27.44A36.5,36.5,0,0,1,29.94,20a40.91,40.91,0,0,0-12,12c.94-.63,1.88-1.25,2.89-1.83A49.79,49.79,0,0,1,26.34,27.44Z"/><path class="cls-3" d="M84,181.52a9.55,9.55,0,0,0,8.27-8.08,45,45,0,0,0-2.48-5.35,9.57,9.57,0,0,1-3.29-3.34L32.63,71.43A68.39,68.39,0,0,1,25,50.84a18.39,18.39,0,0,0-5.11,8.67c-2.59,10,2.9,22.29,5.23,26.19l51.64,89.45A41,41,0,0,0,84,181.52Z"/><path class="cls-3" d="M106.88,63.85,92,38.12c-.15-.27-8.45-14.79-20.81-18.18-5.4-1.47-10.87-.55-16.74,2.84A28.32,28.32,0,0,0,51,25.16c.47.11.94.19,1.41.32A47.77,47.77,0,0,1,71,36.06a9.51,9.51,0,0,1,5.14,4.22l1.44,2.5a66.12,66.12,0,0,1,7.1,9.93L99.49,78.29a9.49,9.49,0,0,1,.84,1.94,9.59,9.59,0,0,0,12-12A9.55,9.55,0,0,1,106.88,63.85Z"/><path class="cls-4" d="M86.51,164.75a9.57,9.57,0,0,0,3.29,3.34c-.12-.23-.25-.46-.37-.65L35.46,74a9.53,9.53,0,0,1-1.13-6.28C32.15,62.11,30.19,54.26,32,47.48a14.86,14.86,0,0,1,.56-1.75c-.7.33-1.39.7-2.09,1.1a27.09,27.09,0,0,0-5.39,4,68.39,68.39,0,0,0,7.6,20.59Z"/><path class="cls-4" d="M51,25.16a28.32,28.32,0,0,1,3.51-2.38c5.87-3.39,11.34-4.31,16.74-2.84C83.57,23.33,91.87,37.85,92,38.12l14.86,25.73a9.55,9.55,0,0,0,5.48,4.35,10,10,0,0,0-.84-1.94L96.75,40.68c-.49-.88-12.17-21.63-32.35-27.23-10.51-2.92-21.13-1.34-31.57,4.69-1,.58-1.95,1.2-2.89,1.83a36.5,36.5,0,0,0-3.6,7.47A38.69,38.69,0,0,1,51,25.16Z"/><path class="cls-3" d="M84,181.52a41,41,0,0,1-7.22-6.37l2.33,4a9,9,0,0,1,.84,1.94A9.72,9.72,0,0,0,84,181.52Z"/><path class="cls-4" d="M77.62,42.78l-1.44-2.5A9.51,9.51,0,0,0,71,36.06,67.45,67.45,0,0,1,77.62,42.78Z"/><path class="cls-3" d="M31.76,165.23,46.61,191c.16.26,8.46,14.79,20.82,18.17,5.4,1.48,10.87.55,16.73-2.83a30,30,0,0,0,3.52-2.38c-.47-.12-.94-.19-1.42-.32A47.93,47.93,0,0,1,67.6,193a9.52,9.52,0,0,1-5.14-4.22L61,186.3a67.27,67.27,0,0,1-7.09-9.92L39.15,150.8a9.41,9.41,0,0,1-.84-1.94,9.58,9.58,0,0,0-12,12A9.53,9.53,0,0,1,31.76,165.23Z"/><path class="cls-3" d="M54.63,47.57a9.53,9.53,0,0,0-8.28,8.07A45.24,45.24,0,0,0,48.83,61a9.54,9.54,0,0,1,3.29,3.33L106,157.66a67.83,67.83,0,0,1,7.61,20.59,18.38,18.38,0,0,0,5.11-8.68c2.59-10-2.9-22.29-5.23-26.19L61.84,53.93A40.91,40.91,0,0,0,54.63,47.57Z"/><path class="cls-3" d="M112.29,201.65a37,37,0,0,1-3.59,7.47,40.91,40.91,0,0,0,12-12c-.94.63-1.88,1.25-2.89,1.83A50.82,50.82,0,0,1,112.29,201.65Z"/><path class="cls-3" d="M46.65,60a9.38,9.38,0,0,1,2.18,1,45.24,45.24,0,0,1-2.48-5.36A9.6,9.6,0,0,0,46.65,60Z"/><path class="cls-4" d="M94.11,195.38c-5.09,2.47-9.9,3-14.65,1.74A25.49,25.49,0,0,1,72,193.55,9.75,9.75,0,0,1,67.6,193a47.93,47.93,0,0,0,18.66,10.58c.48.13.95.2,1.42.32A19.31,19.31,0,0,0,94.11,195.38Z"/><path class="cls-3" d="M53.92,176.38A67.27,67.27,0,0,0,61,186.3L39.7,149.38a10.13,10.13,0,0,0-1.39-.52,9.41,9.41,0,0,0,.84,1.94Z"/><path class="cls-4" d="M118,145.63,86.91,91.73a9.6,9.6,0,0,1-4.08-3.82L68,62.17a52.27,52.27,0,0,0-6.13-8.24l51.65,89.45c2.33,3.9,7.82,16.21,5.23,26.19a18.38,18.38,0,0,1-5.11,8.68,46.21,46.21,0,0,1-.28,20.07c-.29,1.14-.65,2.24-1,3.33a50.82,50.82,0,0,0,5.55-2.73c1-.58,2-1.2,2.89-1.83a37.32,37.32,0,0,0,4.62-10.79C130.45,166.36,118.43,146.28,118,145.63Z"/><path class="cls-5" d="M42.67,137.65a9.6,9.6,0,0,1,9-.29L20.61,83.46c-.4-.66-12.42-20.73-7.33-40.67A37.5,37.5,0,0,1,17.91,32C9.27,37.78,3.66,45.43,1.26,54.82c-5.1,19.93,6.92,40,7.32,40.66l29.32,50.8A9.6,9.6,0,0,1,42.67,137.65Z"/><path class="cls-5" d="M100.73,82.81a9.13,9.13,0,0,0-.4-2.58,10.18,10.18,0,0,1-1.39-.53Z"/><path class="cls-5" d="M44.53,33.7c-.21.57-.4,1.16-.56,1.76a24.07,24.07,0,0,0-.58,7.91,19.56,19.56,0,0,1,3.76.63,25.41,25.41,0,0,1,7.48,3.57,9.57,9.57,0,0,1,4,.39A9.61,9.61,0,0,1,63,36.76a9.42,9.42,0,0,1,3.62-1.22A25.35,25.35,0,0,0,59.18,32C54.43,30.67,49.62,31.24,44.53,33.7Z"/><path class="cls-6" d="M43.39,43.37A24.07,24.07,0,0,1,44,35.46c.16-.6.35-1.19.56-1.76-.69.34-1.38.7-2.08,1.1-5.05,2.92-8.32,6.51-9.94,10.93A21.4,21.4,0,0,1,43.39,43.37Z"/><path class="cls-6" d="M94.85,75.88,80,50.15c-.12-.21-5.23-9.11-13.35-14.61A9.42,9.42,0,0,0,63,36.76,9.61,9.61,0,0,0,58.68,48a9.56,9.56,0,0,1,5.47,4.35L86.91,91.73a9.58,9.58,0,0,0,13.82-8.92L98.94,79.7A9.51,9.51,0,0,1,94.85,75.88Z"/><path class="cls-6" d="M43.78,153.2l14.86,25.74c.12.21,5.23,9.1,13.35,14.61a9.72,9.72,0,0,0,3.61-1.22A9.61,9.61,0,0,0,80,181.13a9.57,9.57,0,0,1-5.47-4.35L51.72,137.36a9.57,9.57,0,0,0-13.82,8.92l1.8,3.1A9.6,9.6,0,0,1,43.78,153.2Z"/><path class="cls-7" d="M44.53,33.7c5.09-2.46,9.9-3,14.65-1.73a25.35,25.35,0,0,1,7.47,3.57,9.48,9.48,0,0,1,4.39.52A47.77,47.77,0,0,0,52.37,25.48c-.47-.13-.94-.21-1.41-.32A19.23,19.23,0,0,0,44.53,33.7Z"/><path class="cls-7" d="M84.72,52.71a66.12,66.12,0,0,0-7.1-9.93L98.94,79.7a10.18,10.18,0,0,0,1.39.53,9.49,9.49,0,0,0-.84-1.94Z"/><path class="cls-7" d="M20.61,83.46l31.11,53.9a9.51,9.51,0,0,1,4.09,3.82l14.86,25.73a52,52,0,0,0,6.12,8.24L25.15,85.7c-2.33-3.9-7.82-16.21-5.23-26.19A18.39,18.39,0,0,1,25,50.84a46.25,46.25,0,0,1,.28-20.08c.29-1.13.65-2.23,1-3.32a49.79,49.79,0,0,0-5.54,2.73c-1,.58-1.95,1.2-2.89,1.83a37.5,37.5,0,0,0-4.63,10.79C8.19,62.73,20.21,82.8,20.61,83.46Z"/><path class="cls-8" d="M32.51,45.73c1.62-4.42,4.89-8,9.94-10.93.7-.4,1.39-.76,2.08-1.1A19.23,19.23,0,0,1,51,25.16a38.69,38.69,0,0,0-24.62,2.28c-.38,1.09-.74,2.19-1,3.32A46.25,46.25,0,0,0,25,50.84a27.09,27.09,0,0,1,5.39-4C31.12,46.43,31.81,46.06,32.51,45.73Z"/><path class="cls-8" d="M66.65,35.54C74.77,41,79.88,49.94,80,50.15L94.85,75.88a9.51,9.51,0,0,0,4.09,3.82L77.62,42.78A67.45,67.45,0,0,0,71,36.06,9.48,9.48,0,0,0,66.65,35.54Z"/><path class="cls-8" d="M76.79,175.15a52,52,0,0,1-6.12-8.24L55.81,141.18a9.51,9.51,0,0,0-4.09-3.82l22.77,39.42A9.57,9.57,0,0,0,80,181.13a9,9,0,0,0-.84-1.94Z"/><path class="cls-7" d="M58.68,48a9.57,9.57,0,0,0-4-.39,40.91,40.91,0,0,1,7.21,6.36l-2.33-4A9.37,9.37,0,0,1,58.68,48Z"/><path class="cls-7" d="M61,186.3l1.45,2.51A9.52,9.52,0,0,0,67.6,193,68.78,68.78,0,0,1,61,186.3Z"/><path class="cls-8" d="M72,193.55c-8.12-5.51-13.23-14.4-13.35-14.61L43.78,153.2a9.6,9.6,0,0,0-4.08-3.82L61,186.3A68.78,68.78,0,0,0,67.6,193,9.75,9.75,0,0,0,72,193.55Z"/><path class="cls-8" d="M58.68,48a9.37,9.37,0,0,0,.83,1.94l2.33,4A52.27,52.27,0,0,1,68,62.17L82.83,87.91a9.6,9.6,0,0,0,4.08,3.82L64.15,52.31A9.56,9.56,0,0,0,58.68,48Z"/><path class="cls-5" d="M74.24,215.64C54.05,210,42.38,189.29,41.89,188.41L27.12,162.83a10,10,0,0,1-.84-1.94,9.59,9.59,0,0,0-11.19,14l14.77,25.59c.49.88,12.17,21.62,32.35,27.22C72.72,230.58,83.34,229,93.79,223a42.26,42.26,0,0,0,14.91-13.85c-.94.62-1.88,1.25-2.89,1.83C95.37,217,84.74,218.56,74.24,215.64Z"/><path class="cls-5" d="M99.66,168.28a9.62,9.62,0,0,1-7.67.82,9.42,9.42,0,0,1,.29,4.34,43.89,43.89,0,0,1,3,12.27,21.39,21.39,0,0,0,10.88-2.35,17.17,17.17,0,0,0,.56-1.76c1.76-6.78-.21-14.62-2.38-20.18A9.57,9.57,0,0,1,99.66,168.28Z"/><path class="cls-6" d="M47.49,61.93A9.41,9.41,0,0,1,46.65,60a9.51,9.51,0,0,0-12.32,7.68,42.06,42.06,0,0,0,2.85,6l54,93.48A9.73,9.73,0,0,1,92,169.1a9.51,9.51,0,0,0,12.32-7.68,42.62,42.62,0,0,0-2.85-6Z"/><path class="cls-6" d="M95.25,185.71a24.15,24.15,0,0,1-.59,7.92,17,17,0,0,1-.55,1.75c.69-.33,1.38-.69,2.08-1.1,5-2.91,8.32-6.5,9.94-10.92A21.39,21.39,0,0,1,95.25,185.71Z"/><path class="cls-5" d="M92,169.1a9.88,9.88,0,0,1-2.19-1,45,45,0,0,1,2.48,5.35A9.42,9.42,0,0,0,92,169.1Z"/><path class="cls-8" d="M91.15,167.16l-54-93.48a42.06,42.06,0,0,1-2.85-6A9.53,9.53,0,0,0,35.46,74l54,93.49c.12.19.25.42.37.65a9.88,9.88,0,0,0,2.19,1A9.73,9.73,0,0,0,91.15,167.16Z"/><path class="cls-7" d="M87.68,203.93a30,30,0,0,1-3.52,2.38c-5.86,3.38-11.33,4.31-16.73,2.83C55.07,205.76,46.77,191.23,46.61,191L31.76,165.23a9.53,9.53,0,0,0-5.48-4.34,10,10,0,0,0,.84,1.94l14.77,25.58c.49.88,12.16,21.62,32.35,27.23,10.5,2.92,21.13,1.34,31.57-4.69,1-.58,2-1.21,2.89-1.83a37,37,0,0,0,3.59-7.47A38.65,38.65,0,0,1,87.68,203.93Z"/><path class="cls-7" d="M52.12,64.33A9.54,9.54,0,0,0,48.83,61l.37.65,54,93.48a9.55,9.55,0,0,1,1.13,6.29c2.17,5.56,4.14,13.4,2.38,20.18a17.17,17.17,0,0,1-.56,1.76c.69-.34,1.39-.7,2.09-1.11a27,27,0,0,0,5.39-4A67.83,67.83,0,0,0,106,157.66Z"/><path class="cls-8" d="M47.49,61.93l54,93.48a42.62,42.62,0,0,1,2.85,6,9.55,9.55,0,0,0-1.13-6.29l-54-93.48L48.83,61a9.38,9.38,0,0,0-2.18-1A9.41,9.41,0,0,0,47.49,61.93Z"/><path class="cls-8" d="M106.13,183.36c-1.62,4.42-4.89,8-9.94,10.92-.7.41-1.39.77-2.08,1.1a19.31,19.31,0,0,1-6.43,8.55,38.65,38.65,0,0,0,24.61-2.28c.39-1.09.75-2.19,1-3.33a46.21,46.21,0,0,0,.28-20.07,27,27,0,0,1-5.39,4C107.52,182.66,106.82,183,106.13,183.36Z"/></g></g></svg>