<svg xmlns="http://www.w3.org/2000/svg" viewBox="0 0 437.31 79.5"><defs><style>.cls-1{fill:#ec008c}.cls-2{fill:#00aeef}.cls-3{fill:#000085}.cls-4{fill:#fff200}.cls-5{fill:#ec0000}.cls-6{fill:#0a0}</style></defs><g id="Layer_2" data-name="Layer 2"><g id="Layer_1-2" data-name="Layer 1"><path class="cls-1" d="M27.24,56.43A3.36,3.36,0,0,1,26,57.77l-.08,0,1.44,2.51A3.3,3.3,0,0,0,29.85,62l.4-.31-3-5.21m7-34.63A3.25,3.25,0,0,1,33,23.13l-.08,0,1.44,2.5a3.33,3.33,0,0,0,2.87,1.66h.24l-3-5.13-.24-.39M14.48,6.61a8,8,0,0,0-4,1.21l-.49.3a12.79,12.79,0,0,0-3.29,5.05c-.36,3.21,1.25,6.78,2,8l2.7,4.67a15.6,15.6,0,0,1,.23-6.17,12.53,12.53,0,0,1,.79-2.23l-.18-.31A3.3,3.3,0,0,1,15,12.18h.34c.29-.21.61-.42,1-.62a8.32,8.32,0,0,1,3.55-1.18c.36-.17.72-.31,1.08-.44a10.8,10.8,0,0,0-4.76-3.1,6.3,6.3,0,0,0-1.71-.24m10.41-2a24.45,24.45,0,0,1,4,5l.2.06a15,15,0,0,1,4.78,2.33c-1.52-2.14-4.61-5.75-9-7.36"/><path class="cls-1" d="M20.33,69.57a20.78,20.78,0,0,0,2.12,1.75c-.42-.6-.73-1.08-.9-1.37l-.19,0c-.35-.1-.69-.21-1-.33M39.14,53.66a15.6,15.6,0,0,1-.23,6.17c-.1.39-.22.77-.35,1.14a8.37,8.37,0,0,1-.18,1c0,.12-.07.24-.11.36l0,0a3.3,3.3,0,0,1-1.21,4.51,3.27,3.27,0,0,1-1.65.44A3.34,3.34,0,0,1,34.08,67a17.1,17.1,0,0,1-1.88,1.26,17.52,17.52,0,0,1-2.68,1.26,10.8,10.8,0,0,0,4.76,3.1,6.18,6.18,0,0,0,1.71.23,4.1,4.1,0,0,0,.49,0,16.18,16.18,0,0,0,1.6-.82,14.09,14.09,0,0,0,5.75-5.87,14.89,14.89,0,0,0-2-7.84l-2.69-4.67M13.92,50.57a3.24,3.24,0,0,0-1.57.4L16,57.3l.24.4a3.21,3.21,0,0,1,1.28-1.33,3.28,3.28,0,0,1,1.4-.44l-2.14-3.71a3.29,3.29,0,0,0-2.86-1.65M22.61,16.4a11.35,11.35,0,0,0-1,.53,10,10,0,0,0-1.35.92l3,5.22a3.23,3.23,0,0,1,1.28-1.34,3.36,3.36,0,0,1,1.41-.44l-2.15-3.71a3.28,3.28,0,0,0-1.16-1.18"/><path class="cls-2" d="M25.6,15.72a5.79,5.79,0,0,0-.72,0l3.56,6.16a3.3,3.3,0,0,0,4.43,1.25l-3.66-6.33s0-.05-.07-.13A8.54,8.54,0,0,0,27.32,16a6.72,6.72,0,0,0-1.72-.23M14.45,0A14.51,14.51,0,0,0,7.14,2.1,13.49,13.49,0,0,0,.43,10.56C-1.32,17.41,2.81,24.3,3,24.52l18.49,32a3.31,3.31,0,0,0,4.44,1.25L8.82,28.28c-.13-.23-4.26-7.12-2.51-14,.1-.39.22-.77.35-1.14a5.67,5.67,0,0,1,.18-1A6.76,6.76,0,0,1,10,8.12,16.08,16.08,0,0,1,13,5.85a14.51,14.51,0,0,1,7.31-2.1,13.36,13.36,0,0,1,3.53.49c.35.1.69.21,1,.33A16.88,16.88,0,0,0,18,.49,13,13,0,0,0,14.45,0"/><path class="cls-3" d="M29.14,16.71c0,.08.07.12.07.13l3.66,6.33.08,0a3.25,3.25,0,0,0,1.27-1.33,15.82,15.82,0,0,0-5.08-5.09M6.66,13.17c-.13.37-.25.75-.35,1.14-1.75,6.85,2.38,13.74,2.51,14L25.88,57.81l.08,0a3.36,3.36,0,0,0,1.28-1.34L14.07,33.63a23.38,23.38,0,0,1-2.74-7.79l-2.7-4.67c-.72-1.22-2.33-4.79-2-8M20.33,3.75A14.51,14.51,0,0,0,13,5.85,16.08,16.08,0,0,0,10,8.12l.49-.3a8,8,0,0,1,4-1.21,6.3,6.3,0,0,1,1.71.24A10.8,10.8,0,0,1,21,10a13.5,13.5,0,0,1,4.63-.84,13,13,0,0,1,3.33.43,24.45,24.45,0,0,0-4-5c-.34-.12-.68-.23-1-.33a13.36,13.36,0,0,0-3.53-.49"/><path class="cls-2" d="M29.85,62a9.91,9.91,0,0,1-1,.62,8.59,8.59,0,0,1-3.3,1.17l1.54,2.67.08.13A8.33,8.33,0,0,0,29,67.3a6.7,6.7,0,0,0,1.71.23,7.44,7.44,0,0,0,3-.68,3.31,3.31,0,0,1-1.17-1.18L30.43,62h-.24l-.34,0M8,46.82a3.3,3.3,0,0,0-2.86,5l5.07,8.78c.16.29,3.78,6.73,10.08,9a24.06,24.06,0,0,1-4.2-5.26l-5.07-8.79A3.3,3.3,0,0,1,12.27,51l.08,0-1.45-2.5A3.29,3.29,0,0,0,8,46.82m10-25.9c0,.12-.07.24-.1.36-.89,3.43,1,7.65,1.79,9L38.12,62.06c.16-.35.31-.72.44-1.09a14.63,14.63,0,0,0-2-8L18.07,20.92m-2.7-8.73a6.54,6.54,0,0,0-2.65,3.74,7.27,7.27,0,0,0-.2,1.15,13.26,13.26,0,0,1,3.86-4.62,3.51,3.51,0,0,0-1-.27"/><path class="cls-3" d="M30.25,61.64l-.4.31.34,0h.24l-.18-.32M15,12.18a3.3,3.3,0,0,0-2.86,4.95l.18.31c.05-.12.11-.24.17-.36a7.27,7.27,0,0,1,.2-1.15,6.54,6.54,0,0,1,2.65-3.74H15"/><path class="cls-3" d="M27.21,66.54a17.69,17.69,0,0,0,2.31,3,17.52,17.52,0,0,0,2.68-1.26A17.1,17.1,0,0,0,34.08,67a2.79,2.79,0,0,1-.34-.18,7.44,7.44,0,0,1-3,.68A6.7,6.7,0,0,1,29,67.3a8.33,8.33,0,0,1-1.82-.76M12.35,51l-.08,0a3.3,3.3,0,0,0-1.21,4.51l5.07,8.79a24.06,24.06,0,0,0,4.2,5.26c.34.12.68.23,1,.33l.19,0-.17-.29-5.07-8.78a3.3,3.3,0,0,1-.07-3.18L16,57.3,12.35,51m7.87-33.12a6.51,6.51,0,0,0-2.15,3.07L36.58,53a14.63,14.63,0,0,1,2,8c.13-.37.25-.75.35-1.14a15.6,15.6,0,0,0,.23-6.17L23.3,26.24a3.31,3.31,0,0,1-.07-3.17l-3-5.22"/><path class="cls-4" d="M38.12,62.06a12.81,12.81,0,0,1-2.85,4,6.85,6.85,0,0,0,3-3.69l-.15-.27M12.49,17.67a15.35,15.35,0,0,0,2,7.25L32.73,56.47a15.25,15.25,0,0,0-2-7.24L12.49,17.67m21.4-5.74A16.63,16.63,0,0,1,35,13.59L40,22.37a3.29,3.29,0,0,1-1.2,4.51,3.36,3.36,0,0,1-1.41.44L39.56,31a3.31,3.31,0,0,0,5.73-3.3l-5.08-8.79a23.41,23.41,0,0,0-6.32-7M20.35,10.37a3.85,3.85,0,0,0-.48,0,16.13,16.13,0,0,0-1.6.82,17.68,17.68,0,0,0-1.89,1.25,3.35,3.35,0,0,1,1.52,1.37l1.44,2.5a3.3,3.3,0,0,1,3.27.07,8,8,0,0,1,2.27-.64l-1.55-2.67a16.42,16.42,0,0,0-1.92-2.63,6.23,6.23,0,0,0-1.06-.09"/><path class="cls-5" d="M12.35,17.44a12.53,12.53,0,0,0-.79,2.23,15.6,15.6,0,0,0-.23,6.17L27.16,53.26a3.28,3.28,0,0,1,.08,3.17l3,5.21a6.47,6.47,0,0,0,2.25-3.42,7.37,7.37,0,0,0,.23-1.75L14.51,24.92a15.35,15.35,0,0,1-2-7.25l-.14-.23M21,10c-.36.13-.72.27-1.08.44a3.85,3.85,0,0,1,.48,0,6.23,6.23,0,0,1,1.06.09L21,10m8-.41.18.3,5.07,8.78a3.3,3.3,0,0,1,.06,3.18l.24.39,3,5.13a3.36,3.36,0,0,0,1.41-.44A3.29,3.29,0,0,0,40,22.37L35,13.59a16.63,16.63,0,0,0-1.07-1.66A15,15,0,0,0,29.11,9.6l-.2-.06"/><path class="cls-5" d="M38.27,62.33a6.85,6.85,0,0,1-3,3.69,14.71,14.71,0,0,1-1.19,1,3.34,3.34,0,0,0,1.35.29,3.27,3.27,0,0,0,1.65-.44,3.3,3.3,0,0,0,1.21-4.51l0,0M20.91,15.93a3.3,3.3,0,0,0-1.57.4l.88,1.52a10,10,0,0,1,1.35-.92,11.35,11.35,0,0,1,1-.53,3.27,3.27,0,0,0-1.7-.47"/><path class="cls-6" d="M21.41,10.46a16.42,16.42,0,0,1,1.92,2.63l1.55,2.67a5.79,5.79,0,0,1,.72,0,6.72,6.72,0,0,1,1.72.23,8.54,8.54,0,0,1,1.82.76c-.49-.8-3.2-5.05-7.07-6.11a5.18,5.18,0,0,0-.66-.14"/><path d="M11.33,25.84a23.38,23.38,0,0,0,2.74,7.79l13.17,22.8a3.28,3.28,0,0,0-.08-3.17L11.33,25.84M25.58,9.11A13.5,13.5,0,0,0,21,10l.46.51a5.18,5.18,0,0,1,.66.14c3.87,1.06,6.58,5.31,7.07,6.11a15.82,15.82,0,0,1,5.08,5.09,3.3,3.3,0,0,0-.06-3.18L29.09,9.84l-.18-.3a13,13,0,0,0-3.33-.43"/><path class="cls-6" d="M16.38,12.46a13.26,13.26,0,0,0-3.86,4.62,5.83,5.83,0,0,0,0,.59L30.7,49.23a15.25,15.25,0,0,1,2,7.24L33,57a3.32,3.32,0,0,1-2.61,5l2.14,3.71a3.31,3.31,0,0,0,1.17,1.18,9.17,9.17,0,0,0,1-.53l.5-.3a12.81,12.81,0,0,0,2.85-4L19.76,30.27c-.8-1.34-2.68-5.56-1.79-9,0-.12.06-.24.1-.36l0,0a3.3,3.3,0,0,1,1.21-4.51l.08,0-1.44-2.5a3.35,3.35,0,0,0-1.52-1.37"/><path d="M32.73,56.47a7.37,7.37,0,0,1-.23,1.75,6.47,6.47,0,0,1-2.25,3.42l.18.32A3.32,3.32,0,0,0,33,57l-.31-.54M12.52,17.08c-.06.12-.12.24-.17.36l.14.23a5.83,5.83,0,0,1,0-.59"/><path d="M35.27,66l-.5.3a9.17,9.17,0,0,1-1,.53,2.79,2.79,0,0,0,.34.18,14.71,14.71,0,0,0,1.19-1M19.34,16.33l-.08,0a3.3,3.3,0,0,0-1.21,4.51l0,0a6.51,6.51,0,0,1,2.15-3.07l-.88-1.52"/><path class="cls-4" d="M19.17,55.92h-.25l3,5.13a18,18,0,0,0,1.93,2.63,6.2,6.2,0,0,0,1.05.09c.24,0,.49,0,.73,0L22,57.58a3.3,3.3,0,0,0-2.86-1.66m7-34.64h-.24L42.27,49.62c.14.23,4.26,7.12,2.51,14a13.11,13.11,0,0,1-1,2.59,7.27,7.27,0,0,1-.2,1.15A7.06,7.06,0,0,1,40,71.68a8.28,8.28,0,0,1-3.54,1.18,13.76,13.76,0,0,1-5.72,1.28,12.94,12.94,0,0,1-3.52-.49,15.15,15.15,0,0,1-4.79-2.33c1.64,2.3,5.09,6.32,10,7.69A13.29,13.29,0,0,0,36,79.5a14.51,14.51,0,0,0,7.32-2.1A13.48,13.48,0,0,0,50,68.94c1.75-6.85-2.37-13.74-2.51-14L29,22.94a3.3,3.3,0,0,0-2.86-1.66"/><path class="cls-5" d="M29.52,69.55a13.51,13.51,0,0,1-4.64.84A13.13,13.13,0,0,1,21.55,70c.17.29.48.77.9,1.37a15.15,15.15,0,0,0,4.79,2.33,12.94,12.94,0,0,0,3.52.49,13.76,13.76,0,0,0,5.72-1.28,4.1,4.1,0,0,1-.49,0,6.18,6.18,0,0,1-1.71-.23,10.8,10.8,0,0,1-4.76-3.1M18.92,55.93a3.28,3.28,0,0,0-1.4.44,3.21,3.21,0,0,0-1.28,1.33c.77,1.21,3.35,4.87,6.91,5.84q.33.09.66.15a18,18,0,0,1-1.93-2.63l-3-5.13m7-34.64a3.36,3.36,0,0,0-1.41.44,3.23,3.23,0,0,0-1.28,1.34l13.16,22.8a23.17,23.17,0,0,1,2.75,7.79l2.69,4.67a14.89,14.89,0,0,1,2,7.84,13.11,13.11,0,0,0,1-2.59c1.75-6.84-2.37-13.73-2.51-14L25.92,21.29"/><path class="cls-6" d="M23.81,63.69a13.4,13.4,0,0,0,3.4,2.85l-.08-.13-1.54-2.67c-.24,0-.49,0-.73,0a6.2,6.2,0,0,1-1.05-.09"/><path d="M16.24,57.7a3.3,3.3,0,0,0,.07,3.18l5.07,8.78.17.29a13.13,13.13,0,0,0,3.33.44,13.51,13.51,0,0,0,4.64-.84,17.69,17.69,0,0,1-2.31-3,13.4,13.4,0,0,1-3.4-2.85q-.33-.06-.66-.15c-3.56-1-6.14-4.63-6.91-5.84m7-34.63a3.31,3.31,0,0,0,.07,3.17L39.14,53.66a23.17,23.17,0,0,0-2.75-7.79L23.23,23.07"/><path class="cls-1" d="M63.51,50.55a15.2,15.2,0,0,0,3.11,2.77v-.07a2,2,0,0,1,.74-1.44,23.25,23.25,0,0,1-3-.91l-.83-.35m20.83-3.93a4.25,4.25,0,0,1-1.11,2.71A6,6,0,0,1,80.44,51a14.18,14.18,0,0,1-3.24.55h-.41a16.53,16.53,0,0,1-5,.75h-.43a15.09,15.09,0,0,0,4.11,3.28,8.51,8.51,0,0,0,1,.48h.19a16.13,16.13,0,0,0,6.24-1.2,11.11,11.11,0,0,0,4.67-3.47,8.76,8.76,0,0,0,.84-1.33,3.69,3.69,0,0,0-1-1.57,8.63,8.63,0,0,0-3-1.83l-.07,0m-19.2-.87a11.9,11.9,0,0,0,1.18.71l.63.32a1.34,1.34,0,0,1-.11-.14,2.55,2.55,0,0,0-1.67-.89h0m9.43-8.47a1.59,1.59,0,0,1,.13.13,8.45,8.45,0,0,0,3.14,1.87l.59.21-.12-.11a8.84,8.84,0,0,0-3-1.84l-.72-.26m8.5-.33c.15.23.29.47.43.72a9,9,0,0,1,.92,3.62c.67.21,1.33.42,2,.65A15.45,15.45,0,0,1,89,43.16a7,7,0,0,0-.65-1.73,8.17,8.17,0,0,0-2.59-3A14.52,14.52,0,0,0,83.07,37m-17.64-2.6a9,9,0,0,0,2.4,2.37,8.18,8.18,0,0,0,.69.45,8.48,8.48,0,0,1-.27-1.8c-.47-.15-.93-.3-1.38-.46s-1-.36-1.44-.56m5.73-14.23H71c-.29.11-.58.22-.86.35a10.8,10.8,0,0,0-4.47,3.47,8.64,8.64,0,0,0-1.19,2.27,4.14,4.14,0,0,0,1.12,2.09,8.32,8.32,0,0,0,3.14,1.87l.51.19c0-.09.1-.17.14-.26a5.56,5.56,0,0,1-.14-1A4.24,4.24,0,0,1,70.28,26a6.37,6.37,0,0,1,2.62-1.61,10.4,10.4,0,0,1,3.14-.5,12.12,12.12,0,0,1,4.23.71h.29a18.85,18.85,0,0,1,4,.45,15,15,0,0,1,3.89,1.41,1.87,1.87,0,0,0,.07-.67,2.71,2.71,0,0,0-.68-1.7,11.43,11.43,0,0,0-3.48-2.9l-1.17-.57A2.75,2.75,0,0,1,83.63,22a2.19,2.19,0,0,1-.88,1.84,2.63,2.63,0,0,1-1.57.51h-.1a2.17,2.17,0,0,1-1.53-.65A9.81,9.81,0,0,0,75.9,21a12,12,0,0,0-4.74-.92"/><path class="cls-1" d="M105.12,50.9a11.35,11.35,0,0,0,1.08,1.22,11.17,11.17,0,0,0,1.55,1.29,12.93,12.93,0,0,1-.6-1.82,15.61,15.61,0,0,1-2-.69m0-30.78a2.67,2.67,0,0,0-2,.79,2.57,2.57,0,0,0-.21.24V37.71c0,3.08.8,5.43,2.39,7a7.58,7.58,0,0,0,1.29,1V28.27a2.65,2.65,0,0,1,1.2-2.35v-3a2.78,2.78,0,0,0-.75-2,2.62,2.62,0,0,0-2-.79m23.65,0a2.63,2.63,0,0,0-2,.79l-.18.2v16.6a18.86,18.86,0,0,1-.62,5,8.76,8.76,0,0,1-2.34,5.73,7.93,7.93,0,0,1-4,2.12,16.51,16.51,0,0,1-6.4,1.53,7.12,7.12,0,0,0,1.25,1.7,7.88,7.88,0,0,0,3.7,2.05,14.08,14.08,0,0,0,9.47-3.76,11.77,11.77,0,0,0,2.58-3.76c0-.49.07-1,.07-1.55V28.27a2.8,2.8,0,0,1,.75-2,2.6,2.6,0,0,1,.45-.37v-3a2.78,2.78,0,0,0-.75-2,2.62,2.62,0,0,0-2-.79"/><path class="cls-1" d="M147.23,46.12v3a2.87,2.87,0,0,1-.58,1.77v2a2.69,2.69,0,0,0,.79,2,2.62,2.62,0,0,0,1.94.78,2.68,2.68,0,0,0,1.52-.42V49.66l-.37-.26a15.56,15.56,0,0,1-3-2.9c-.1-.13-.18-.26-.27-.38m28.2-13.29c0,.3,0,.61,0,.93a23.5,23.5,0,0,1-.47,4.76,15.26,15.26,0,0,1-1.47,5.87,12.31,12.31,0,0,1-4.09,4.84,10,10,0,0,1-3.32,1.47,14.72,14.72,0,0,1-6.81,1.59h-.15a11.1,11.1,0,0,0,2.5,2.29A10,10,0,0,0,164.89,56a14.43,14.43,0,0,0,7.49-2.4,17.34,17.34,0,0,0,5.8-6.58,19.76,19.76,0,0,0,1-2.26c.06-.63.1-1.27.1-1.93a14.8,14.8,0,0,0-1.5-6.78,12.53,12.53,0,0,0-2.33-3.25M150.9,23.55A12.12,12.12,0,0,0,148.42,27,15.1,15.1,0,0,0,147,33.76a15.74,15.74,0,0,0,1.47,6.88,12.19,12.19,0,0,0,2.48,3.52V23.55m20-2.78a17.54,17.54,0,0,1,2.4,3.51c.23.43.43.86.62,1.31a15.29,15.29,0,0,1,2.68,1.35,16.29,16.29,0,0,1,1.63,1.2l0-.1a16.78,16.78,0,0,0-5.83-6.45,15.88,15.88,0,0,0-1.45-.82m-12.36-.24h-.33a15.05,15.05,0,0,0-1.86,1v5.25c.33-.27.68-.53,1-.77a10.63,10.63,0,0,1,6-1.73,11.33,11.33,0,0,1,3.13.41,5.7,5.7,0,0,1,.58-.06,11.9,11.9,0,0,0-2.59-2.37,10.52,10.52,0,0,0-6-1.74m-9.16-15.6a2.57,2.57,0,0,0-1.94.81,1.64,1.64,0,0,0-.21.25v16.1a9.66,9.66,0,0,1,.64-1,13.73,13.73,0,0,1,2.93-2.86l.1-.07v-5.1a2.9,2.9,0,0,1,1.2-2.34v-3a2.84,2.84,0,0,0-.75-2,2.55,2.55,0,0,0-2-.81"/><path class="cls-1" d="M191.86,50.55A14.7,14.7,0,0,0,195,53.32v-.07a2,2,0,0,1,.75-1.44,23.25,23.25,0,0,1-3-.91l-.83-.35m20.82-3.93a4.19,4.19,0,0,1-1.1,2.71,6.1,6.1,0,0,1-2.8,1.67,14.09,14.09,0,0,1-3.24.55h-.41a16.46,16.46,0,0,1-5,.75h-.43a14.94,14.94,0,0,0,4.11,3.28,8.51,8.51,0,0,0,1,.48H205a16.12,16.12,0,0,0,6.23-1.2,11.11,11.11,0,0,0,4.67-3.47,8.1,8.1,0,0,0,.85-1.33,3.69,3.69,0,0,0-1-1.57,8.63,8.63,0,0,0-3-1.83l-.08,0m-19.19-.87a10.85,10.85,0,0,0,1.18.71c.2.11.41.22.63.32l-.12-.14a2.53,2.53,0,0,0-1.67-.89h0m9.43-8.47.13.13a8.41,8.41,0,0,0,3.13,1.87l.6.21-.12-.11a8.79,8.79,0,0,0-3-1.84l-.71-.26m8.5-.33q.22.34.42.72a8.89,8.89,0,0,1,.93,3.62c.67.21,1.32.42,2,.65a15.82,15.82,0,0,1,2.63,1.22,7.39,7.39,0,0,0-.65-1.73,8.26,8.26,0,0,0-2.59-3A14.52,14.52,0,0,0,211.42,37m-17.65-2.6a9.33,9.33,0,0,0,2.4,2.37l.69.45a10,10,0,0,1-.27-1.8l-1.38-.46c-.49-.17-1-.36-1.44-.56m5.73-14.23h-.18c-.3.11-.58.22-.87.35A10.77,10.77,0,0,0,194,23.94a8.35,8.35,0,0,0-1.19,2.27,4,4,0,0,0,1.12,2.09,8.28,8.28,0,0,0,3.13,1.87l.52.19c0-.09.09-.17.14-.26a4.84,4.84,0,0,1-.14-1A4.2,4.2,0,0,1,198.63,26a6.31,6.31,0,0,1,2.62-1.61,10.34,10.34,0,0,1,3.13-.5,12,12,0,0,1,4.23.71h.3a18.76,18.76,0,0,1,4,.45,15.24,15.24,0,0,1,3.9,1.41,2.12,2.12,0,0,0,.07-.67,2.76,2.76,0,0,0-.68-1.7,11.43,11.43,0,0,0-3.48-2.9c-.39-.2-.78-.39-1.18-.57A2.75,2.75,0,0,1,212,22a2.2,2.2,0,0,1-.89,1.84,2.6,2.6,0,0,1-1.56.51h-.11a2.19,2.19,0,0,1-1.53-.65A9.73,9.73,0,0,0,204.24,21a12,12,0,0,0-4.74-.92"/><path class="cls-1" d="M234.41,51.43a4.09,4.09,0,0,0,.2.42,5.82,5.82,0,0,0,2.29,2.49,7.38,7.38,0,0,0,1.23.55,16.27,16.27,0,0,1-.19-2.55v-.78a5.34,5.34,0,0,1-.81,0,22.19,22.19,0,0,1-2.35-.14l-.37,0m10.39-1.31a2.78,2.78,0,0,0-1.19.24l-.21.08v1.62a5.13,5.13,0,0,0,.47,2.46,4.37,4.37,0,0,0,.34.47,6.13,6.13,0,0,0,1-.48,2.44,2.44,0,0,0,1.44-2.07,2.38,2.38,0,0,0-.59-1.67,1.64,1.64,0,0,0-1.26-.65m-6.86-19.39h-3.67V43a5,5,0,0,0,.48,2.46A2.52,2.52,0,0,0,236,46.54a4.34,4.34,0,0,0,1.54.3l.4,0V30.73m-9.12-9.11h-1.76a2.4,2.4,0,0,0-.32,1.23,2.34,2.34,0,0,0,.79,1.77,2.5,2.5,0,0,0,1.29.7v-3.7m9.12,0h-3.67v4.06h3.67V21.62m7.41-1.29H243.4v5h1.95a2.5,2.5,0,0,0,1.81-.71,2.4,2.4,0,0,0,.71-1.74,2.58,2.58,0,0,0-.71-1.84,2.41,2.41,0,0,0-1.81-.75m-8.86-9.27a2.68,2.68,0,0,0-2,.82,2.91,2.91,0,0,0-.24.27v4.43h4.88V13.86a2.82,2.82,0,0,0-.75-2,2.47,2.47,0,0,0-1.91-.82"/><path class="cls-1" d="M263,50.78a15.68,15.68,0,0,0,1.75,1.71l0-.09c-.19-.36-.36-.72-.53-1.1a12.42,12.42,0,0,1-1.18-.52m18.65-1.84-.4.29a10.41,10.41,0,0,1-5.6,1.77l-.71.31a13.51,13.51,0,0,1-4,.94,12,12,0,0,0,2.55,2.33,10,10,0,0,0,2.9,1.36,13.45,13.45,0,0,0,3.42-.88A15.21,15.21,0,0,0,284,52.54a14.6,14.6,0,0,0,1.06-1,2.53,2.53,0,0,1-.68.08,2.57,2.57,0,0,1-2-.81,2.87,2.87,0,0,1-.75-1.86m5.45-16.23V48.82a2.75,2.75,0,0,1-.57,1.73v2a3.08,3.08,0,0,0,.18,1.07,12.32,12.32,0,0,0,2.88-3.86A15.65,15.65,0,0,0,291,42.93a15.27,15.27,0,0,0-1.46-6.75,12.45,12.45,0,0,0-2.49-3.47m-6.08-12c.22.27.43.55.63.83V21l-.63-.31m-10.69-.13a11.44,11.44,0,0,0-2.78.33,13.27,13.27,0,0,0-1.26.73,16.58,16.58,0,0,0-5.83,6.48,18.39,18.39,0,0,0-1.69,4.79c0,.31,0,.64,0,1a15.09,15.09,0,0,0,1.5,6.85A12.92,12.92,0,0,0,262.57,44c0-.35,0-.7,0-1.06a21.69,21.69,0,0,1,1.16-7.24,14.23,14.23,0,0,1,1.41-4.93A12,12,0,0,1,269.24,26a10.54,10.54,0,0,1,6-1.73,11.36,11.36,0,0,1,2.77.32l.73,0h.17a11.64,11.64,0,0,0-2.51-2.29,10.54,10.54,0,0,0-6-1.77m18.93-.74a2.62,2.62,0,0,0-2,.78,1.71,1.71,0,0,0-.18.2V27a12.46,12.46,0,0,1,1.46,1.11,13.08,13.08,0,0,1,2.22,2.46V27.86a2.69,2.69,0,0,1,.75-1.94,2.6,2.6,0,0,1,.45-.37v-3a2.69,2.69,0,0,0-.75-1.94,2.61,2.61,0,0,0-2-.78"/><path class="cls-1" d="M310.89,51.43a4.09,4.09,0,0,0,.2.42,5.82,5.82,0,0,0,2.29,2.49,7,7,0,0,0,1.23.55,15.15,15.15,0,0,1-.19-2.55v-.78a5.42,5.42,0,0,1-.81,0,22.51,22.51,0,0,1-2.36-.14l-.36,0m10.39-1.31a2.78,2.78,0,0,0-1.19.24l-.22.08v1.62a5,5,0,0,0,.48,2.46,2.69,2.69,0,0,0,.34.47,6.13,6.13,0,0,0,1-.48,2.43,2.43,0,0,0,1.43-2.07,2.38,2.38,0,0,0-.58-1.67,1.66,1.66,0,0,0-1.26-.65m-6.86-19.39h-3.68V43a5,5,0,0,0,.48,2.46,2.59,2.59,0,0,0,1.26,1.13,4.3,4.3,0,0,0,1.54.3l.4,0V30.73m-9.13-9.11h-1.76a2.39,2.39,0,0,0-.31,1.23,2.36,2.36,0,0,0,.78,1.77,2.66,2.66,0,0,0,1.29.7v-3.7m9.13,0h-3.68v4.06h3.68V21.62m7.4-1.29h-1.95v5h1.95a2.48,2.48,0,0,0,1.81-.71,2.37,2.37,0,0,0,.72-1.74,2.55,2.55,0,0,0-.72-1.84,2.4,2.4,0,0,0-1.81-.75M313,11.06a2.7,2.7,0,0,0-2,.82c-.08.08-.16.18-.24.27v4.43h4.88V13.86a2.82,2.82,0,0,0-.75-2,2.45,2.45,0,0,0-1.9-.82"/><path class="cls-1" d="M339.55,19.58a2.68,2.68,0,0,0-2,.82l-.14.16V48.82a2.75,2.75,0,0,1-.64,1.82v1.93a2.76,2.76,0,0,0,.78,2,2.71,2.71,0,0,0,2,.82A2.57,2.57,0,0,0,341,55V27.73a2.76,2.76,0,0,1,.78-2,3.06,3.06,0,0,1,.49-.4v-3a2.76,2.76,0,0,0-.78-2,2.56,2.56,0,0,0-1.94-.82"/><path class="cls-1" d="M339.55,8.47a5.14,5.14,0,0,0-1.61.22,2.48,2.48,0,0,1-.85,1.89,2.78,2.78,0,0,1-.94.48,1.48,1.48,0,0,0,0,.21v1a2.57,2.57,0,0,0,.82,2.11,3.83,3.83,0,0,0,2.52.69,5.27,5.27,0,0,0,1.45-.18,2.13,2.13,0,0,1,.34-.33,3,3,0,0,1,1-.5,2.81,2.81,0,0,0,.53-1.79v-1A2.6,2.6,0,0,0,342,9.15a3.79,3.79,0,0,0-2.45-.68"/><path class="cls-1" d="M359.64,50.38A17.27,17.27,0,0,0,361.27,52c-.18-.34-.34-.69-.5-1-.38-.16-.76-.34-1.13-.53m25.8-17.16c0,.22,0,.44,0,.67a21.23,21.23,0,0,1-.64,5.26,13.73,13.73,0,0,1-1.54,5.38,12.36,12.36,0,0,1-4.36,4.73,11.14,11.14,0,0,1-3.68,1.49A17.5,17.5,0,0,1,368,52.29a12,12,0,0,0,2.74,2.33A11.3,11.3,0,0,0,374,56a17,17,0,0,0,7.72-2.35A17.32,17.32,0,0,0,388,47.12,18.62,18.62,0,0,0,389,45a18.71,18.71,0,0,0,.11-2,14.29,14.29,0,0,0-1.6-6.92,12.8,12.8,0,0,0-2.08-2.86m-4.67-12.11a18.42,18.42,0,0,1,2.36,3.3c.27.5.52,1,.75,1.52A16.76,16.76,0,0,1,386,27a17.2,17.2,0,0,1,2.29,1.63c-.07-.15-.15-.3-.23-.44a17.34,17.34,0,0,0-6.31-6.55q-.45-.27-.93-.51m-13-.58a13,13,0,0,0-2.51.25,16.24,16.24,0,0,0-1.6.84,17.45,17.45,0,0,0-6.38,6.55,17.91,17.91,0,0,0-1.62,3.91,17.69,17.69,0,0,0-.09,1.81,14.32,14.32,0,0,0,1.6,6.88,12.91,12.91,0,0,0,2,2.81c0-.19,0-.39,0-.58a19.62,19.62,0,0,1,1.4-7.51,13.07,13.07,0,0,1,1.47-4.76,12.32,12.32,0,0,1,4.4-4.71,11.48,11.48,0,0,1,6.2-1.73,12.46,12.46,0,0,1,3,.34c.36,0,.73,0,1.11,0A12.38,12.38,0,0,0,374,22.27a11.45,11.45,0,0,0-6.24-1.74"/><path class="cls-1" d="M428.19,30.73V48.82a2.76,2.76,0,0,1-.58,1.73v2a2.82,2.82,0,0,0,.75,2,2.57,2.57,0,0,0,2,.82,2.63,2.63,0,0,0,1.53-.46V39a13.51,13.51,0,0,0-.78-4.7,6.92,6.92,0,0,0-2.63-3.37l-.26-.17m-19.5-8.67a10.25,10.25,0,0,0-3.34,3.1,8.17,8.17,0,0,0-1.43,4.71v19a2.7,2.7,0,0,1-.58,1.73v2a2.73,2.73,0,0,0,.79,2,2.58,2.58,0,0,0,1.94.82,2.63,2.63,0,0,0,1.52-.46V28.27a2.68,2.68,0,0,1,1.21-2.35v-3a3.37,3.37,0,0,0-.11-.86m6.38-1.51a15.23,15.23,0,0,0-3,1.83A14.19,14.19,0,0,0,409,25.61c-.07.1-.12.19-.18.29a2.69,2.69,0,0,1,1.5-.42,2.62,2.62,0,0,1,2,.78,2.65,2.65,0,0,1,.21.26,12.61,12.61,0,0,1,1.54-1,11.15,11.15,0,0,1,5.25-1.25,11.65,11.65,0,0,1,2.37.22,6.77,6.77,0,0,0-2.35-2.72,8,8,0,0,0-4.25-1.24m-9.6-.37a2.58,2.58,0,0,0-1.34.73,1.21,1.21,0,0,0-.21.24v1l.2-.33a13.42,13.42,0,0,1,1.35-1.68M425.78,20a11.14,11.14,0,0,1,1.28,2.56,19.54,19.54,0,0,1,.63,2.25,10.79,10.79,0,0,1,4.21,1.41,10.28,10.28,0,0,0-3.75-5,8.8,8.8,0,0,0-2.37-1.2"/><path class="cls-2" d="M78.85,44.93a3.88,3.88,0,0,1-.5.65,6.1,6.1,0,0,1-2.79,1.67,13.63,13.63,0,0,1-3.24.54,13,13,0,0,1-5.37-1,15.29,15.29,0,0,0,4.25,3.44,12.11,12.11,0,0,0,5.59,1.32c.41-.13.82-.27,1.22-.44a11,11,0,0,0,4.67-3.48,8.16,8.16,0,0,0,.83-1.3c-1-.35-2-.66-3.08-.94-.53-.14-1.06-.29-1.58-.45M60.07,42a2.64,2.64,0,0,0-1.45.42,2.2,2.2,0,0,0-1.12,1.74A3.17,3.17,0,0,0,58,46a14.59,14.59,0,0,0,5.5,4.53c-.21-.25-.42-.51-.62-.78a3.15,3.15,0,0,1-.51-1.87,2.2,2.2,0,0,1,1.12-1.74A2.62,2.62,0,0,1,65,45.74h.19A15.84,15.84,0,0,1,62,42.89,2.51,2.51,0,0,0,60.29,42h-.22M74.13,31.85a4.14,4.14,0,0,0-.64,2l.1,0c1.31.47,2.76.94,4.36,1.39,1.45.37,2.85.79,4.19,1.27q.48.16.93.36a8.22,8.22,0,0,0-2.16-2.24,14.81,14.81,0,0,0-3.65-1.88c-1-.35-2.06-.68-3.13-1m-2.7-16.37a15.06,15.06,0,0,0-6.2,1.24,10.87,10.87,0,0,0-4.47,3.47,8.69,8.69,0,0,0-1.67,5.32A8.74,8.74,0,0,0,60.15,30,9.34,9.34,0,0,0,63,33a16,16,0,0,0,2.48,1.38c-.14-.2-.27-.41-.4-.62A8.8,8.8,0,0,1,64,29.26a9.38,9.38,0,0,1,.48-3.05,5.27,5.27,0,0,1-.11-.91,4.21,4.21,0,0,1,1.06-3.06A6.41,6.41,0,0,1,68,20.63,10.09,10.09,0,0,1,71,20.12a15.62,15.62,0,0,1,5.34-.88,19.49,19.49,0,0,1,4,.44,15.57,15.57,0,0,1,2.88.93,3.11,3.11,0,0,0-.23-.28,11.43,11.43,0,0,0-3.48-2.9,15.51,15.51,0,0,0-4-1.5,18.85,18.85,0,0,0-4-.45"/><path class="cls-3" d="M65,45.74a2.62,2.62,0,0,0-1.45.42,2.2,2.2,0,0,0-1.12,1.74,3.15,3.15,0,0,0,.51,1.87c.2.27.41.53.62.78l.83.35a23.25,23.25,0,0,0,3,.91,2.92,2.92,0,0,1,.38-.29,2.64,2.64,0,0,1,1.45-.42h.22a2.53,2.53,0,0,1,1.67.88l.25.3h.43a16.53,16.53,0,0,0,5-.75,12.11,12.11,0,0,1-5.59-1.32A15.29,15.29,0,0,1,67,46.78l-.63-.32a11.9,11.9,0,0,1-1.18-.71H65m8.54-11.85c0,.17,0,.34,0,.52a4.38,4.38,0,0,0,1.1,2.87l.72.26a8.84,8.84,0,0,1,3,1.84l.12.11c1.15.41,2.41.81,3.77,1.19.75.19,1.49.39,2.22.61a9,9,0,0,0-.92-3.62c-.14-.25-.28-.49-.43-.72s-.61-.25-.93-.36c-1.34-.48-2.74-.9-4.19-1.27-1.6-.45-3-.92-4.36-1.39l-.1,0m-9-7.68A9.38,9.38,0,0,0,64,29.26,8.8,8.8,0,0,0,65,33.73c.13.21.26.42.4.62.46.2.94.39,1.44.56s.91.31,1.38.46c0-.25,0-.5,0-.76a9,9,0,0,1,1-4.25l-.51-.19a8.32,8.32,0,0,1-3.14-1.87,4.14,4.14,0,0,1-1.12-2.09m11.86-7a15.62,15.62,0,0,0-5.34.88h.19A12,12,0,0,1,75.9,21a9.81,9.81,0,0,1,3.65,2.69,2.17,2.17,0,0,0,1.53.65h.1a2.63,2.63,0,0,0,1.57-.51A2.19,2.19,0,0,0,83.63,22a2.75,2.75,0,0,0-.45-1.42,15.57,15.57,0,0,0-2.88-.93,19.49,19.49,0,0,0-4-.44"/><path class="cls-2" d="M100.2,16.37a2.62,2.62,0,0,0-1.94.78,2.73,2.73,0,0,0-.79,2V37.71q0,6.88,3.85,10.66a12.21,12.21,0,0,0,3.8,2.53,15,15,0,0,1-2.77-9.44V22.92a2.76,2.76,0,0,1,.57-1.77v-2a2.82,2.82,0,0,0-.75-2,2.61,2.61,0,0,0-2-.78m23.65,0a2.62,2.62,0,0,0-2,.78,2.82,2.82,0,0,0-.75,2V37.71c0,3.08-.79,5.43-2.38,7a9.11,9.11,0,0,1-6.69,2.38,13.57,13.57,0,0,0,.34,2.9,10.85,10.85,0,0,0,4.48.86,12.76,12.76,0,0,0,2.71-.27,11.86,11.86,0,0,0,3.14-2.23A12.22,12.22,0,0,0,126,42.75c0-.42,0-.85,0-1.29V22.92a2.86,2.86,0,0,1,.57-1.81V19.17a2.82,2.82,0,0,0-.75-2,2.58,2.58,0,0,0-2-.78"/><path class="cls-3" d="M112.39,50a9.21,9.21,0,0,0,.79,2.12,16.51,16.51,0,0,0,6.4-1.53,12.76,12.76,0,0,1-2.71.27,10.85,10.85,0,0,1-4.48-.86m-9.47-28.86a2.76,2.76,0,0,0-.57,1.77V41.46a15,15,0,0,0,2.77,9.44,15.61,15.61,0,0,0,2,.69,19.25,19.25,0,0,1-.55-4.78V45.76a7.58,7.58,0,0,1-1.29-1c-1.59-1.59-2.39-3.94-2.39-7V21.15m23.65,0a2.86,2.86,0,0,0-.57,1.81V41.46c0,.44,0,.87,0,1.29a18.86,18.86,0,0,0,.62-5V21.11"/><path class="cls-2" d="M169.67,29.8a16.17,16.17,0,0,1,.46,4,15.47,15.47,0,0,1-1.5,6.88,12.3,12.3,0,0,1-4.09,4.84,10.39,10.39,0,0,1-6,1.77,12.42,12.42,0,0,1-1.95-.15,14.65,14.65,0,0,0,.69,2.06l.11.07a10.51,10.51,0,0,0,6,1.77,11.65,11.65,0,0,0,2.68-.3,15.06,15.06,0,0,0,1.4-.82,17.34,17.34,0,0,0,5.8-6.58A19,19,0,0,0,175,38.52c0-.34,0-.67,0-1a15.3,15.3,0,0,0-1.13-6l-.21-.15a10,10,0,0,0-4-1.57M159.16,15.48a13.81,13.81,0,0,0-2.81.29v4.95a12.47,12.47,0,0,1,1.86-.18c.44-.2.89-.38,1.36-.55a13.43,13.43,0,0,1,4.46-.75,15.39,15.39,0,0,1,6.87,1.53,16.32,16.32,0,0,0-3.43-2.93,15.07,15.07,0,0,0-8.31-2.36M144.5,1.17a2.55,2.55,0,0,0-1.94.82,2.73,2.73,0,0,0-.79,2V49.16a2.69,2.69,0,0,0,.79,2,2.62,2.62,0,0,0,1.94.78,2.54,2.54,0,0,0,2-.82,1.63,1.63,0,0,0,.17-.2V7.72A2.7,2.7,0,0,1,147.23,6V4a2.82,2.82,0,0,0-.75-2,2.54,2.54,0,0,0-2-.82"/><path class="cls-3" d="M157.28,49.16c.08.19.17.39.27.59a12.7,12.7,0,0,0,1.59,2.54h.15a14.72,14.72,0,0,0,6.81-1.59,11.65,11.65,0,0,1-2.68.3,10.51,10.51,0,0,1-6-1.77l-.11-.07m16.6-17.64a15.3,15.3,0,0,1,1.13,6c0,.34,0,.67,0,1a23.5,23.5,0,0,0,.47-4.76c0-.32,0-.63,0-.93a11.32,11.32,0,0,0-1.55-1.31M164,19.24a13.43,13.43,0,0,0-4.46.75c-.47.17-.92.35-1.36.55h.33a10.52,10.52,0,0,1,6,1.74,11.9,11.9,0,0,1,2.59,2.37c.38,0,.77-.05,1.15-.05a15.78,15.78,0,0,1,5.64,1c-.19-.45-.39-.88-.62-1.31a17.54,17.54,0,0,0-2.4-3.51A15.39,15.39,0,0,0,164,19.24M147.23,6a2.7,2.7,0,0,0-.58,1.73V50.93a2.87,2.87,0,0,0,.58-1.77v-3c.09.12.17.25.27.38a15.56,15.56,0,0,0,3,2.9l.37.26v-5.5a12.19,12.19,0,0,1-2.48-3.52A15.74,15.74,0,0,1,147,33.76,15.1,15.1,0,0,1,148.42,27a12.12,12.12,0,0,1,2.48-3.42V18.18l-.1.07a13.73,13.73,0,0,0-2.93,2.86,9.66,9.66,0,0,0-.64,1V6"/><path class="cls-2" d="M207.19,44.93a3.82,3.82,0,0,1-.49.65,6.13,6.13,0,0,1-2.8,1.67,13.55,13.55,0,0,1-3.24.54,13,13,0,0,1-5.36-1,15.29,15.29,0,0,0,4.25,3.44,12.1,12.1,0,0,0,5.58,1.32c.42-.13.82-.27,1.23-.44A11.11,11.11,0,0,0,211,47.62a8.16,8.16,0,0,0,.83-1.3c-1-.35-2-.66-3.09-.94-.53-.14-1.05-.29-1.58-.45M188.41,42a2.66,2.66,0,0,0-1.45.42,2.25,2.25,0,0,0-1.12,1.74,3.32,3.32,0,0,0,.51,1.87,14.69,14.69,0,0,0,5.51,4.53c-.22-.25-.42-.51-.63-.78a3.23,3.23,0,0,1-.51-1.87,2.2,2.2,0,0,1,1.12-1.74,2.66,2.66,0,0,1,1.45-.42h.2a15.63,15.63,0,0,1-3.19-2.86,2.49,2.49,0,0,0-1.67-.89h-.22m14.06-10.14a4.24,4.24,0,0,0-.63,2l.09,0c1.32.47,2.77.94,4.36,1.39s2.85.79,4.2,1.27q.47.16.93.36a8.26,8.26,0,0,0-2.17-2.24,14.74,14.74,0,0,0-3.64-1.88c-1-.35-2.06-.68-3.14-1m-2.69-16.37a15.06,15.06,0,0,0-6.2,1.24,10.8,10.8,0,0,0-4.47,3.47,8.69,8.69,0,0,0-1.67,5.32A8.74,8.74,0,0,0,188.5,30a9.23,9.23,0,0,0,2.8,3,15.9,15.9,0,0,0,2.47,1.38c-.13-.2-.27-.41-.39-.62a8.7,8.7,0,0,1-1.06-4.47,9.38,9.38,0,0,1,.48-3.05,5.27,5.27,0,0,1-.11-.91,4.17,4.17,0,0,1,1.06-3.06,6.31,6.31,0,0,1,2.62-1.61,10.16,10.16,0,0,1,2.95-.51,15.58,15.58,0,0,1,5.34-.88,19.39,19.39,0,0,1,4,.44,15.11,15.11,0,0,1,2.88.93,3,3,0,0,0-.22-.28,11.43,11.43,0,0,0-3.48-2.9,15.64,15.64,0,0,0-4-1.5,18.92,18.92,0,0,0-4-.45"/><path class="cls-3" d="M193.29,45.74a2.66,2.66,0,0,0-1.45.42,2.2,2.2,0,0,0-1.12,1.74,3.23,3.23,0,0,0,.51,1.87c.21.27.41.53.63.78l.83.35a23.25,23.25,0,0,0,3,.91,2.8,2.8,0,0,1,.37-.29,2.66,2.66,0,0,1,1.45-.42h.22a2.51,2.51,0,0,1,1.67.88l.26.3h.43a16.46,16.46,0,0,0,5-.75,12.1,12.1,0,0,1-5.58-1.32,15.29,15.29,0,0,1-4.25-3.44c-.22-.1-.43-.21-.63-.32a10.85,10.85,0,0,1-1.18-.71h-.2m8.55-11.85a4.43,4.43,0,0,0,0,.52,4.33,4.33,0,0,0,1.1,2.87l.71.26a8.79,8.79,0,0,1,3,1.84l.12.11c1.15.41,2.41.81,3.76,1.19.76.19,1.5.39,2.23.61a8.89,8.89,0,0,0-.93-3.62q-.19-.37-.42-.72-.46-.2-.93-.36c-1.35-.48-2.75-.9-4.2-1.27s-3-.92-4.36-1.39l-.09,0m-9-7.68a9.38,9.38,0,0,0-.48,3.05,8.7,8.7,0,0,0,1.06,4.47c.12.21.26.42.39.62.47.2.95.39,1.44.56l1.38.46c0-.25,0-.5,0-.76a8.86,8.86,0,0,1,1-4.25l-.52-.19a8.28,8.28,0,0,1-3.13-1.87,4,4,0,0,1-1.12-2.09m11.86-7a15.58,15.58,0,0,0-5.34.88h.18a12,12,0,0,1,4.74.92,9.73,9.73,0,0,1,3.65,2.69,2.19,2.19,0,0,0,1.53.65h.11a2.6,2.6,0,0,0,1.56-.51A2.2,2.2,0,0,0,212,22a2.75,2.75,0,0,0-.46-1.42,15.11,15.11,0,0,0-2.88-.93,19.39,19.39,0,0,0-4-.44"/><path class="cls-2" d="M228.82,25.32V43.23a10.47,10.47,0,0,0,.92,4.87A5.8,5.8,0,0,0,232,50.59a7.44,7.44,0,0,0,2.39.84,11.49,11.49,0,0,1-.72-4.45V30.73h-.11a2.52,2.52,0,0,1-1.8-.75,2.42,2.42,0,0,1,0-3.58,2.57,2.57,0,0,1,1.8-.72h.11v-.31h-4.36a2.15,2.15,0,0,1-.51-.05m11-8.74h-.62v.32a2.8,2.8,0,0,1,.62-.32m-8.16-9.27a2.77,2.77,0,0,0-2.79,2.79v6.48h-4.36a2.62,2.62,0,0,0-1.81.71,2.44,2.44,0,0,0,0,3.58,2.53,2.53,0,0,0,1.81.75h2.6a2.1,2.1,0,0,1,.47-.57,2.57,2.57,0,0,1,1.8-.72h4.36V13.86a2.7,2.7,0,0,1,.58-1.71V10.1a2.84,2.84,0,0,0-.75-2,2.49,2.49,0,0,0-1.91-.81"/><path class="cls-3" d="M234.27,30.73h-.58V47a11.49,11.49,0,0,0,.72,4.45l.37,0a22.19,22.19,0,0,0,2.35.14,5.34,5.34,0,0,0,.81,0V46.82l-.4,0a4.34,4.34,0,0,1-1.54-.3,2.52,2.52,0,0,1-1.25-1.13,5,5,0,0,1-.48-2.46V30.73m0-18.58a2.7,2.7,0,0,0-.58,1.71v6.47h-4.36a2.57,2.57,0,0,0-1.8.72,2.1,2.1,0,0,0-.47.57h1.76v3.7a2.15,2.15,0,0,0,.51.05h4.36v.31h.58V21.62h3.67V19.21a2.72,2.72,0,0,1,.82-2,3.09,3.09,0,0,1,.39-.33v-.32h-4.88V12.15"/><path class="cls-2" d="M286.52,49.68a13.25,13.25,0,0,1-1.47,1.85,2.53,2.53,0,0,0,1.26-.73l.21-.25v-.87M281.44,29.8a16.78,16.78,0,0,1,.47,4,15.62,15.62,0,0,1-1.46,6.85,12,12,0,0,1-4.09,4.81,10.54,10.54,0,0,1-6,1.77,11.32,11.32,0,0,1-1.95-.16,14.84,14.84,0,0,0,.68,2l.19.13a10.42,10.42,0,0,0,6,1.77h.44a15,15,0,0,0,3.48-2.22,13.55,13.55,0,0,0,2.52-2.85v3a11.85,11.85,0,0,0,3.68-4.51,15.54,15.54,0,0,0,1.47-6.85,15.67,15.67,0,0,0-1.15-6.07l-.15-.1a10.21,10.21,0,0,0-4.05-1.61M284.37,16a2.59,2.59,0,0,0-2,.79,2.69,2.69,0,0,0-.75,1.94V21a14.16,14.16,0,0,1,2.66,1.81,13.45,13.45,0,0,1,2.22,2.47V22.51a2.72,2.72,0,0,1,.57-1.74v-2a2.69,2.69,0,0,0-.75-1.94,2.58,2.58,0,0,0-2-.79m-14.8-.55a14.82,14.82,0,0,0-8.17,2.36,16.51,16.51,0,0,0-5.83,6.48,20.25,20.25,0,0,0-2.15,9.5,20.4,20.4,0,0,0,2.15,9.48,17.08,17.08,0,0,0,5.83,6.58,13.82,13.82,0,0,0,1.59.9,17.64,17.64,0,0,1-2.54-3.73,20.36,20.36,0,0,1-2.15-9.47,23,23,0,0,1,.46-4.72A14.53,14.53,0,0,1,260.24,27a12,12,0,0,1,4.12-4.73,10.42,10.42,0,0,1,3.18-1.41,15,15,0,0,1,6.91-1.62,15.47,15.47,0,0,1,5.46,1c.37.14.74.3,1.1.47A14.22,14.22,0,0,0,279.43,19a14.57,14.57,0,0,0-4.4-2.59,15.43,15.43,0,0,0-5.46-1"/><path class="cls-3" d="M269.05,49.1c.1.23.21.46.32.68a13.15,13.15,0,0,0,1.57,2.47,13.51,13.51,0,0,0,4-.94l.71-.31h-.44a10.42,10.42,0,0,1-6-1.77l-.19-.13M258.76,32.86a23,23,0,0,0-.46,4.72,20.36,20.36,0,0,0,2.15,9.47A17.64,17.64,0,0,0,263,50.78a12.42,12.42,0,0,0,1.18.52,20.47,20.47,0,0,1-1.6-7.31,12.92,12.92,0,0,1-2.33-3.32,15.09,15.09,0,0,1-1.5-6.85c0-.32,0-.65,0-1m26.88-1.35a15.67,15.67,0,0,1,1.15,6.07,15.54,15.54,0,0,1-1.47,6.85,11.85,11.85,0,0,1-3.68,4.51,2.87,2.87,0,0,0,.75,1.86,2.57,2.57,0,0,0,2,.81,2.53,2.53,0,0,0,.68-.08,13.25,13.25,0,0,0,1.47-1.85v.87a2.75,2.75,0,0,0,.57-1.73V32.71a11.13,11.13,0,0,0-1.45-1.2M274.45,19.24a15,15,0,0,0-6.91,1.62,11.44,11.44,0,0,1,2.78-.33,10.54,10.54,0,0,1,6,1.77,11.64,11.64,0,0,1,2.51,2.29,15.52,15.52,0,0,1,5.29.95A15.79,15.79,0,0,1,287.09,27V20.77a2.72,2.72,0,0,0-.57,1.74v2.74a13.45,13.45,0,0,0-2.22-2.47A14.16,14.16,0,0,0,281.64,21v.52c-.2-.28-.41-.56-.63-.83s-.73-.33-1.1-.47a15.47,15.47,0,0,0-5.46-1"/><path class="cls-2" d="M305.29,25.32V43.23a10.6,10.6,0,0,0,.92,4.87,5.82,5.82,0,0,0,2.29,2.49,7.35,7.35,0,0,0,2.39.84,11.49,11.49,0,0,1-.72-4.45V30.73h-.11a2.54,2.54,0,0,1-1.81-.75,2.44,2.44,0,0,1,0-3.58,2.6,2.6,0,0,1,1.81-.72h.11v-.31h-4.36a2.24,2.24,0,0,1-.52-.05m11-8.74h-.63v.32a3.11,3.11,0,0,1,.63-.32m-8.16-9.27a2.78,2.78,0,0,0-2.8,2.79v6.48h-4.36a2.63,2.63,0,0,0-1.81.71,2.44,2.44,0,0,0,0,3.58,2.54,2.54,0,0,0,1.81.75h2.6a2.55,2.55,0,0,1,.47-.57,2.6,2.6,0,0,1,1.81-.72h4.36V13.86a2.69,2.69,0,0,1,.57-1.71V10.1a2.88,2.88,0,0,0-.74-2,2.49,2.49,0,0,0-1.91-.81"/><path class="cls-3" d="M310.74,30.73h-.57V47a11.49,11.49,0,0,0,.72,4.45l.36,0a22.51,22.51,0,0,0,2.36.14,5.42,5.42,0,0,0,.81,0V46.82l-.4,0a4.3,4.3,0,0,1-1.54-.3,2.59,2.59,0,0,1-1.26-1.13,5,5,0,0,1-.48-2.46V30.73m0-18.58a2.69,2.69,0,0,0-.57,1.71v6.47h-4.36a2.6,2.6,0,0,0-1.81.72,2.55,2.55,0,0,0-.47.57h1.76v3.7a2.24,2.24,0,0,0,.52.05h4.36v.31h.57V21.62h3.68V19.21a2.71,2.71,0,0,1,.81-2q.19-.18.39-.33v-.32h-4.88V12.15"/><path class="cls-2" d="M334.67,15.83a2.7,2.7,0,0,0-2,.81,2.78,2.78,0,0,0-.78,2v30.2a2.78,2.78,0,0,0,.78,2,2.7,2.7,0,0,0,2,.81,2.59,2.59,0,0,0,1.94-.81l.14-.16V22.38a2.72,2.72,0,0,1,.64-1.82V18.62a2.78,2.78,0,0,0-.78-2,2.59,2.59,0,0,0-1.94-.81"/><path class="cls-3" d="M337.39,20.56a2.72,2.72,0,0,0-.64,1.82V50.64a2.75,2.75,0,0,0,.64-1.82V20.56"/><path class="cls-2" d="M334.67,4.72a4.14,4.14,0,0,0-2.53.68,2.52,2.52,0,0,0-.88,2.11v1a2.57,2.57,0,0,0,.82,2.11,3.83,3.83,0,0,0,2.52.68,5.16,5.16,0,0,0,1.55-.2A2.43,2.43,0,0,1,337,9.15a3.05,3.05,0,0,1,.92-.46V7.51a2.57,2.57,0,0,0-.82-2.11,3.77,3.77,0,0,0-2.45-.68"/><path class="cls-3" d="M337.94,8.69a3.05,3.05,0,0,0-.92.46,2.43,2.43,0,0,0-.87,1.91,2.78,2.78,0,0,0,.94-.48,2.48,2.48,0,0,0,.85-1.89"/><path class="cls-2" d="M379.52,29.9a15.87,15.87,0,0,1,.47,4,14.32,14.32,0,0,1-1.6,6.88A12.32,12.32,0,0,1,374,45.51a11.45,11.45,0,0,1-6.24,1.74A12.23,12.23,0,0,1,365.2,47a13.09,13.09,0,0,0,.62,1.86c.21.14.43.29.65.42a11.49,11.49,0,0,0,6.2,1.74,12.49,12.49,0,0,0,2.56-.25,16.24,16.24,0,0,0,1.6-.84,17.32,17.32,0,0,0,6.3-6.55,18,18,0,0,0,1.68-4.21c0-.49.06-1,.06-1.51a14.92,14.92,0,0,0-1.09-5.85l-.62-.42a11.33,11.33,0,0,0-3.64-1.47M367.79,15.48a17.3,17.3,0,0,0-9,2.39,17.49,17.49,0,0,0-6.38,6.54,18.91,18.91,0,0,0-2.35,9.48,18.85,18.85,0,0,0,2.35,9.47,17.38,17.38,0,0,0,6.38,6.55l.84.47A18.32,18.32,0,0,1,355,37.64a20.36,20.36,0,0,1,.73-5.56A13.54,13.54,0,0,1,357.19,27a12.36,12.36,0,0,1,4.4-4.7,11.37,11.37,0,0,1,3.69-1.49,17.59,17.59,0,0,1,7.39-1.54,17.38,17.38,0,0,1,8.1,1.87,16.91,16.91,0,0,0-3.94-3.24,17.27,17.27,0,0,0-9-2.39"/><path class="cls-3" d="M365.82,48.84c.15.35.32.7.5,1A13,13,0,0,0,368,52.29a17.5,17.5,0,0,0,7.25-1.54,12.49,12.49,0,0,1-2.56.25,11.49,11.49,0,0,1-6.2-1.74c-.22-.13-.44-.28-.65-.42M355.68,32.08a20.36,20.36,0,0,0-.73,5.56,18.32,18.32,0,0,0,4.69,12.74c.37.19.75.37,1.13.53a19,19,0,0,1-1.56-7.33,12.91,12.91,0,0,1-2-2.81,14.32,14.32,0,0,1-1.6-6.88,17.69,17.69,0,0,1,.09-1.81m28.1-.29a14.92,14.92,0,0,1,1.09,5.85c0,.52,0,1-.06,1.51a21.23,21.23,0,0,0,.64-5.26c0-.23,0-.45,0-.67a12.63,12.63,0,0,0-1.66-1.43M372.67,19.24a17.59,17.59,0,0,0-7.39,1.54,13,13,0,0,1,2.51-.25A11.45,11.45,0,0,1,374,22.27a12.38,12.38,0,0,1,2.72,2.32h.17a17.8,17.8,0,0,1,7,1.34c-.23-.52-.48-1-.75-1.52a18.42,18.42,0,0,0-2.36-3.3,17.38,17.38,0,0,0-8.1-1.87"/><path class="cls-2" d="M423.55,29.64l-.82,0V48.82a2.84,2.84,0,0,0,.75,2,2.78,2.78,0,0,0,3.92,0,1.64,1.64,0,0,0,.21-.25V33.62a14.34,14.34,0,0,0-.38-3.36,9.94,9.94,0,0,0-3.68-.62m-1.88-5.13a4.84,4.84,0,0,1,.21.47c.28-.06.56-.13.84-.18a10,10,0,0,0-1.05-.29m-20.48-8.14a2.64,2.64,0,0,0-1.94.78,2.77,2.77,0,0,0-.79,2V48.82a2.79,2.79,0,0,0,.79,2,2.73,2.73,0,0,0,3.88,0,1.64,1.64,0,0,0,.21-.25V22.92a2.71,2.71,0,0,1,.58-1.77v-2a2.82,2.82,0,0,0-.75-2,2.62,2.62,0,0,0-2-.78M416,15.48a13.14,13.14,0,0,0-4.7.86,15.57,15.57,0,0,0-4.09,2.28,15.21,15.21,0,0,0-1.72,1.56,2.91,2.91,0,0,1,.6-.06,2.63,2.63,0,0,1,2,.79,2.67,2.67,0,0,1,.64,1.15l.48-.27a11.06,11.06,0,0,1,5.25-1.26l.65,0c.35-.17.72-.32,1.09-.46a13.31,13.31,0,0,1,4.7-.85,15.2,15.2,0,0,1,4.92.71,10.3,10.3,0,0,0-2.5-2.56,12.33,12.33,0,0,0-7.3-1.91"/><path class="cls-3" d="M427.23,30.26a14.34,14.34,0,0,1,.38,3.36V50.55a2.76,2.76,0,0,0,.58-1.73V30.73a6.1,6.1,0,0,0-1-.47M406.07,20.12a2.91,2.91,0,0,0-.6.06,13.42,13.42,0,0,0-1.35,1.68l-.2.33v-1a2.71,2.71,0,0,0-.58,1.77V50.55a2.7,2.7,0,0,0,.58-1.73V29.87a8.17,8.17,0,0,1,1.43-4.71,10.25,10.25,0,0,1,3.34-3.1,2.67,2.67,0,0,0-.64-1.15,2.63,2.63,0,0,0-2-.79m14.79-.88a13.31,13.31,0,0,0-4.7.85c-.37.14-.74.29-1.09.46a8,8,0,0,1,4.25,1.24,6.77,6.77,0,0,1,2.35,2.72,10,10,0,0,1,1.05.29,13.53,13.53,0,0,1,2.39-.21,18.94,18.94,0,0,1,2.58.17,19.54,19.54,0,0,0-.63-2.25A11.14,11.14,0,0,0,425.78,20a15.2,15.2,0,0,0-4.92-.71"/><path class="cls-4" d="M84.14,44.67a7.81,7.81,0,0,1-.63,1.65c.28.09.56.19.83.3,0-.15,0-.3,0-.46a5,5,0,0,0-.21-1.49M89,43.16a11.48,11.48,0,0,1,.31,2.8,8.86,8.86,0,0,1-.93,4.09,4.89,4.89,0,0,1,.2,1.47,4.43,4.43,0,0,1-1.12,3.17,6.1,6.1,0,0,1-2.79,1.67,14.15,14.15,0,0,1-3.24.54,13.41,13.41,0,0,1-5-.85,21,21,0,0,1-7.24-1.4,13.57,13.57,0,0,1-2.6-1.33,3.22,3.22,0,0,0,.52,1.81A14.29,14.29,0,0,0,73.47,60a20.85,20.85,0,0,0,7.43,1.4,16.31,16.31,0,0,0,6.24-1.19,11.13,11.13,0,0,0,4.67-3.48,8.58,8.58,0,0,0,1.77-5.42,9.59,9.59,0,0,0-1-4.53,8.22,8.22,0,0,0-2.59-3,11.69,11.69,0,0,0-1-.66m-20.5-6a7.19,7.19,0,0,0,.76,1.91,9.44,9.44,0,0,0,2.8,3A16.22,16.22,0,0,0,76,44c1,.32,1.9.63,2.86.91a4.76,4.76,0,0,0,.62-2.52A5,5,0,0,0,79.28,41c-1-.35-2-.66-3.1-.94-1.51-.41-3-.86-4.44-1.37a16.4,16.4,0,0,1-3.22-1.49M80.27,24.59a15.29,15.29,0,0,0-5.91,1.23,11,11,0,0,0-4.47,3.47c-.19.27-.37.54-.53.81a3.37,3.37,0,0,0,.1.34c1.11.38,2.31.76,3.61,1.13l1.06.28a3.2,3.2,0,0,1,.4-.51,6.29,6.29,0,0,1,2.62-1.6,10.11,10.11,0,0,1,3.14-.51,11.77,11.77,0,0,1,4.73.92,9.65,9.65,0,0,1,3.65,2.69,2.21,2.21,0,0,0,1.54.65h.1A2.58,2.58,0,0,0,91.87,33a2.17,2.17,0,0,0,.89-1.84,2.71,2.71,0,0,0-.68-1.71,11.39,11.39,0,0,0-3.48-2.89l-.16-.09a2.4,2.4,0,0,1-.82,1.17,2.61,2.61,0,0,1-1.56.52H86a2.2,2.2,0,0,1-1.54-.64,9.55,9.55,0,0,0-3.65-2.69c-.16-.08-.33-.14-.5-.21"/><path class="cls-5" d="M67.37,51.81a2,2,0,0,0-.74,1.44v.07a13.57,13.57,0,0,0,2.6,1.33,21,21,0,0,0,7.24,1.4,8.51,8.51,0,0,1-1-.48,15.09,15.09,0,0,1-4.11-3.28,20.6,20.6,0,0,1-4-.48m17-10.52c0,.3,0,.6,0,.91a9.34,9.34,0,0,1-.31,2.47,5,5,0,0,1,.21,1.49c0,.16,0,.31,0,.46l.07,0a8.63,8.63,0,0,1,3,1.83,3.69,3.69,0,0,1,1,1.57A8.86,8.86,0,0,0,89.33,46a11.48,11.48,0,0,0-.31-2.8,15.45,15.45,0,0,0-2.63-1.22c-.64-.23-1.3-.44-2-.65M68.25,35.37a8.48,8.48,0,0,0,.27,1.8,16.4,16.4,0,0,0,3.22,1.49c1.46.51,2.93,1,4.44,1.37,1.08.28,2.11.59,3.1.94a3.59,3.59,0,0,0-.85-1.48l-.59-.21a8.45,8.45,0,0,1-3.14-1.87,1.59,1.59,0,0,0-.13-.13c-1-.37-2.13-.71-3.27-1s-2-.58-3-.9m1.11-5.27c0,.09-.09.17-.14.26l.24.08a3.37,3.37,0,0,1-.1-.34m11.2-5.51h-.29c.17.07.34.13.5.21a9.55,9.55,0,0,1,3.65,2.69,2.2,2.2,0,0,0,1.54.64h.1a2.61,2.61,0,0,0,1.56-.52,2.4,2.4,0,0,0,.82-1.17A15,15,0,0,0,84.55,25a18.85,18.85,0,0,0-4-.45"/><path class="cls-6" d="M79.28,41a5,5,0,0,1,.19,1.44,4.76,4.76,0,0,1-.62,2.52c.52.16,1.05.31,1.58.45,1.07.28,2.1.59,3.08.94a7.81,7.81,0,0,0,.63-1.65,3.57,3.57,0,0,0-1-1.54,8.79,8.79,0,0,0-3-1.84L79.28,41M69.46,30.44a4,4,0,0,0,1,1.62,8.32,8.32,0,0,0,3,1.83,4.14,4.14,0,0,1,.64-2l-1.06-.28c-1.3-.37-2.5-.75-3.61-1.13"/><path d="M69.2,51.1a2.64,2.64,0,0,0-1.45.42,2.92,2.92,0,0,0-.38.29,20.6,20.6,0,0,0,4,.48l-.25-.3a2.53,2.53,0,0,0-1.67-.88H69.2m9.23-11.61A3.59,3.59,0,0,1,79.28,41l.88.32a8.79,8.79,0,0,1,3,1.84,3.57,3.57,0,0,1,1,1.54,9.34,9.34,0,0,0,.31-2.47c0-.31,0-.61,0-.91-.73-.22-1.47-.42-2.22-.61-1.36-.38-2.62-.78-3.77-1.19m-9.21-9.13a9,9,0,0,0-1,4.25c0,.26,0,.51,0,.76,1,.32,2,.62,3,.9s2.23.64,3.27,1a4.38,4.38,0,0,1-1.1-2.87c0-.18,0-.35,0-.52a8.32,8.32,0,0,1-3-1.83,4,4,0,0,1-1-1.62l-.24-.08"/><path class="cls-4" d="M109.33,25.48a2.7,2.7,0,0,0-1.53.44V41.46a11.23,11.23,0,0,0,1.12,5.29,12.2,12.2,0,0,0,3.07.36h.06V28.27a2.8,2.8,0,0,0-.75-2,2.61,2.61,0,0,0-2-.78m23.65,0a2.74,2.74,0,0,0-1.53.41V41.46a17.24,17.24,0,0,1-1.27,6.9,8.6,8.6,0,0,1-2.32,5.47,9.07,9.07,0,0,1-6.74,2.39,12.6,12.6,0,0,1-3-.34q-.61,0-1.26,0a15.52,15.52,0,0,1-9.12-2.5,12,12,0,0,0,2.7,4.07q3.84,3.78,10.67,3.78t10.73-3.78q3.85-3.78,3.85-10.67V28.27a2.8,2.8,0,0,0-.75-2,2.61,2.61,0,0,0-2-.78"/><path class="cls-5" d="M107.15,51.59a12.93,12.93,0,0,0,.6,1.82,15.52,15.52,0,0,0,9.12,2.5q.64,0,1.26,0a7.88,7.88,0,0,1-3.7-2.05,7.12,7.12,0,0,1-1.25-1.7c-.39,0-.79,0-1.19,0a19.3,19.3,0,0,1-4.84-.57m.65-25.67a2.65,2.65,0,0,0-1.2,2.35V45.76a8.5,8.5,0,0,0,2.32,1,11.23,11.23,0,0,1-1.12-5.29V25.92m23.65,0a2.6,2.6,0,0,0-.45.37,2.8,2.8,0,0,0-.75,2V46.81c0,.54,0,1.06-.07,1.55a17.24,17.24,0,0,0,1.27-6.9V25.89"/><path class="cls-6" d="M108.92,46.75a7.06,7.06,0,0,0,1.26,1.73A7.74,7.74,0,0,0,112.39,50a13.57,13.57,0,0,1-.34-2.9H112a12.2,12.2,0,0,1-3.07-.36"/><path d="M106.6,45.76v1.05a19.25,19.25,0,0,0,.55,4.78,19.3,19.3,0,0,0,4.84.57c.4,0,.8,0,1.19,0a9.21,9.21,0,0,1-.79-2.12,7.74,7.74,0,0,1-2.21-1.53,7.06,7.06,0,0,1-1.26-1.73,8.5,8.5,0,0,1-2.32-1"/><path class="cls-4" d="M178.23,28.14a20.06,20.06,0,0,1,2.1,9.37,21.71,21.71,0,0,1-1.17,7.28,15,15,0,0,1-1.4,5,12.28,12.28,0,0,1-4.09,4.83,10.32,10.32,0,0,1-6,1.78,11.38,11.38,0,0,1-2.78-.33l-.72,0a14,14,0,0,1-4.74-.79,15.55,15.55,0,0,1-4-2.11,16.16,16.16,0,0,1-2.6-2.37l-.71-.37v2.5a2.84,2.84,0,0,1-.75,2,2.38,2.38,0,0,1-.45.39v3a2.68,2.68,0,0,0,.79,2,2.59,2.59,0,0,0,1.94.79,2.51,2.51,0,0,0,2-.82,2.8,2.8,0,0,0,.75-2V55.22c.1.13.18.26.28.38a15.6,15.6,0,0,0,3,2.91,15.86,15.86,0,0,0,4,2.11,14.2,14.2,0,0,0,4.74.78A14.47,14.47,0,0,0,176.63,59a17.19,17.19,0,0,0,5.8-6.58,20.5,20.5,0,0,0,2.15-9.54,20.07,20.07,0,0,0-2.15-9.47,17,17,0,0,0-4.2-5.25M166.55,24.7a12.92,12.92,0,0,0-2.73.65,15.05,15.05,0,0,0-3.89,2A14,14,0,0,0,157,30.22c-.24.32-.45.65-.65,1V26.79a12,12,0,0,0-3,3.94,15,15,0,0,0-1.47,6.78,15.71,15.71,0,0,0,1.47,6.88,12.59,12.59,0,0,0,1.3,2.17,10.8,10.8,0,0,0,2,.54,17,17,0,0,1-.51-4.24,15.06,15.06,0,0,1,1.47-6.78,11.72,11.72,0,0,1,4.09-4.71,10.71,10.71,0,0,1,6-1.73,11.83,11.83,0,0,1,2,.16,12.93,12.93,0,0,0-1-2.83,14.31,14.31,0,0,0-1.24-2q-.4-.15-.84-.27m-10.2-4a10.4,10.4,0,0,0-3.84,1.55l-.41.28v3.29c.2-.33.41-.65.65-1A14,14,0,0,1,155.68,22l.67-.46v-.82m-2.72-10.44a2.59,2.59,0,0,0-1.53.46v6.67a15.6,15.6,0,0,1,2.59-1.17,14.17,14.17,0,0,1,1.66-.47V13.08a2.81,2.81,0,0,0-.75-2,2.51,2.51,0,0,0-2-.82"/><path class="cls-5" d="M152.81,50.78a16.16,16.16,0,0,0,2.6,2.37,15.55,15.55,0,0,0,4,2.11,14,14,0,0,0,4.74.79l.72,0a10,10,0,0,1-3.25-1.45,11.1,11.1,0,0,1-2.5-2.29,13.86,13.86,0,0,1-4.59-.78,16.78,16.78,0,0,1-1.74-.73m-1.91-1.12v5.62a2.38,2.38,0,0,0,.45-.39,2.84,2.84,0,0,0,.75-2v-2.5q-.61-.34-1.2-.75m23-24.07a20.3,20.3,0,0,1,1.51,7.24,12.53,12.53,0,0,1,2.33,3.25,14.8,14.8,0,0,1,1.5,6.78c0,.66,0,1.3-.1,1.93a21.71,21.71,0,0,0,1.17-7.28,20.06,20.06,0,0,0-2.1-9.37,16.29,16.29,0,0,0-1.63-1.2,15.29,15.29,0,0,0-2.68-1.35m-6.79-.95a5.7,5.7,0,0,0-.58.06q.44.12.84.27l-.26-.33m-10.78-3.1-.67.46a14,14,0,0,0-2.93,2.86c-.24.33-.45.65-.65,1V22.55a12.72,12.72,0,0,0-1.2,1V44.16a10.78,10.78,0,0,0,1.61,1.32,10.35,10.35,0,0,0,2.09,1.08,12.59,12.59,0,0,1-1.3-2.17,15.71,15.71,0,0,1-1.47-6.88,15,15,0,0,1,1.47-6.78,12,12,0,0,1,3-3.94V21.54m-4.25-10.8a2.9,2.9,0,0,0-1.2,2.34v5.1c.39-.28.79-.53,1.2-.77V10.74"/><path class="cls-6" d="M152.1,49.87v.54l.71.37-.43-.53-.28-.38m2.5-3.31a11.4,11.4,0,0,0,2.68,2.6,14.65,14.65,0,0,1-.69-2.06,10.8,10.8,0,0,1-2-.54M167.39,25a14.31,14.31,0,0,1,1.24,2,12.93,12.93,0,0,1,1,2.83,10,10,0,0,1,4,1.57l.21.15c-.12-.27-.24-.54-.37-.79A12.19,12.19,0,0,0,169.42,26a10,10,0,0,0-2-1.05m-11-9.2a14.17,14.17,0,0,0-1.66.47,15.6,15.6,0,0,0-2.59,1.17v5.14l.41-.28a10.4,10.4,0,0,1,3.84-1.55V15.77"/><path d="M150.9,44.16v5.5q.58.41,1.2.75v-.54l.28.38.43.53a16.78,16.78,0,0,0,1.74.73,13.86,13.86,0,0,0,4.59.78,12.7,12.7,0,0,1-1.59-2.54c-.1-.2-.19-.4-.27-.59a11.4,11.4,0,0,1-2.68-2.6,10.35,10.35,0,0,1-2.09-1.08,10.78,10.78,0,0,1-1.61-1.32m17.38-19.57c-.38,0-.77,0-1.15.05l.26.33a10,10,0,0,1,2,1.05,12.19,12.19,0,0,1,4.09,4.71c.13.25.25.52.37.79a11.32,11.32,0,0,1,1.55,1.31,20.3,20.3,0,0,0-1.51-7.24,15.78,15.78,0,0,0-5.64-1M152.1,17.41c-.41.24-.81.49-1.2.77v5.37a12.72,12.72,0,0,1,1.2-1V17.41"/><path class="cls-4" d="M212.49,44.67a7.81,7.81,0,0,1-.63,1.65c.28.09.55.19.82.3,0-.15,0-.3,0-.46a5,5,0,0,0-.21-1.49m4.88-1.51a12,12,0,0,1,.3,2.8,8.85,8.85,0,0,1-.92,4.09,5.22,5.22,0,0,1,.2,1.47,4.43,4.43,0,0,1-1.12,3.17,6.19,6.19,0,0,1-2.8,1.67,14.06,14.06,0,0,1-3.24.54,13.39,13.39,0,0,1-5-.85,20.91,20.91,0,0,1-7.24-1.4,13.28,13.28,0,0,1-2.6-1.33,3.32,3.32,0,0,0,.51,1.81A14.27,14.27,0,0,0,201.82,60a20.81,20.81,0,0,0,7.43,1.4,16.3,16.3,0,0,0,6.23-1.19,11.13,11.13,0,0,0,4.67-3.48,8.53,8.53,0,0,0,1.77-5.42,9.59,9.59,0,0,0-.95-4.53,8.31,8.31,0,0,0-2.59-3c-.33-.24-.66-.45-1-.66m-20.51-6a7.21,7.21,0,0,0,.77,1.91,9.3,9.3,0,0,0,2.79,3A16.48,16.48,0,0,0,204.34,44c.94.32,1.89.63,2.85.91a4.76,4.76,0,0,0,.63-2.52,5,5,0,0,0-.2-1.44c-1-.35-2-.66-3.1-.94-1.5-.41-3-.86-4.43-1.37a16.77,16.77,0,0,1-3.23-1.49m11.75-12.58a15.37,15.37,0,0,0-5.91,1.23,10.94,10.94,0,0,0-4.46,3.47c-.19.27-.37.54-.53.81l.09.34c1.12.38,2.32.76,3.61,1.13l1.06.28a3.27,3.27,0,0,1,.41-.51,6.29,6.29,0,0,1,2.62-1.6,10.05,10.05,0,0,1,3.13-.51,11.79,11.79,0,0,1,4.74.92A9.73,9.73,0,0,1,217,32.84a2.19,2.19,0,0,0,1.53.65h.11a2.6,2.6,0,0,0,1.56-.51,2.2,2.2,0,0,0,.89-1.84,2.77,2.77,0,0,0-.68-1.71A11.39,11.39,0,0,0,217,26.54l-.16-.09a2.54,2.54,0,0,1-.82,1.17,2.61,2.61,0,0,1-1.56.52h-.11a2.18,2.18,0,0,1-1.53-.64,9.63,9.63,0,0,0-3.65-2.69l-.51-.21"/><path class="cls-5" d="M195.72,51.81a2,2,0,0,0-.75,1.44v.07a13.28,13.28,0,0,0,2.6,1.33,20.91,20.91,0,0,0,7.24,1.4,8.51,8.51,0,0,1-1-.48,14.94,14.94,0,0,1-4.11-3.28,20.6,20.6,0,0,1-4-.48m17.05-10.52c0,.3,0,.6,0,.91a9.77,9.77,0,0,1-.31,2.47,5,5,0,0,1,.21,1.49c0,.16,0,.31,0,.46l.08,0a8.63,8.63,0,0,1,3,1.83,3.69,3.69,0,0,1,1,1.57,8.85,8.85,0,0,0,.92-4.09,12,12,0,0,0-.3-2.8,15.82,15.82,0,0,0-2.63-1.22c-.65-.23-1.3-.44-2-.65m-16.18-5.92a10,10,0,0,0,.27,1.8,16.77,16.77,0,0,0,3.23,1.49c1.45.51,2.93,1,4.43,1.37,1.08.28,2.12.59,3.1.94a3.69,3.69,0,0,0-.84-1.48l-.6-.21a8.41,8.41,0,0,1-3.13-1.87l-.13-.13c-1-.37-2.13-.71-3.28-1s-2-.58-3-.9m1.12-5.27c-.05.09-.1.17-.14.26l.23.08-.09-.34m11.2-5.51h-.3l.51.21a9.63,9.63,0,0,1,3.65,2.69,2.18,2.18,0,0,0,1.53.64h.11a2.61,2.61,0,0,0,1.56-.52,2.54,2.54,0,0,0,.82-1.17,15.24,15.24,0,0,0-3.9-1.41,18.76,18.76,0,0,0-4-.45"/><path class="cls-6" d="M207.62,41a5,5,0,0,1,.2,1.44,4.76,4.76,0,0,1-.63,2.52c.53.16,1.05.31,1.58.45,1.08.28,2.11.59,3.09.94a7.81,7.81,0,0,0,.63-1.65,3.67,3.67,0,0,0-1-1.54,8.79,8.79,0,0,0-3-1.84l-.89-.32M197.8,30.44a4.13,4.13,0,0,0,1,1.62,8.24,8.24,0,0,0,3,1.83,4.24,4.24,0,0,1,.63-2l-1.06-.28c-1.29-.37-2.49-.75-3.61-1.13"/><path d="M197.54,51.1a2.66,2.66,0,0,0-1.45.42,2.8,2.8,0,0,0-.37.29,20.6,20.6,0,0,0,4,.48l-.26-.3a2.51,2.51,0,0,0-1.67-.88h-.22m9.24-11.61a3.69,3.69,0,0,1,.84,1.48l.89.32a8.79,8.79,0,0,1,3,1.84,3.67,3.67,0,0,1,1,1.54,9.77,9.77,0,0,0,.31-2.47c0-.31,0-.61,0-.91-.73-.22-1.47-.42-2.23-.61-1.35-.38-2.61-.78-3.76-1.19m-9.21-9.13a8.86,8.86,0,0,0-1,4.25c0,.26,0,.51,0,.76,1,.32,2,.62,3,.9s2.24.64,3.28,1a4.33,4.33,0,0,1-1.1-2.87,4.43,4.43,0,0,1,0-.52,8.24,8.24,0,0,1-3-1.83,4.13,4.13,0,0,1-1-1.62l-.23-.08"/><path class="cls-4" d="M238.13,54.89a8.12,8.12,0,0,0,.73,2.32,5.82,5.82,0,0,0,2.29,2.49,7,7,0,0,0,2.76.88c.93.09,1.71.14,2.35.14a6,6,0,0,0,3.2-.86,2.36,2.36,0,0,0,.85-3.74,1.67,1.67,0,0,0-1.26-.65,2.78,2.78,0,0,0-1.19.24,2.78,2.78,0,0,1-1.19.24,4.31,4.31,0,0,1-1.54-.31,2.35,2.35,0,0,1-.92-.65,6.36,6.36,0,0,1-2.2.38c-.64,0-1.42,0-2.35-.14a6.47,6.47,0,0,1-1.53-.34m5.27-29.52h-4.25V46.46a2.68,2.68,0,0,1,.78-.1,1.7,1.7,0,0,1,1.26.65,2.46,2.46,0,0,1,.58,1.67,2.12,2.12,0,0,1-.82,1.64,4.32,4.32,0,0,0,1.47.27,2.76,2.76,0,0,0,1-.15V30.73h6.2a2.47,2.47,0,0,0,1.81-.72,2.38,2.38,0,0,0,.71-1.74,2.6,2.6,0,0,0-.71-1.84,2.41,2.41,0,0,0-1.81-.75h-6.2v-.31m-2.66-8.95a2.78,2.78,0,0,0-1,.16h.7a2.4,2.4,0,0,1,1.81.75,2.58,2.58,0,0,1,.71,1.84,2.37,2.37,0,0,1-.28,1.16h.69V19.21a2.82,2.82,0,0,0-.75-2,2.49,2.49,0,0,0-1.91-.81"/><path class="cls-5" d="M241,50.32a4.36,4.36,0,0,1-.61.44,6,6,0,0,1-2.4.8v.78a16.27,16.27,0,0,0,.19,2.55,6.47,6.47,0,0,0,1.53.34c.93.09,1.71.14,2.35.14a6.36,6.36,0,0,0,2.2-.38,4.37,4.37,0,0,1-.34-.47,5.13,5.13,0,0,1-.47-2.46V50.44a2.76,2.76,0,0,1-1,.15,4.32,4.32,0,0,1-1.47-.27m2.45-30h-.69a2.14,2.14,0,0,1-.43.57,2.45,2.45,0,0,1-1.81.72h-2.53v4.06h-3.67v5.05h3.67V46.82a2.42,2.42,0,0,0,.79-.22,1.88,1.88,0,0,1,.42-.14V25.37h4.25v-5"/><path class="cls-6" d="M239.93,46.36a2.68,2.68,0,0,0-.78.1v.25a5.08,5.08,0,0,0,.47,2.45,2.54,2.54,0,0,0,1.26,1.13l.07,0a2.12,2.12,0,0,0,.82-1.64,2.46,2.46,0,0,0-.58-1.67,1.7,1.7,0,0,0-1.26-.65m-6.24-20.68h-.11a2.57,2.57,0,0,0-1.8.72,2.42,2.42,0,0,0,0,3.58,2.52,2.52,0,0,0,1.8.75h.11V25.68m6.78-9.1h-.7a2.8,2.8,0,0,0-.62.32v3.43h3.56a2.37,2.37,0,0,0,.28-1.16,2.58,2.58,0,0,0-.71-1.84,2.4,2.4,0,0,0-1.81-.75"/><path d="M239.15,46.46a1.88,1.88,0,0,0-.42.14,2.42,2.42,0,0,1-.79.22v4.74a6,6,0,0,0,2.4-.8,4.36,4.36,0,0,0,.61-.44l-.07,0a2.54,2.54,0,0,1-1.26-1.13,5.08,5.08,0,0,1-.47-2.45v-.25m-4.88-20.78h-.58v5.05h.58V25.68m4.88-8.78a3.09,3.09,0,0,0-.39.33,2.72,2.72,0,0,0-.82,2v2.41h2.53a2.45,2.45,0,0,0,1.81-.72,2.14,2.14,0,0,0,.43-.57h-3.56V16.9"/><path class="cls-4" d="M293.5,25.14a2.8,2.8,0,0,0-1.53.41v27a2.76,2.76,0,0,1-.78,2,2.61,2.61,0,0,1-1.94.82,2.58,2.58,0,0,1-2-.82,3,3,0,0,1-.57-.91,11.17,11.17,0,0,1-1.21.94,10.5,10.5,0,0,1-6,1.78,10.93,10.93,0,0,1-3.06-.42,14.22,14.22,0,0,1-1.73.11,14.91,14.91,0,0,1-8.38-2.42,15.71,15.71,0,0,1-1.54-1.14A17.1,17.1,0,0,0,270.53,59a14.83,14.83,0,0,0,8.38,2.42,13.53,13.53,0,0,0,5.15-1,15.21,15.21,0,0,0,4.18-2.52A13.37,13.37,0,0,0,290.77,55v2.89a2.82,2.82,0,0,0,.75,2,2.54,2.54,0,0,0,2,.82,2.58,2.58,0,0,0,1.94-.82,2.76,2.76,0,0,0,.78-2V27.86a2.69,2.69,0,0,0-.75-1.94,2.61,2.61,0,0,0-2-.78M278,24.61a14.86,14.86,0,0,0-7.44,2.33,16.58,16.58,0,0,0-5.83,6.48,18.33,18.33,0,0,0-1,2.27c-.06.61-.1,1.24-.1,1.89a15.16,15.16,0,0,0,1.51,6.85,12.66,12.66,0,0,0,1.31,2.13,10.48,10.48,0,0,0,1.94.53,16.41,16.41,0,0,1-.51-4.16,14.91,14.91,0,0,1,1.51-6.82,12,12,0,0,1,4.12-4.74,10.62,10.62,0,0,1,6-1.73,11.71,11.71,0,0,1,2,.16,14.1,14.1,0,0,0-1-2.73A13.26,13.26,0,0,0,279.17,25a9.8,9.8,0,0,0-1.2-.37"/><path class="cls-5" d="M264.17,51.3c.17.38.34.74.53,1.1l0,.09a15.71,15.71,0,0,0,1.54,1.14,14.91,14.91,0,0,0,8.38,2.42,14.22,14.22,0,0,0,1.73-.11,10,10,0,0,1-2.9-1.36,12,12,0,0,1-2.55-2.33c-.38,0-.77,0-1.16,0a15.61,15.61,0,0,1-5.61-1m-.46-15.61a21.69,21.69,0,0,0-1.16,7.24c0,.36,0,.71,0,1.06a12.2,12.2,0,0,0,1.79,1.49,10.19,10.19,0,0,0,2.07,1.08,12.66,12.66,0,0,1-1.31-2.13,15.16,15.16,0,0,1-1.51-6.85c0-.65,0-1.28.1-1.89M292,25.55a2.6,2.6,0,0,0-.45.37,2.69,2.69,0,0,0-.75,1.94V30.6a13.08,13.08,0,0,0-2.22-2.46A12.46,12.46,0,0,0,287.09,27v5.68a12.45,12.45,0,0,1,2.49,3.47A15.27,15.27,0,0,1,291,42.93a15.65,15.65,0,0,1-1.46,6.85,12.32,12.32,0,0,1-2.88,3.86,3,3,0,0,0,.57.91,2.58,2.58,0,0,0,2,.82,2.61,2.61,0,0,0,1.94-.82,2.76,2.76,0,0,0,.78-2v-27m-13.27-1-.73,0a9.8,9.8,0,0,1,1.2.37l-.3-.39h-.17"/><path class="cls-6" d="M266.43,46.56a11.48,11.48,0,0,0,2.62,2.54,14.84,14.84,0,0,1-.68-2,10.48,10.48,0,0,1-1.94-.53M279.17,25a13.26,13.26,0,0,1,1.28,2.09,14.1,14.1,0,0,1,1,2.73,10.21,10.21,0,0,1,4.05,1.61l.15.1c-.1-.23-.21-.46-.32-.68a12.05,12.05,0,0,0-4.08-4.78A10.42,10.42,0,0,0,279.17,25"/><path d="M262.57,44a20.47,20.47,0,0,0,1.6,7.31,15.61,15.61,0,0,0,5.61,1c.39,0,.78,0,1.16,0a13.15,13.15,0,0,1-1.57-2.47c-.11-.22-.22-.45-.32-.68a11.48,11.48,0,0,1-2.62-2.54,10.19,10.19,0,0,1-2.07-1.08A12.2,12.2,0,0,1,262.57,44m16.3-19.4.3.39a10.42,10.42,0,0,1,2.07,1.07,12.05,12.05,0,0,1,4.08,4.78c.11.22.22.45.32.68a11.13,11.13,0,0,1,1.45,1.2V27a15.79,15.79,0,0,0-2.93-1.49,15.52,15.52,0,0,0-5.29-.95"/><path class="cls-4" d="M314.61,54.89a7.54,7.54,0,0,0,.73,2.32,5.82,5.82,0,0,0,2.29,2.49,7,7,0,0,0,2.75.88c.93.09,1.72.14,2.35.14a6,6,0,0,0,3.21-.86,2.38,2.38,0,0,0,.85-3.74,1.67,1.67,0,0,0-1.26-.65,2.78,2.78,0,0,0-1.19.24,2.81,2.81,0,0,1-1.19.24,4.31,4.31,0,0,1-1.54-.31,2.35,2.35,0,0,1-.92-.65,6.41,6.41,0,0,1-2.21.38c-.63,0-1.42,0-2.35-.14a6.29,6.29,0,0,1-1.52-.34m5.26-29.52h-4.25V46.46a2.78,2.78,0,0,1,.78-.1,1.67,1.67,0,0,1,1.26.65,2.41,2.41,0,0,1,.58,1.67,2.14,2.14,0,0,1-.81,1.64,4.32,4.32,0,0,0,1.47.27,2.71,2.71,0,0,0,1-.15V30.73h6.2a2.43,2.43,0,0,0,1.81-.72,2.35,2.35,0,0,0,.72-1.74,2.57,2.57,0,0,0-.72-1.84,2.38,2.38,0,0,0-1.81-.75h-6.2v-.31m-2.65-8.95a2.78,2.78,0,0,0-1,.16h.7a2.38,2.38,0,0,1,1.8.75,2.55,2.55,0,0,1,.72,1.84,2.37,2.37,0,0,1-.28,1.16h.68V19.21a2.82,2.82,0,0,0-.75-2,2.47,2.47,0,0,0-1.9-.81"/><path class="cls-5" d="M317.43,50.32a4.49,4.49,0,0,1-.62.44,6,6,0,0,1-2.39.8v.78a15.15,15.15,0,0,0,.19,2.55,6.29,6.29,0,0,0,1.52.34c.93.09,1.72.14,2.35.14a6.41,6.41,0,0,0,2.21-.38,2.69,2.69,0,0,1-.34-.47,5,5,0,0,1-.48-2.46V50.44a2.71,2.71,0,0,1-1,.15,4.32,4.32,0,0,1-1.47-.27m2.44-30h-.68a2.18,2.18,0,0,1-.44.57,2.43,2.43,0,0,1-1.8.72h-2.53v4.06h-3.68v5.05h3.68V46.82a2.49,2.49,0,0,0,.79-.22,2,2,0,0,1,.41-.14V25.37h4.25v-5"/><path class="cls-6" d="M316.4,46.36a2.78,2.78,0,0,0-.78.1v.25a5,5,0,0,0,.48,2.45,2.54,2.54,0,0,0,1.26,1.13l.07,0a2.14,2.14,0,0,0,.81-1.64,2.41,2.41,0,0,0-.58-1.67,1.67,1.67,0,0,0-1.26-.65m-6.23-20.68h-.11a2.6,2.6,0,0,0-1.81.72,2.44,2.44,0,0,0,0,3.58,2.54,2.54,0,0,0,1.81.75h.11V25.68m6.78-9.1h-.7a3.11,3.11,0,0,0-.63.32v3.43h3.57a2.37,2.37,0,0,0,.28-1.16,2.55,2.55,0,0,0-.72-1.84,2.38,2.38,0,0,0-1.8-.75"/><path d="M315.62,46.46a2,2,0,0,0-.41.14,2.49,2.49,0,0,1-.79.22v4.74a6,6,0,0,0,2.39-.8,4.49,4.49,0,0,0,.62-.44l-.07,0a2.54,2.54,0,0,1-1.26-1.13,5,5,0,0,1-.48-2.45v-.25m-4.88-20.78h-.57v5.05h.57V25.68m4.88-8.78q-.19.15-.39.33a2.71,2.71,0,0,0-.81,2v2.41H317a2.43,2.43,0,0,0,1.8-.72,2.18,2.18,0,0,0,.44-.57h-3.57V16.9"/><path class="cls-4" d="M343.8,24.94a2.76,2.76,0,0,0-1.53.41V52.57a2.76,2.76,0,0,1-.78,2,2.6,2.6,0,0,1-.49.4v3a2.76,2.76,0,0,0,.78,2,2.68,2.68,0,0,0,2,.82,2.56,2.56,0,0,0,1.94-.82,2.76,2.76,0,0,0,.78-2V27.73a2.76,2.76,0,0,0-.78-2,2.59,2.59,0,0,0-1.94-.81"/><path class="cls-5" d="M342.27,25.35a3.06,3.06,0,0,0-.49.4,2.76,2.76,0,0,0-.78,2V55a2.6,2.6,0,0,0,.49-.4,2.76,2.76,0,0,0,.78-2V25.35"/><path class="cls-4" d="M343.8,13.82a5.6,5.6,0,0,0-1.51.19,1.94,1.94,0,0,1-.32.32,2.81,2.81,0,0,1-1,.51,2.74,2.74,0,0,0-.54,1.78v.95a2.6,2.6,0,0,0,.82,2.12,3.89,3.89,0,0,0,2.52.68,4,4,0,0,0,2.49-.68,2.55,2.55,0,0,0,.85-2.12v-.95a2.57,2.57,0,0,0-.82-2.11,3.73,3.73,0,0,0-2.45-.69"/><path class="cls-5" d="M342.29,14a3,3,0,0,0-1,.5,2.13,2.13,0,0,0-.34.33,2.81,2.81,0,0,0,1-.51,1.94,1.94,0,0,0,.32-.32"/><path class="cls-4" d="M388.24,28.61a19.23,19.23,0,0,1,2.08,9A19.91,19.91,0,0,1,389,45a13.7,13.7,0,0,1-1.49,4.88,12.39,12.39,0,0,1-4.36,4.74,11.45,11.45,0,0,1-6.24,1.74A12.33,12.33,0,0,1,374,56c-.43,0-.87,0-1.31,0a17.32,17.32,0,0,1-11.4-4.1c.09.18.19.35.28.52A17.52,17.52,0,0,0,367.93,59a17.49,17.49,0,0,0,24.33-6.55A19.17,19.17,0,0,0,394.57,43a19.18,19.18,0,0,0-2.31-9.48,17.38,17.38,0,0,0-4-4.91m-12.6-4A17,17,0,0,0,367.93,27a17.42,17.42,0,0,0-6.38,6.54,16.22,16.22,0,0,0-.95,2,16.67,16.67,0,0,0-.13,2.15,14.39,14.39,0,0,0,1.6,6.89,13.81,13.81,0,0,0,1.19,1.84,10.92,10.92,0,0,0,1.94.61,15.9,15.9,0,0,1-.48-4,14.29,14.29,0,0,1,1.6-6.92,12.32,12.32,0,0,1,4.4-4.71,11.57,11.57,0,0,1,6.2-1.73,12.88,12.88,0,0,1,2.6.26A12.62,12.62,0,0,0,378.39,27a13.36,13.36,0,0,0-1.19-1.83,10.53,10.53,0,0,0-1.56-.51"/><path class="cls-5" d="M360.77,50.91c.16.35.32.7.5,1a17.32,17.32,0,0,0,11.4,4.1c.44,0,.88,0,1.31,0a11.3,11.3,0,0,1-3.26-1.39A12,12,0,0,1,368,52.29h-.19a17.73,17.73,0,0,1-7-1.38m-.17-15.42A19.62,19.62,0,0,0,359.2,43c0,.19,0,.39,0,.58a11.76,11.76,0,0,0,2.38,1.93,11.48,11.48,0,0,0,1.67.86,13.81,13.81,0,0,1-1.19-1.84,14.39,14.39,0,0,1-1.6-6.89,16.67,16.67,0,0,1,.13-2.15m23.28-9.56a19.61,19.61,0,0,1,1.56,7.29,12.8,12.8,0,0,1,2.08,2.86,14.29,14.29,0,0,1,1.6,6.92,18.71,18.71,0,0,1-.11,2,19.91,19.91,0,0,0,1.31-7.36,19.23,19.23,0,0,0-2.08-9A17.2,17.2,0,0,0,386,27a16.76,16.76,0,0,0-2.07-1.05m-7.13-1.34c-.38,0-.75,0-1.11,0a10.53,10.53,0,0,1,1.56.51c-.14-.19-.29-.37-.45-.55"/><path class="cls-6" d="M363.26,46.37a12.24,12.24,0,0,0,2.56,2.47A13.09,13.09,0,0,1,365.2,47a10.92,10.92,0,0,1-1.94-.61M377.2,25.14A13.36,13.36,0,0,1,378.39,27a12.62,12.62,0,0,1,1.13,2.93,11.33,11.33,0,0,1,3.64,1.47l.62.42a10.32,10.32,0,0,0-.51-1.06A12.45,12.45,0,0,0,378.91,26a11.52,11.52,0,0,0-1.71-.88"/><path d="M359.21,43.58a19,19,0,0,0,1.56,7.33,17.73,17.73,0,0,0,7,1.38H368a13,13,0,0,1-1.66-2.41c-.18-.34-.35-.69-.5-1a12.24,12.24,0,0,1-2.56-2.47,11.48,11.48,0,0,1-1.67-.86,11.76,11.76,0,0,1-2.38-1.93m17.71-19h-.17c.16.18.31.36.45.55a11.52,11.52,0,0,1,1.71.88,12.45,12.45,0,0,1,4.36,4.71,10.32,10.32,0,0,1,.51,1.06,12.63,12.63,0,0,1,1.66,1.43,19.61,19.61,0,0,0-1.56-7.29,17.8,17.8,0,0,0-7-1.34"/><path class="cls-4" d="M431.9,26.17l0,.09a21.73,21.73,0,0,1,1.12,7.23V52.57a2.76,2.76,0,0,1-.78,2,2.36,2.36,0,0,1-.42.36v3a2.82,2.82,0,0,0,.75,2,2.54,2.54,0,0,0,2,.82,2.58,2.58,0,0,0,1.95-.82,2.76,2.76,0,0,0,.78-2V38.84a21.77,21.77,0,0,0-1.12-7.23,10.37,10.37,0,0,0-3.79-5.11,4.32,4.32,0,0,0-.5-.33m-23.08-.27,0,0v0l0,0M421.88,25a12.57,12.57,0,0,0-1.47.47,15.41,15.41,0,0,0-4.09,2.28A14.19,14.19,0,0,0,413.25,31l-.2.34v-3a2.83,2.83,0,0,0-.54-1.75,9.81,9.81,0,0,0-2.28,2.4,8.16,8.16,0,0,0-1.43,4.7v19a2.77,2.77,0,0,1-.79,2,2.36,2.36,0,0,1-.42.36v3a2.73,2.73,0,0,0,.79,2,2.7,2.7,0,0,0,3.88,0,2.77,2.77,0,0,0,.79-2V39a8.16,8.16,0,0,1,1.43-4.7,10.32,10.32,0,0,1,3.82-3.37,11,11,0,0,1,4.43-1.24,13.44,13.44,0,0,0-.78-4.5l-.07-.18"/><path class="cls-5" d="M410.32,25.48a2.69,2.69,0,0,0-1.5.42l0,0v0a2.68,2.68,0,0,0-1.21,2.35V54.91a2.36,2.36,0,0,0,.42-.36,2.77,2.77,0,0,0,.79-2v-19a8.16,8.16,0,0,1,1.43-4.7,9.81,9.81,0,0,1,2.28-2.4,2.65,2.65,0,0,0-.21-.26,2.62,2.62,0,0,0-2-.78m17.37-.72a23.65,23.65,0,0,1,.5,5v1l.26.17a6.92,6.92,0,0,1,2.63,3.37,13.51,13.51,0,0,1,.78,4.7V54.91a2.36,2.36,0,0,0,.42-.36,2.76,2.76,0,0,0,.78-2V33.49a21.73,21.73,0,0,0-1.12-7.23l0-.09a10.79,10.79,0,0,0-4.21-1.41"/><path class="cls-6" d="M422.72,24.8c-.28.05-.56.12-.84.18l.07.18a13.44,13.44,0,0,1,.78,4.5l.82,0a9.94,9.94,0,0,1,3.68.62,11,11,0,0,0-.4-1.34,7,7,0,0,0-2.63-3.38,6.61,6.61,0,0,0-1.48-.74"/><path d="M425.11,24.59a13.53,13.53,0,0,0-2.39.21,6.61,6.61,0,0,1,1.48.74,7,7,0,0,1,2.63,3.38,11,11,0,0,1,.4,1.34,6.1,6.1,0,0,1,1,.47v-1a23.65,23.65,0,0,0-.5-5,18.94,18.94,0,0,0-2.58-.17"/></g></g></svg>